SplineFontDB: 3.0
FontName: Offside-Regular
FullName: Offside
FamilyName: Offside
Weight: Book
Copyright: Copyright (c) 2012, Eduardo Tunni (http://www.tipo.net.ar), with Reserved Font Name 'Offside'
Version: 1.001
ItalicAngle: 0
UnderlinePosition: -50
UnderlineWidth: 50
Ascent: 800
Descent: 200
sfntRevision: 0x00010042
LayerCount: 2
Layer: 0 1 "Back"  1
Layer: 1 1 "Fore"  0
XUID: [1021 539 1246218172 3454933]
FSType: 0
OS2Version: 3
OS2_WeightWidthSlopeOnly: 0
OS2_UseTypoMetrics: 1
CreationTime: 1320186180
ModificationTime: 1351265105
PfmFamily: 17
TTFWeight: 400
TTFWidth: 5
LineGap: 0
VLineGap: 0
Panose: 2 0 5 3 4 0 0 2 0 4
OS2TypoAscent: 996
OS2TypoAOffset: 0
OS2TypoDescent: -265
OS2TypoDOffset: 0
OS2TypoLinegap: 0
OS2WinAscent: 996
OS2WinAOffset: 0
OS2WinDescent: 265
OS2WinDOffset: 0
HheadAscent: 996
HheadAOffset: 0
HheadDescent: -265
HheadDOffset: 0
OS2SubXSize: 650
OS2SubYSize: 600
OS2SubXOff: 0
OS2SubYOff: 75
OS2SupXSize: 650
OS2SupYSize: 600
OS2SupXOff: 0
OS2SupYOff: 350
OS2StrikeYSize: 50
OS2StrikeYPos: 360
OS2Vendor: 'TIPO'
OS2CodePages: 20000001.00000000
OS2UnicodeRanges: 800000af.5000204a.00000000.00000000
Lookup: 4 0 1 "'liga' Standard Ligatures lookup 0"  {"'liga' Standard Ligatures lookup 0 subtable"  } ['liga' ('DFLT' <'dflt' > ) ]
Lookup: 258 0 0 "'kern' Horizontal Kerning lookup 0"  {"'kern' Horizontal Kerning lookup 0 per glyph data 0"  "'kern' Horizontal Kerning lookup 0 per glyph data 1"  "'kern' Horizontal Kerning lookup 0 kerning class 2"  } ['kern' ('DFLT' <'dflt' > ) ]
DEI: 91125
KernClass2: 2+ 5 "'kern' Horizontal Kerning lookup 0 kerning class 2" 
 8 L Lslash
 18 Y Yacute Ydieresis
 68 quotedbl quotesingle quoteleft quoteright quotedblleft quotedblright
 18 Y Yacute Ydieresis
 49 comma period quotesinglbase quotedblbase ellipsis
 126 c d e g o p q r s ccedilla egrave eacute ecircumflex edieresis eth ograve oacute ocircumflex otilde odieresis oslash oe scaron
 0 {} -90 {} -85 {} 0 {} 0 {} 0 {} 0 {} 0 {} -85 {} -50 {}
TtTable: prep
PUSHW_1

StartChar: exclam
Encoding: 33 33 4
Width: 301
GlyphClass: 2
Flags: W
LayerCount: 2
Fore
SplineSet
150 247 m 128,-1,1
 117 247 117 247 117 269 c 2,2,-1
 100 787 l 2,3,4
 100 815 100 815 150 815 c 128,-1,5
 200 815 200 815 200 786 c 2,6,-1
 183 269 l 2,7,0
 183 247 183 247 150 247 c 128,-1,1
193 94 m 2,8,-1
 193 9 l 2,9,10
 193 -15 193 -15 150.5 -15 c 128,-1,11
 108 -15 108 -15 108 9 c 2,12,-1
 108 94 l 2,13,14
 108 118 108 118 150.5 118 c 128,-1,15
 193 118 193 118 193 94 c 2,8,-1
EndSplineSet
EndChar

StartChar: quotedbl
Encoding: 34 34 5
Width: 354
GlyphClass: 2
Flags: W
LayerCount: 2
Fore
SplineSet
92 525 m 128,-1,1
 58 525 58 525 58 543 c 2,2,-1
 50 758 l 2,3,4
 50 781 50 781 92 781 c 128,-1,5
 134 781 134 781 134 757 c 2,6,-1
 126 543 l 2,7,0
 126 525 126 525 92 525 c 128,-1,1
262 525 m 128,-1,9
 228 525 228 525 228 543 c 2,10,-1
 220 758 l 2,11,12
 220 781 220 781 262 781 c 128,-1,13
 304 781 304 781 304 757 c 2,14,-1
 296 543 l 2,15,8
 296 525 296 525 262 525 c 128,-1,9
EndSplineSet
EndChar

StartChar: numbersign
Encoding: 35 35 6
Width: 600
GlyphClass: 2
Flags: W
LayerCount: 2
Fore
SplineSet
34 516 m 2,0,-1
 170 516 l 1,1,-1
 214 732 l 1,2,3
 221 755 221 755 253.5 755 c 128,-1,4
 286 755 286 755 286 738 c 0,5,6
 286 732 286 732 283 721 c 2,7,-1
 241 516 l 1,8,-1
 420 516 l 1,9,-1
 464 732 l 2,10,11
 469 755 469 755 502.5 755 c 128,-1,12
 536 755 536 755 536 738 c 0,13,14
 536 732 536 732 533 721 c 2,15,-1
 491 516 l 1,16,-1
 611 516 l 2,17,18
 631 516 631 516 631 481 c 128,-1,19
 631 446 631 446 611 446 c 2,20,-1
 476 446 l 1,21,-1
 446 296 l 1,22,-1
 567 296 l 2,23,24
 587 296 587 296 587 261 c 128,-1,25
 587 226 587 226 567 226 c 2,26,-1
 431 226 l 1,27,-1
 387 8 l 1,28,29
 380 -15 380 -15 347 -15 c 128,-1,30
 314 -15 314 -15 314 2 c 0,31,32
 314 4 314 4 318 19 c 2,33,-1
 360 226 l 1,34,-1
 181 226 l 1,35,-1
 137 8 l 1,36,37
 130 -15 130 -15 97 -15 c 128,-1,38
 64 -15 64 -15 64 2 c 0,39,40
 64 4 64 4 68 19 c 2,41,-1
 110 226 l 1,42,-1
 -11 226 l 2,43,44
 -31 226 -31 226 -31 261 c 128,-1,45
 -31 296 -31 296 -11 296 c 2,46,-1
 125 296 l 1,47,-1
 155 446 l 1,48,-1
 34 446 l 2,49,50
 14 446 14 446 14 481 c 128,-1,51
 14 516 14 516 34 516 c 2,0,-1
226 446 m 1,52,-1
 196 296 l 1,53,-1
 375 296 l 1,54,-1
 405 446 l 1,55,-1
 226 446 l 1,52,-1
EndSplineSet
EndChar

StartChar: dollar
Encoding: 36 36 7
Width: 600
GlyphClass: 2
Flags: W
LayerCount: 2
Fore
SplineSet
339 822 m 2,0,-1
 339 740 l 1,1,-1
 480 740 l 2,2,3
 500 740 500 740 500 705 c 128,-1,4
 500 670 500 670 480 670 c 2,5,-1
 339 670 l 1,6,-1
 339 403 l 1,7,8
 416 386 416 386 447 372.5 c 128,-1,9
 478 359 478 359 491 344 c 0,10,11
 523 309 523 309 523 248 c 2,12,-1
 523 166 l 2,13,14
 523 80 523 80 487 40 c 128,-1,15
 451 0 451 0 365 0 c 2,16,-1
 339 0 l 1,17,-1
 339 -82 l 2,18,19
 339 -105 339 -105 303 -105 c 128,-1,20
 267 -105 267 -105 267 -82 c 2,21,-1
 267 0 l 1,22,-1
 103 0 l 2,23,24
 83 0 83 0 83 35 c 128,-1,25
 83 70 83 70 103 70 c 2,26,-1
 267 70 l 1,27,-1
 267 347 l 1,28,-1
 238 354 l 2,29,30
 177 368 177 368 146 385 c 0,31,32
 80 420 80 420 80 530 c 2,33,-1
 80 574 l 2,34,35
 80 660 80 660 116 700 c 128,-1,36
 152 740 152 740 238 740 c 2,37,-1
 267 740 l 1,38,-1
 267 822 l 2,39,40
 267 845 267 845 303 845 c 128,-1,41
 339 845 339 845 339 822 c 2,0,-1
443 166 m 2,42,-1
 443 256 l 2,43,44
 443 287 443 287 419 302 c 128,-1,45
 395 317 395 317 339 331 c 1,46,-1
 339 70 l 1,47,-1
 365 70 l 2,48,49
 408 70 408 70 425.5 92.5 c 128,-1,50
 443 115 443 115 443 166 c 2,42,-1
160 532 m 2,51,52
 160 477 160 477 176.5 456.5 c 128,-1,53
 193 436 193 436 238 426 c 2,54,-1
 267 419 l 1,55,-1
 267 670 l 1,56,-1
 238 670 l 2,57,58
 195 670 195 670 177.5 647.5 c 128,-1,59
 160 625 160 625 160 574 c 2,60,-1
 160 532 l 2,51,52
EndSplineSet
EndChar

StartChar: percent
Encoding: 37 37 8
Width: 1011
GlyphClass: 2
Flags: W
LayerCount: 2
Fore
SplineSet
942 386 m 2,0,-1
 942 98 l 2,1,2
 942 42 942 42 899.5 16 c 128,-1,3
 857 -10 857 -10 787 -10 c 0,4,5
 634 -10 634 -10 634 98 c 2,6,-1
 634 386 l 2,7,8
 634 442 634 442 677.5 467.5 c 128,-1,9
 721 493 721 493 791 493 c 0,10,11
 942 493 942 493 942 386 c 2,0,-1
699 393 m 2,12,-1
 699 91 l 2,13,14
 699 49 699 49 788.5 49 c 128,-1,15
 878 49 878 49 878 91 c 2,16,-1
 878 393 l 2,17,18
 878 435 878 435 788.5 435 c 128,-1,19
 699 435 699 435 699 393 c 2,12,-1
378 642 m 2,20,-1
 378 354 l 2,21,22
 378 298 378 298 335.5 272 c 128,-1,23
 293 246 293 246 223 246 c 0,24,25
 70 246 70 246 70 354 c 2,26,-1
 70 642 l 2,27,28
 70 698 70 698 113.5 723.5 c 128,-1,29
 157 749 157 749 227 749 c 0,30,31
 378 749 378 749 378 642 c 2,20,-1
135 649 m 2,32,-1
 135 347 l 2,33,34
 135 305 135 305 224.5 305 c 128,-1,35
 314 305 314 305 314 347 c 2,36,-1
 314 649 l 2,37,38
 314 691 314 691 224.5 691 c 128,-1,39
 135 691 135 691 135 649 c 2,32,-1
459 8 m 2,40,41
 454 -15 454 -15 427 -15 c 128,-1,42
 400 -15 400 -15 400 2 c 1,43,-1
 552 732 l 2,44,45
 557 755 557 755 584 755 c 128,-1,46
 611 755 611 755 611 738 c 1,47,-1
 459 8 l 2,40,41
EndSplineSet
EndChar

StartChar: ampersand
Encoding: 38 38 9
Width: 703
GlyphClass: 2
Flags: W
LayerCount: 2
Fore
SplineSet
171 717.5 m 128,-1,1
 232 755 232 755 326.5 755 c 128,-1,2
 421 755 421 755 476 717 c 128,-1,3
 531 679 531 679 531 597 c 2,4,-1
 531 582 l 2,5,6
 531 559 531 559 491 559 c 128,-1,7
 451 559 451 559 451 582 c 2,8,-1
 451 607 l 2,9,10
 451 685 451 685 320.5 685 c 128,-1,11
 190 685 190 685 190 607 c 2,12,-1
 190 504 l 2,13,14
 190 416 190 416 298 416 c 2,15,-1
 683 416 l 2,16,17
 703 416 703 416 703 381 c 128,-1,18
 703 346 703 346 683 346 c 2,19,-1
 543 346 l 1,20,-1
 543 -83 l 2,21,22
 543 -115 543 -115 558 -142.5 c 128,-1,23
 573 -170 573 -170 573 -171 c 0,24,25
 573 -183 573 -183 554 -196.5 c 128,-1,26
 535 -210 535 -210 522 -210 c 0,27,28
 501 -210 501 -210 482 -173.5 c 128,-1,29
 463 -137 463 -137 463 -93 c 2,30,-1
 463 23 l 1,31,32
 421 -15 421 -15 321.5 -15 c 128,-1,33
 222 -15 222 -15 161 22.5 c 128,-1,34
 100 60 100 60 100 143 c 2,35,-1
 100 258 l 2,36,37
 100 361 100 361 188 382 c 1,38,39
 110 406 110 406 110 504 c 2,40,-1
 110 597 l 2,41,0
 110 680 110 680 171 717.5 c 128,-1,1
180 258 m 2,42,-1
 180 133 l 2,43,44
 180 55 180 55 321.5 55 c 128,-1,45
 463 55 463 55 463 133 c 2,46,-1
 463 346 l 1,47,-1
 288 346 l 2,48,49
 180 346 180 346 180 258 c 2,42,-1
EndSplineSet
EndChar

StartChar: quotesingle
Encoding: 39 39 10
Width: 184
GlyphClass: 2
Flags: W
LayerCount: 2
Fore
SplineSet
92 525 m 128,-1,1
 58 525 58 525 58 543 c 2,2,-1
 50 758 l 2,3,4
 50 781 50 781 92 781 c 128,-1,5
 134 781 134 781 134 757 c 2,6,-1
 126 543 l 2,7,0
 126 525 126 525 92 525 c 128,-1,1
EndSplineSet
EndChar

StartChar: parenleft
Encoding: 40 40 11
Width: 360
GlyphClass: 2
Flags: W
LayerCount: 2
Fore
SplineSet
235 600 m 128,-1,1
 200 488 200 488 200 372 c 128,-1,2
 200 256 200 256 234.5 143.5 c 128,-1,3
 269 31 269 31 328 -60 c 0,4,5
 330 -64 330 -64 330 -67 c 0,6,7
 330 -81 330 -81 301 -94 c 1,8,9
 283 -100 283 -100 272.5 -100 c 128,-1,10
 262 -100 262 -100 255 -90 c 0,11,12
 209 -27 209 -27 164.5 96 c 128,-1,13
 120 219 120 219 120 370 c 128,-1,14
 120 521 120 521 164.5 644 c 128,-1,15
 209 767 209 767 255 830 c 0,16,17
 262 840 262 840 272.5 840 c 128,-1,18
 283 840 283 840 301 834 c 1,19,20
 330 821 330 821 330 807 c 0,21,22
 330 804 330 804 328 800 c 0,23,0
 270 712 270 712 235 600 c 128,-1,1
EndSplineSet
EndChar

StartChar: parenright
Encoding: 41 41 12
Width: 360
GlyphClass: 2
Flags: W
LayerCount: 2
Fore
SplineSet
125.5 143.5 m 128,-1,1
 160 256 160 256 160 372 c 128,-1,2
 160 488 160 488 125 600 c 128,-1,3
 90 712 90 712 32 800 c 0,4,5
 30 804 30 804 30 807 c 0,6,7
 30 821 30 821 59 834 c 1,8,9
 77 840 77 840 87.5 840 c 128,-1,10
 98 840 98 840 105 830 c 0,11,12
 151 767 151 767 195.5 644 c 128,-1,13
 240 521 240 521 240 370 c 128,-1,14
 240 219 240 219 195.5 96 c 128,-1,15
 151 -27 151 -27 105 -90 c 0,16,17
 98 -100 98 -100 87.5 -100 c 128,-1,18
 77 -100 77 -100 59 -94 c 1,19,20
 30 -81 30 -81 30 -67 c 0,21,22
 30 -64 30 -64 32 -60 c 0,23,0
 91 31 91 31 125.5 143.5 c 128,-1,1
EndSplineSet
EndChar

StartChar: asterisk
Encoding: 42 42 13
Width: 618
GlyphClass: 2
Flags: W
LayerCount: 2
Fore
SplineSet
257 638 m 2,0,1
 265 632 265 632 265 621 c 128,-1,2
 265 610 265 610 256 596 c 128,-1,3
 247 582 247 582 239 582 c 128,-1,4
 231 582 231 582 220 587 c 2,5,-1
 111 638 l 2,6,7
 100 644 100 644 100 659 c 128,-1,8
 100 674 100 674 114.5 693.5 c 128,-1,9
 129 713 129 713 139 713 c 128,-1,10
 149 713 149 713 154 709 c 2,11,-1
 257 638 l 2,0,1
309 802 m 128,-1,13
 351 802 351 802 351 778 c 0,14,15
 351 777 351 777 340 650 c 0,16,17
 338 630 338 630 309 630 c 128,-1,18
 280 630 280 630 278 650 c 2,19,-1
 267 778 l 1,20,12
 267 802 267 802 309 802 c 128,-1,13
464 709 m 1,21,22
 468 713 468 713 478.5 713 c 128,-1,23
 489 713 489 713 503.5 693.5 c 128,-1,24
 518 674 518 674 518 659 c 128,-1,25
 518 644 518 644 507 638 c 2,26,-1
 398 587 l 2,27,28
 387 582 387 582 379 582 c 128,-1,29
 371 582 371 582 362 596 c 128,-1,30
 353 610 353 610 353 621 c 128,-1,31
 353 632 353 632 361 638 c 2,32,-1
 464 709 l 1,21,22
154 434 m 2,33,34
 149 431 149 431 139 431 c 128,-1,35
 129 431 129 431 114.5 450.5 c 128,-1,36
 100 470 100 470 100 485 c 128,-1,37
 100 500 100 500 111 506 c 2,38,-1
 220 557 l 2,39,40
 231 562 231 562 239 562 c 128,-1,41
 247 562 247 562 256 548 c 128,-1,42
 265 534 265 534 265 522.5 c 128,-1,43
 265 511 265 511 257 506 c 2,44,-1
 154 434 l 2,33,34
309 342 m 128,-1,46
 267 342 267 342 267 366 c 0,47,48
 267 367 267 367 278 494 c 0,49,50
 280 514 280 514 309 514 c 128,-1,51
 338 514 338 514 340 494 c 2,52,-1
 351 366 l 1,53,45
 351 342 351 342 309 342 c 128,-1,46
361 506 m 2,54,55
 353 511 353 511 353 522.5 c 128,-1,56
 353 534 353 534 362 548 c 128,-1,57
 371 562 371 562 379 562 c 128,-1,58
 387 562 387 562 398 557 c 2,59,-1
 507 506 l 2,60,61
 518 500 518 500 518 485 c 128,-1,62
 518 470 518 470 503.5 450.5 c 128,-1,63
 489 431 489 431 478.5 431 c 128,-1,64
 468 431 468 431 464 434 c 2,65,-1
 361 506 l 2,54,55
EndSplineSet
EndChar

StartChar: plus
Encoding: 43 43 14
Width: 600
GlyphClass: 2
Flags: W
LayerCount: 2
Fore
SplineSet
265 166 m 2,0,-1
 265 336 l 1,1,-1
 95 336 l 2,2,3
 75 336 75 336 75 371 c 128,-1,4
 75 406 75 406 95 406 c 2,5,-1
 265 406 l 1,6,-1
 265 576 l 2,7,8
 265 596 265 596 300 596 c 128,-1,9
 335 596 335 596 335 576 c 2,10,-1
 335 406 l 1,11,-1
 505 406 l 2,12,13
 525 406 525 406 525 371 c 128,-1,14
 525 336 525 336 505 336 c 2,15,-1
 335 336 l 1,16,-1
 335 166 l 2,17,18
 335 146 335 146 300 146 c 128,-1,19
 265 146 265 146 265 166 c 2,0,-1
EndSplineSet
EndChar

StartChar: comma
Encoding: 44 44 15
Width: 201
GlyphClass: 2
Flags: W
LayerCount: 2
Fore
SplineSet
143 94 m 2,0,-1
 143 -17 l 2,1,2
 143 -49 143 -49 125 -100 c 1,3,-1
 116 -124 l 2,4,5
 113 -133 113 -133 100.5 -133 c 128,-1,6
 88 -133 88 -133 73.5 -125 c 128,-1,7
 59 -117 59 -117 59 -110 c 0,8,9
 59 -106 59 -106 61 -101 c 2,10,-1
 76 -61 l 2,11,12
 82 -43 82 -43 82 -34 c 128,-1,13
 82 -25 82 -25 70 -7.5 c 128,-1,14
 58 10 58 10 58 22 c 2,15,-1
 58 94 l 2,16,17
 58 118 58 118 100.5 118 c 128,-1,18
 143 118 143 118 143 94 c 2,0,-1
EndSplineSet
EndChar

StartChar: hyphen
Encoding: 45 45 16
Width: 465
GlyphClass: 2
Flags: W
LayerCount: 2
Fore
SplineSet
70 359 m 2,0,-1
 395 359 l 2,1,2
 415 359 415 359 415 324 c 128,-1,3
 415 289 415 289 395 289 c 2,4,-1
 70 289 l 2,5,6
 50 289 50 289 50 324 c 128,-1,7
 50 359 50 359 70 359 c 2,0,-1
EndSplineSet
EndChar

StartChar: period
Encoding: 46 46 17
Width: 201
GlyphClass: 2
Flags: W
LayerCount: 2
Fore
SplineSet
143 94 m 2,0,-1
 143 9 l 2,1,2
 143 -15 143 -15 100.5 -15 c 128,-1,3
 58 -15 58 -15 58 9 c 2,4,-1
 58 94 l 2,5,6
 58 118 58 118 100.5 118 c 128,-1,7
 143 118 143 118 143 94 c 2,0,-1
EndSplineSet
EndChar

StartChar: slash
Encoding: 47 47 18
Width: 377
GlyphClass: 2
Flags: W
LayerCount: 2
Fore
SplineSet
103 -82 m 2,0,1
 96 -105 96 -105 63 -105 c 128,-1,2
 30 -105 30 -105 30 -88 c 0,3,4
 30 -86 30 -86 34 -71 c 2,5,-1
 274 822 l 2,6,7
 281 845 281 845 314 845 c 128,-1,8
 347 845 347 845 347 828 c 0,9,10
 347 826 347 826 343 811 c 2,11,-1
 103 -82 l 2,0,1
EndSplineSet
EndChar

StartChar: zero
Encoding: 48 48 19
Width: 600
GlyphClass: 2
Flags: W
LayerCount: 2
Fore
SplineSet
533 597 m 2,0,-1
 533 143 l 2,1,2
 533 60 533 60 468.5 22.5 c 128,-1,3
 404 -15 404 -15 298 -15 c 0,4,5
 70 -15 70 -15 70 143 c 2,6,-1
 70 597 l 2,7,8
 70 680 70 680 134.5 717.5 c 128,-1,9
 199 755 199 755 305 755 c 0,10,11
 533 755 533 755 533 597 c 2,0,-1
453 133 m 2,12,-1
 453 607 l 2,13,14
 453 646 453 646 413 667 c 1,15,-1
 252 57 l 1,16,17
 266 55 266 55 298 55 c 0,18,19
 453 55 453 55 453 133 c 2,12,-1
150 607 m 2,20,-1
 150 133 l 2,21,22
 150 93 150 93 188 74 c 1,23,-1
 348 683 l 1,24,25
 322 685 322 685 305 685 c 0,26,27
 150 685 150 685 150 607 c 2,20,-1
EndSplineSet
EndChar

StartChar: one
Encoding: 49 49 20
Width: 600
GlyphClass: 2
Flags: W
LayerCount: 2
Fore
SplineSet
490 0 m 2,0,-1
 150 0 l 2,1,2
 130 0 130 0 130 35 c 128,-1,3
 130 70 130 70 150 70 c 2,4,-1
 280 70 l 1,5,-1
 280 670 l 1,6,-1
 150 670 l 2,7,8
 130 670 130 670 130 705 c 128,-1,9
 130 740 130 740 150 740 c 2,10,-1
 300 740 l 2,11,12
 338 740 338 740 349 724.5 c 128,-1,13
 360 709 360 709 360 668 c 2,14,-1
 360 70 l 1,15,-1
 490 70 l 2,16,17
 510 70 510 70 510 35 c 128,-1,18
 510 0 510 0 490 0 c 2,0,-1
EndSplineSet
EndChar

StartChar: two
Encoding: 50 50 21
Width: 600
GlyphClass: 2
Flags: W
LayerCount: 2
Fore
SplineSet
523 574 m 2,0,-1
 523 557 l 2,1,2
 523 499 523 499 459 421 c 2,3,-1
 169 70 l 1,4,-1
 503 70 l 2,5,6
 523 70 523 70 523 35 c 128,-1,7
 523 0 523 0 503 0 c 2,8,-1
 80 0 l 2,9,10
 60 0 60 0 60 35 c 0,11,12
 60 56 60 56 69 67 c 2,13,-1
 387 452 l 2,14,15
 417 489 417 489 430 513 c 128,-1,16
 443 537 443 537 443 562 c 2,17,-1
 443 574 l 2,18,19
 443 625 443 625 425.5 647.5 c 128,-1,20
 408 670 408 670 365 670 c 2,21,-1
 123 670 l 2,22,23
 103 670 103 670 103 705 c 128,-1,24
 103 740 103 740 123 740 c 2,25,-1
 365 740 l 2,26,27
 451 740 451 740 487 700 c 128,-1,28
 523 660 523 660 523 574 c 2,0,-1
EndSplineSet
EndChar

StartChar: three
Encoding: 51 51 22
Width: 600
GlyphClass: 2
Flags: W
LayerCount: 2
Fore
SplineSet
527 256 m 2,0,-1
 527 143 l 2,1,2
 527 61 527 61 461.5 23 c 128,-1,3
 396 -15 396 -15 296.5 -15 c 128,-1,4
 197 -15 197 -15 133.5 23 c 128,-1,5
 70 61 70 61 70 143 c 2,6,-1
 70 187 l 2,7,8
 70 210 70 210 110 210 c 128,-1,9
 150 210 150 210 150 187 c 2,10,-1
 150 133 l 2,11,12
 150 92 150 92 191.5 73.5 c 128,-1,13
 233 55 233 55 296.5 55 c 128,-1,14
 360 55 360 55 403.5 74 c 128,-1,15
 447 93 447 93 447 133 c 2,16,-1
 447 256 l 2,17,18
 447 302 447 302 431.5 318 c 128,-1,19
 416 334 416 334 361 334 c 2,20,-1
 189 334 l 2,21,22
 169 334 169 334 169 369 c 128,-1,23
 169 404 169 404 189 404 c 2,24,-1
 330 404 l 1,25,-1
 377 452 l 2,26,27
 433 509 433 509 433 562 c 2,28,-1
 433 574 l 2,29,30
 433 625 433 625 415.5 647.5 c 128,-1,31
 398 670 398 670 355 670 c 2,32,-1
 123 670 l 2,33,34
 103 670 103 670 103 705 c 128,-1,35
 103 740 103 740 123 740 c 2,36,-1
 355 740 l 2,37,38
 441 740 441 740 477 700 c 128,-1,39
 513 660 513 660 513 574 c 2,40,-1
 513 557 l 2,41,42
 513 528 513 528 495.5 489.5 c 128,-1,43
 478 451 478 451 449 421 c 2,44,-1
 427 399 l 1,45,46
 480 389 480 389 503.5 356 c 128,-1,47
 527 323 527 323 527 256 c 2,0,-1
EndSplineSet
EndChar

StartChar: four
Encoding: 52 52 23
Width: 600
GlyphClass: 2
Flags: W
LayerCount: 2
Fore
SplineSet
222 740 m 2,0,1
 226 750 226 750 238 750 c 128,-1,2
 250 750 250 750 268 744 c 1,3,4
 297 731 297 731 297 717 c 0,5,6
 297 714 297 714 295 710 c 2,7,-1
 181 458 l 2,8,9
 125 335 125 335 125 293 c 2,10,-1
 125 288 l 2,11,12
 125 257 125 257 141.5 243.5 c 128,-1,13
 158 230 158 230 211 230 c 2,14,-1
 390 230 l 1,15,-1
 390 508 l 2,16,17
 390 531 390 531 430 531 c 128,-1,18
 470 531 470 531 470 508 c 2,19,-1
 470 230 l 1,20,-1
 523 230 l 2,21,22
 543 230 543 230 543 195 c 128,-1,23
 543 160 543 160 523 160 c 2,24,-1
 470 160 l 1,25,-1
 470 18 l 2,26,27
 470 -5 470 -5 430 -5 c 128,-1,28
 390 -5 390 -5 390 18 c 2,29,-1
 390 160 l 1,30,-1
 211 160 l 2,31,32
 122 160 122 160 83.5 190 c 128,-1,33
 45 220 45 220 45 286 c 2,34,-1
 45 299 l 2,35,36
 45 345 45 345 109 489 c 2,37,-1
 222 740 l 2,0,1
EndSplineSet
EndChar

StartChar: five
Encoding: 53 53 24
Width: 600
GlyphClass: 2
Flags: W
LayerCount: 2
Fore
SplineSet
100 447 m 2,0,-1
 100 564 l 2,1,2
 100 657 100 657 136 698.5 c 128,-1,3
 172 740 172 740 258 740 c 2,4,-1
 490 740 l 2,5,6
 510 740 510 740 510 705 c 128,-1,7
 510 670 510 670 490 670 c 2,8,-1
 258 670 l 2,9,10
 215 670 215 670 197.5 646 c 128,-1,11
 180 622 180 622 180 564 c 2,12,-1
 180 442 l 1,13,-1
 341 407 l 1,14,15
 457 383 457 383 484 362 c 0,16,17
 523 332 523 332 530 304.5 c 128,-1,18
 537 277 537 277 537 248 c 2,19,-1
 537 143 l 2,20,21
 537 61 537 61 471.5 23 c 128,-1,22
 406 -15 406 -15 306.5 -15 c 128,-1,23
 207 -15 207 -15 143.5 23 c 128,-1,24
 80 61 80 61 80 143 c 2,25,-1
 80 187 l 2,26,27
 80 210 80 210 120 210 c 128,-1,28
 160 210 160 210 160 187 c 2,29,-1
 160 133 l 2,30,31
 160 92 160 92 201.5 73.5 c 128,-1,32
 243 55 243 55 306.5 55 c 128,-1,33
 370 55 370 55 413.5 74 c 128,-1,34
 457 93 457 93 457 133 c 2,35,-1
 457 256 l 2,36,37
 457 289 457 289 430.5 304.5 c 128,-1,38
 404 320 404 320 341 334 c 2,39,-1
 148 376 l 2,40,41
 120 382 120 382 110 396 c 128,-1,42
 100 410 100 410 100 447 c 2,0,-1
EndSplineSet
EndChar

StartChar: six
Encoding: 54 54 25
Width: 600
GlyphClass: 2
Flags: W
LayerCount: 2
Fore
SplineSet
80 143 m 2,0,-1
 80 564 l 2,1,2
 80 657 80 657 116 698.5 c 128,-1,3
 152 740 152 740 238 740 c 2,4,-1
 490 740 l 2,5,6
 510 740 510 740 510 705 c 128,-1,7
 510 670 510 670 490 670 c 2,8,-1
 238 670 l 2,9,10
 195 670 195 670 177.5 646 c 128,-1,11
 160 622 160 622 160 564 c 2,12,-1
 160 443 l 1,13,-1
 341 416 l 2,14,15
 392 408 392 408 423 399.5 c 128,-1,16
 454 391 454 391 482 374 c 1,17,18
 537 343 537 343 537 258 c 2,19,-1
 537 143 l 2,20,21
 537 61 537 61 471.5 23 c 128,-1,22
 406 -15 406 -15 306.5 -15 c 128,-1,23
 207 -15 207 -15 143.5 23 c 128,-1,24
 80 61 80 61 80 143 c 2,0,-1
160 133 m 2,25,26
 160 92 160 92 201.5 73.5 c 128,-1,27
 243 55 243 55 306.5 55 c 128,-1,28
 370 55 370 55 413.5 74 c 128,-1,29
 457 93 457 93 457 133 c 2,30,-1
 457 266 l 2,31,32
 457 300 457 300 429 317.5 c 128,-1,33
 401 335 401 335 341 344 c 2,34,-1
 160 371 l 1,35,-1
 160 133 l 2,25,26
EndSplineSet
EndChar

StartChar: seven
Encoding: 55 55 26
Width: 600
GlyphClass: 2
Flags: W
LayerCount: 2
Fore
SplineSet
255 0 m 2,0,1
 251 -10 251 -10 239 -10 c 128,-1,2
 227 -10 227 -10 209 -4 c 1,3,4
 180 9 180 9 180 23 c 0,5,6
 180 26 180 26 182 30 c 2,7,-1
 367 442 l 2,8,9
 423 565 423 565 423 607 c 2,10,-1
 423 612 l 2,11,12
 423 643 423 643 406.5 656.5 c 128,-1,13
 390 670 390 670 337 670 c 2,14,-1
 100 670 l 2,15,16
 80 670 80 670 80 705 c 128,-1,17
 80 740 80 740 100 740 c 2,18,-1
 337 740 l 2,19,20
 426 740 426 740 464.5 710 c 128,-1,21
 503 680 503 680 503 614 c 2,22,-1
 503 601 l 2,23,24
 503 555 503 555 439 411 c 2,25,-1
 255 0 l 2,0,1
EndSplineSet
EndChar

StartChar: eight
Encoding: 56 56 27
Width: 600
GlyphClass: 2
Flags: W
LayerCount: 2
Fore
SplineSet
536 173 m 2,0,-1
 536 143 l 2,1,2
 536 61 536 61 469 23 c 128,-1,3
 402 -15 402 -15 297 -15 c 128,-1,4
 192 -15 192 -15 127.5 23 c 128,-1,5
 63 61 63 61 63 143 c 2,6,-1
 63 173 l 2,7,8
 63 233 63 233 127 299 c 2,9,-1
 211 384 l 1,10,-1
 153 422 l 2,11,12
 108 452 108 452 88 492.5 c 128,-1,13
 68 533 68 533 68 567 c 2,14,-1
 68 597 l 2,15,16
 68 653 68 653 101 689.5 c 128,-1,17
 134 726 134 726 184.5 740.5 c 128,-1,18
 235 755 235 755 303 755 c 0,19,20
 407 755 407 755 469 717.5 c 128,-1,21
 531 680 531 680 531 597 c 2,22,-1
 531 567 l 2,23,24
 531 507 531 507 467 441 c 2,25,-1
 387 359 l 1,26,-1
 451 318 l 2,27,28
 496 288 496 288 516 247.5 c 128,-1,29
 536 207 536 207 536 173 c 2,0,-1
143 168 m 2,30,-1
 143 133 l 2,31,32
 143 92 143 92 186.5 73.5 c 128,-1,33
 230 55 230 55 297.5 55 c 128,-1,34
 365 55 365 55 410.5 74 c 128,-1,35
 456 93 456 93 456 133 c 2,36,-1
 456 168 l 2,37,38
 456 226 456 226 400 263 c 1,39,-1
 273 344 l 1,40,-1
 199 268 l 2,41,42
 167 235 167 235 155 214.5 c 128,-1,43
 143 194 143 194 143 168 c 2,30,-1
451 572 m 2,44,-1
 451 607 l 2,45,46
 451 685 451 685 302 685 c 0,47,48
 235 685 235 685 191.5 666.5 c 128,-1,49
 148 648 148 648 148 607 c 2,50,-1
 148 572 l 2,51,52
 148 514 148 514 204 477 c 2,53,-1
 324 399 l 1,54,-1
 395 472 l 2,55,56
 427 505 427 505 439 525.5 c 128,-1,57
 451 546 451 546 451 572 c 2,44,-1
EndSplineSet
EndChar

StartChar: nine
Encoding: 57 57 28
Width: 600
GlyphClass: 2
Flags: W
LayerCount: 2
Fore
SplineSet
520 597 m 2,0,-1
 520 143 l 2,1,2
 520 61 520 61 454.5 23 c 128,-1,3
 389 -15 389 -15 289.5 -15 c 128,-1,4
 190 -15 190 -15 126.5 23 c 128,-1,5
 63 61 63 61 63 143 c 2,6,-1
 63 187 l 2,7,8
 63 210 63 210 103 210 c 128,-1,9
 143 210 143 210 143 187 c 2,10,-1
 143 133 l 2,11,12
 143 92 143 92 184.5 73.5 c 128,-1,13
 226 55 226 55 289.5 55 c 128,-1,14
 353 55 353 55 396.5 74 c 128,-1,15
 440 93 440 93 440 133 c 2,16,-1
 440 297 l 1,17,-1
 259 324 l 2,18,19
 208 332 208 332 177 340.5 c 128,-1,20
 146 349 146 349 118 366 c 1,21,22
 63 397 63 397 63 482 c 2,23,-1
 63 597 l 2,24,25
 63 679 63 679 128.5 717 c 128,-1,26
 194 755 194 755 293.5 755 c 128,-1,27
 393 755 393 755 456.5 717 c 128,-1,28
 520 679 520 679 520 597 c 2,0,-1
143 607 m 2,29,-1
 143 474 l 2,30,31
 143 440 143 440 171 422.5 c 128,-1,32
 199 405 199 405 259 396 c 2,33,-1
 440 369 l 1,34,-1
 440 607 l 2,35,36
 440 648 440 648 398.5 666.5 c 128,-1,37
 357 685 357 685 293.5 685 c 128,-1,38
 230 685 230 685 186.5 666 c 128,-1,39
 143 647 143 647 143 607 c 2,29,-1
EndSplineSet
EndChar

StartChar: colon
Encoding: 58 58 29
Width: 201
GlyphClass: 2
Flags: W
LayerCount: 2
Fore
SplineSet
143 94 m 2,0,-1
 143 9 l 2,1,2
 143 -15 143 -15 100.5 -15 c 128,-1,3
 58 -15 58 -15 58 9 c 2,4,-1
 58 94 l 2,5,6
 58 118 58 118 100.5 118 c 128,-1,7
 143 118 143 118 143 94 c 2,0,-1
143 494 m 2,8,-1
 143 409 l 2,9,10
 143 385 143 385 100.5 385 c 128,-1,11
 58 385 58 385 58 409 c 2,12,-1
 58 494 l 2,13,14
 58 518 58 518 100.5 518 c 128,-1,15
 143 518 143 518 143 494 c 2,8,-1
EndSplineSet
EndChar

StartChar: semicolon
Encoding: 59 59 30
Width: 201
GlyphClass: 2
Flags: W
LayerCount: 2
Fore
SplineSet
143 94 m 2,0,-1
 143 -17 l 2,1,2
 143 -49 143 -49 125 -100 c 1,3,-1
 116 -124 l 2,4,5
 113 -133 113 -133 100.5 -133 c 128,-1,6
 88 -133 88 -133 73.5 -125 c 128,-1,7
 59 -117 59 -117 59 -110 c 0,8,9
 59 -106 59 -106 61 -101 c 2,10,-1
 76 -61 l 2,11,12
 82 -43 82 -43 82 -34 c 128,-1,13
 82 -25 82 -25 70 -7.5 c 128,-1,14
 58 10 58 10 58 22 c 2,15,-1
 58 94 l 2,16,17
 58 118 58 118 100.5 118 c 128,-1,18
 143 118 143 118 143 94 c 2,0,-1
143 494 m 2,19,-1
 143 409 l 2,20,21
 143 385 143 385 100.5 385 c 128,-1,22
 58 385 58 385 58 409 c 2,23,-1
 58 494 l 2,24,25
 58 518 58 518 100.5 518 c 128,-1,26
 143 518 143 518 143 494 c 2,19,-1
EndSplineSet
EndChar

StartChar: less
Encoding: 60 60 31
Width: 600
GlyphClass: 2
Flags: W
LayerCount: 2
Fore
SplineSet
80 370 m 128,-1,1
 80 406 80 406 88 428.5 c 128,-1,2
 96 451 96 451 116.5 466 c 128,-1,3
 137 481 137 481 157 488.5 c 128,-1,4
 177 496 177 496 217 507 c 2,5,-1
 500 584 l 1,6,7
 520 584 520 584 520 546 c 128,-1,8
 520 508 520 508 497 504 c 1,9,-1
 228 429 l 2,10,11
 176 415 176 415 163 405 c 128,-1,12
 150 395 150 395 150 370 c 128,-1,13
 150 345 150 345 163 335 c 128,-1,14
 176 325 176 325 228 311 c 2,15,-1
 497 236 l 1,16,17
 520 232 520 232 520 194 c 128,-1,18
 520 156 520 156 500 156 c 1,19,-1
 217 233 l 2,20,21
 177 244 177 244 157 251.5 c 128,-1,22
 137 259 137 259 116.5 274 c 128,-1,23
 96 289 96 289 88 311.5 c 128,-1,0
 80 334 80 334 80 370 c 128,-1,1
EndSplineSet
EndChar

StartChar: equal
Encoding: 61 61 32
Width: 600
GlyphClass: 2
Flags: W
LayerCount: 2
Fore
SplineSet
95 296 m 2,0,-1
 505 296 l 2,1,2
 525 296 525 296 525 261 c 128,-1,3
 525 226 525 226 505 226 c 2,4,-1
 95 226 l 2,5,6
 75 226 75 226 75 261 c 128,-1,7
 75 296 75 296 95 296 c 2,0,-1
95 516 m 2,8,-1
 505 516 l 2,9,10
 525 516 525 516 525 481 c 128,-1,11
 525 446 525 446 505 446 c 2,12,-1
 95 446 l 2,13,14
 75 446 75 446 75 481 c 128,-1,15
 75 516 75 516 95 516 c 2,8,-1
EndSplineSet
EndChar

StartChar: greater
Encoding: 62 62 33
Width: 600
GlyphClass: 2
Flags: W
LayerCount: 2
Fore
SplineSet
520 370 m 128,-1,1
 520 334 520 334 512 311.5 c 128,-1,2
 504 289 504 289 483.5 274 c 128,-1,3
 463 259 463 259 443 251.5 c 128,-1,4
 423 244 423 244 383 233 c 2,5,-1
 100 156 l 1,6,7
 80 156 80 156 80 194 c 128,-1,8
 80 232 80 232 103 236 c 1,9,-1
 372 311 l 2,10,11
 424 325 424 325 437 335 c 128,-1,12
 450 345 450 345 450 370 c 128,-1,13
 450 395 450 395 437 405 c 128,-1,14
 424 415 424 415 372 429 c 2,15,-1
 103 504 l 1,16,17
 80 508 80 508 80 546 c 128,-1,18
 80 584 80 584 100 584 c 1,19,-1
 383 507 l 2,20,21
 423 496 423 496 443 488.5 c 128,-1,22
 463 481 463 481 483.5 466 c 128,-1,23
 504 451 504 451 512 428.5 c 128,-1,0
 520 406 520 406 520 370 c 128,-1,1
EndSplineSet
EndChar

StartChar: question
Encoding: 63 63 34
Width: 467
GlyphClass: 2
Flags: W
LayerCount: 2
Fore
SplineSet
259 94 m 2,0,-1
 259 9 l 2,1,2
 259 -15 259 -15 216.5 -15 c 128,-1,3
 174 -15 174 -15 174 9 c 2,4,-1
 174 94 l 2,5,6
 174 118 174 118 216.5 118 c 128,-1,7
 259 118 259 118 259 94 c 2,0,-1
216 247 m 128,-1,9
 183 247 183 247 183 269 c 2,10,-1
 177 448 l 1,11,-1
 244 466 l 2,12,13
 294 480 294 480 315.5 495.5 c 128,-1,14
 337 511 337 511 337 544 c 2,15,-1
 337 667 l 2,16,17
 337 707 337 707 302.5 726 c 128,-1,18
 268 745 268 745 217 745 c 128,-1,19
 166 745 166 745 133 726.5 c 128,-1,20
 100 708 100 708 100 667 c 2,21,-1
 100 613 l 2,22,23
 100 590 100 590 60 590 c 128,-1,24
 20 590 20 590 20 613 c 2,25,-1
 20 657 l 2,26,27
 20 738 20 738 77.5 776.5 c 128,-1,28
 135 815 135 815 217 815 c 0,29,30
 331 815 331 815 386 749 c 0,31,32
 417 712 417 712 417 657 c 2,33,-1
 417 552 l 2,34,35
 417 492 417 492 386 454 c 0,36,37
 374 440 374 440 348 427.5 c 128,-1,38
 322 415 322 415 305 410 c 128,-1,39
 288 405 288 405 252 395 c 1,40,-1
 249 269 l 2,41,8
 249 247 249 247 216 247 c 128,-1,9
EndSplineSet
EndChar

StartChar: at
Encoding: 64 64 35
Width: 1081
GlyphClass: 2
Flags: W
LayerCount: 2
Fore
SplineSet
911 69 m 2,0,-1
 784 69 l 2,1,2
 699 69 699 69 668.5 108 c 128,-1,3
 638 147 638 147 635 267 c 1,4,-1
 634 295 l 1,5,-1
 497 281 l 2,6,7
 454 277 454 277 441.5 263 c 128,-1,8
 429 249 429 249 429 213 c 2,9,-1
 429 206 l 2,10,11
 429 168 429 168 441.5 152.5 c 128,-1,12
 454 137 454 137 496 137 c 2,13,-1
 594 137 l 2,14,15
 616 137 616 137 616 103 c 128,-1,16
 616 69 616 69 594 69 c 2,17,-1
 496 69 l 2,18,19
 418 69 418 69 385 99.5 c 128,-1,20
 352 130 352 130 352 206 c 2,21,-1
 352 213 l 2,22,23
 352 287 352 287 381.5 314 c 128,-1,24
 411 341 411 341 490 349 c 2,25,-1
 633 363 l 1,26,-1
 630 472 l 2,27,28
 629 532 629 532 521 532 c 2,29,-1
 407 532 l 2,30,31
 386 532 386 532 386 566 c 128,-1,32
 386 600 386 600 407 600 c 2,33,-1
 521 600 l 2,34,35
 703 600 703 600 707 464 c 2,36,-1
 712 276 l 2,37,38
 714 185 714 185 727 161 c 128,-1,39
 740 137 740 137 784 137 c 2,40,-1
 891 137 l 1,41,-1
 891 529 l 2,42,43
 891 725 891 725 549 725 c 0,44,45
 388 725 388 725 289 678 c 128,-1,46
 190 631 190 631 190 529 c 2,47,-1
 190 130 l 2,48,49
 190 -66 190 -66 532 -66 c 2,50,-1
 949 -66 l 2,51,52
 971 -66 971 -66 971 -103.5 c 128,-1,53
 971 -141 971 -141 949 -141 c 2,54,-1
 532 -141 l 2,55,56
 405 -141 405 -141 314 -116 c 128,-1,57
 223 -91 223 -91 166.5 -29 c 128,-1,58
 110 33 110 33 110 130 c 2,59,-1
 110 529 l 2,60,61
 110 625 110 625 171 687.5 c 128,-1,62
 232 750 232 750 327 775 c 128,-1,63
 422 800 422 800 549 800 c 128,-1,64
 676 800 676 800 767 775 c 128,-1,65
 858 750 858 750 914.5 688 c 128,-1,66
 971 626 971 626 971 529 c 2,67,-1
 971 138 l 2,68,69
 971 98 971 98 960 83.5 c 128,-1,70
 949 69 949 69 911 69 c 2,0,-1
EndSplineSet
EndChar

StartChar: A
Encoding: 65 65 36
Width: 683
GlyphClass: 2
Flags: W
LayerCount: 2
Fore
SplineSet
573 597 m 2,0,-1
 573 18 l 2,1,2
 573 -5 573 -5 533 -5 c 128,-1,3
 493 -5 493 -5 493 18 c 2,4,-1
 493 289 l 1,5,-1
 190 289 l 1,6,-1
 190 18 l 2,7,8
 190 -5 190 -5 150 -5 c 128,-1,9
 110 -5 110 -5 110 18 c 2,10,-1
 110 597 l 2,11,12
 110 653 110 653 143 689.5 c 128,-1,13
 176 726 176 726 227 740.5 c 128,-1,14
 278 755 278 755 347 755 c 0,15,16
 573 755 573 755 573 597 c 2,0,-1
190 607 m 2,17,-1
 190 359 l 1,18,-1
 493 359 l 1,19,-1
 493 607 l 2,20,21
 493 685 493 685 341.5 685 c 128,-1,22
 190 685 190 685 190 607 c 2,17,-1
EndSplineSet
EndChar

StartChar: B
Encoding: 66 66 37
Width: 628
GlyphClass: 2
Flags: W
LayerCount: 2
Fore
SplineSet
325 -5 m 2,0,-1
 258 -5 l 2,1,2
 172 -5 172 -5 136 36.5 c 128,-1,3
 100 78 100 78 100 171 c 2,4,-1
 100 597 l 2,5,6
 100 680 100 680 160 717.5 c 128,-1,7
 220 755 220 755 320 755 c 128,-1,8
 420 755 420 755 479 717.5 c 128,-1,9
 538 680 538 680 538 597 c 2,10,-1
 538 504 l 2,11,12
 538 406 538 406 460 382 c 1,13,14
 548 361 548 361 548 258 c 2,15,-1
 548 153 l 2,16,17
 548 70 548 70 487 32.5 c 128,-1,18
 426 -5 426 -5 325 -5 c 2,0,-1
360 346 m 2,19,-1
 235 346 l 2,20,21
 215 346 215 346 215 381 c 128,-1,22
 215 416 215 416 235 416 c 2,23,-1
 350 416 l 2,24,25
 458 416 458 416 458 504 c 2,26,-1
 458 607 l 2,27,28
 458 685 458 685 319 685 c 128,-1,29
 180 685 180 685 180 607 c 2,30,-1
 180 171 l 2,31,32
 180 113 180 113 197.5 89 c 128,-1,33
 215 65 215 65 258 65 c 2,34,-1
 323 65 l 2,35,36
 468 65 468 65 468 143 c 2,37,-1
 468 258 l 2,38,39
 468 346 468 346 360 346 c 2,19,-1
EndSplineSet
EndChar

StartChar: C
Encoding: 67 67 38
Width: 633
GlyphClass: 2
Flags: W
LayerCount: 2
Fore
SplineSet
180 607 m 2,0,-1
 180 133 l 2,1,2
 180 55 180 55 326.5 55 c 128,-1,3
 473 55 473 55 473 133 c 2,4,-1
 473 205 l 2,5,6
 473 228 473 228 513 228 c 128,-1,7
 553 228 553 228 553 205 c 2,8,-1
 553 143 l 2,9,10
 553 -15 553 -15 330 -15 c 0,11,12
 226 -15 226 -15 163 22.5 c 128,-1,13
 100 60 100 60 100 143 c 2,14,-1
 100 597 l 2,15,16
 100 680 100 680 163 717.5 c 128,-1,17
 226 755 226 755 330 755 c 0,18,19
 553 755 553 755 553 597 c 2,20,-1
 553 535 l 2,21,22
 553 512 553 512 513 512 c 128,-1,23
 473 512 473 512 473 535 c 2,24,-1
 473 607 l 2,25,26
 473 685 473 685 326.5 685 c 128,-1,27
 180 685 180 685 180 607 c 2,0,-1
EndSplineSet
EndChar

StartChar: D
Encoding: 68 68 39
Width: 683
GlyphClass: 2
Flags: W
LayerCount: 2
Fore
SplineSet
190 70 m 1,0,-1
 378 70 l 2,1,2
 442 70 442 70 467.5 87 c 128,-1,3
 493 104 493 104 493 148 c 2,4,-1
 493 592 l 2,5,6
 493 636 493 636 467.5 653 c 128,-1,7
 442 670 442 670 378 670 c 2,8,-1
 190 670 l 1,9,-1
 190 70 l 1,0,-1
110 75 m 2,10,-1
 110 665 l 2,11,12
 110 709 110 709 120.5 724.5 c 128,-1,13
 131 740 131 740 170 740 c 2,14,-1
 378 740 l 2,15,16
 478 740 478 740 525.5 704 c 128,-1,17
 573 668 573 668 573 582 c 2,18,-1
 573 158 l 2,19,20
 573 72 573 72 525.5 36 c 128,-1,21
 478 0 478 0 378 0 c 2,22,-1
 170 0 l 2,23,24
 131 0 131 0 120.5 15.5 c 128,-1,25
 110 31 110 31 110 75 c 2,10,-1
EndSplineSet
EndChar

StartChar: E
Encoding: 69 69 40
Width: 603
GlyphClass: 2
Flags: W
LayerCount: 2
Fore
SplineSet
180 258 m 2,0,-1
 180 133 l 2,1,2
 180 55 180 55 321.5 55 c 128,-1,3
 463 55 463 55 463 133 c 2,4,-1
 463 205 l 2,5,6
 463 228 463 228 503 228 c 128,-1,7
 543 228 543 228 543 205 c 2,8,-1
 543 143 l 2,9,10
 543 60 543 60 483 22.5 c 128,-1,11
 423 -15 423 -15 322.5 -15 c 128,-1,12
 222 -15 222 -15 161 22.5 c 128,-1,13
 100 60 100 60 100 143 c 2,14,-1
 100 258 l 2,15,16
 100 361 100 361 188 382 c 1,17,18
 110 406 110 406 110 504 c 2,19,-1
 110 597 l 2,20,21
 110 680 110 680 171 717.5 c 128,-1,22
 232 755 232 755 326.5 755 c 128,-1,23
 421 755 421 755 476 717 c 128,-1,24
 531 679 531 679 531 597 c 2,25,-1
 531 582 l 2,26,27
 531 559 531 559 491 559 c 128,-1,28
 451 559 451 559 451 582 c 2,29,-1
 451 607 l 2,30,31
 451 685 451 685 320.5 685 c 128,-1,32
 190 685 190 685 190 607 c 2,33,-1
 190 504 l 2,34,35
 190 416 190 416 298 416 c 2,36,-1
 373 416 l 2,37,38
 393 416 393 416 393 381 c 128,-1,39
 393 346 393 346 373 346 c 2,40,-1
 288 346 l 2,41,42
 180 346 180 346 180 258 c 2,0,-1
EndSplineSet
EndChar

StartChar: F
Encoding: 70 70 41
Width: 490
GlyphClass: 2
Flags: W
LayerCount: 2
Fore
SplineSet
420 346 m 2,0,-1
 190 346 l 1,1,-1
 190 18 l 2,2,3
 190 -5 190 -5 150 -5 c 128,-1,4
 110 -5 110 -5 110 18 c 2,5,-1
 110 564 l 2,6,7
 110 657 110 657 146 698.5 c 128,-1,8
 182 740 182 740 268 740 c 2,9,-1
 460 740 l 2,10,11
 480 740 480 740 480 705 c 128,-1,12
 480 670 480 670 460 670 c 2,13,-1
 268 670 l 2,14,15
 225 670 225 670 207.5 646 c 128,-1,16
 190 622 190 622 190 564 c 2,17,-1
 190 416 l 1,18,-1
 420 416 l 2,19,20
 440 416 440 416 440 381 c 128,-1,21
 440 346 440 346 420 346 c 2,0,-1
EndSplineSet
EndChar

StartChar: G
Encoding: 71 71 42
Width: 643
GlyphClass: 2
Flags: W
LayerCount: 2
Fore
SplineSet
483 133 m 2,0,-1
 483 231 l 2,1,2
 483 279 483 279 466.5 299 c 128,-1,3
 450 319 450 319 397 319 c 2,4,-1
 320 319 l 2,5,6
 300 319 300 319 300 354 c 128,-1,7
 300 389 300 389 320 389 c 2,8,-1
 397 389 l 2,9,10
 485 389 485 389 524 353 c 128,-1,11
 563 317 563 317 563 231 c 2,12,-1
 563 143 l 2,13,14
 563 60 563 60 498.5 22.5 c 128,-1,15
 434 -15 434 -15 328 -15 c 0,16,17
 100 -15 100 -15 100 143 c 2,18,-1
 100 597 l 2,19,20
 100 680 100 680 162.5 717.5 c 128,-1,21
 225 755 225 755 327 755 c 0,22,23
 548 755 548 755 548 597 c 2,24,-1
 548 542 l 2,25,26
 548 519 548 519 508 519 c 128,-1,27
 468 519 468 519 468 542 c 2,28,-1
 468 607 l 2,29,30
 468 685 468 685 324 685 c 128,-1,31
 180 685 180 685 180 607 c 2,32,-1
 180 133 l 2,33,34
 180 55 180 55 331.5 55 c 128,-1,35
 483 55 483 55 483 133 c 2,0,-1
EndSplineSet
EndChar

StartChar: H
Encoding: 72 72 43
Width: 683
GlyphClass: 2
Flags: W
LayerCount: 2
Fore
SplineSet
573 722 m 2,0,-1
 573 18 l 2,1,2
 573 -5 573 -5 533 -5 c 128,-1,3
 493 -5 493 -5 493 18 c 2,4,-1
 493 329 l 1,5,-1
 190 329 l 1,6,-1
 190 18 l 2,7,8
 190 -5 190 -5 150 -5 c 128,-1,9
 110 -5 110 -5 110 18 c 2,10,-1
 110 722 l 2,11,12
 110 745 110 745 150 745 c 128,-1,13
 190 745 190 745 190 722 c 2,14,-1
 190 399 l 1,15,-1
 493 399 l 1,16,-1
 493 722 l 2,17,18
 493 745 493 745 533 745 c 128,-1,19
 573 745 573 745 573 722 c 2,0,-1
EndSplineSet
EndChar

StartChar: I
Encoding: 73 73 44
Width: 320
GlyphClass: 2
Flags: W
LayerCount: 2
Fore
SplineSet
200 722 m 2,0,-1
 200 18 l 2,1,2
 200 -5 200 -5 160 -5 c 128,-1,3
 120 -5 120 -5 120 18 c 2,4,-1
 120 722 l 2,5,6
 120 745 120 745 160 745 c 128,-1,7
 200 745 200 745 200 722 c 2,0,-1
EndSplineSet
EndChar

StartChar: J
Encoding: 74 74 45
Width: 503
GlyphClass: 2
Flags: W
LayerCount: 2
Fore
SplineSet
313 133 m 2,0,-1
 313 722 l 2,1,2
 313 745 313 745 353 745 c 128,-1,3
 393 745 393 745 393 722 c 2,4,-1
 393 143 l 2,5,6
 393 61 393 61 338 23 c 128,-1,7
 283 -15 283 -15 201 -15 c 128,-1,8
 119 -15 119 -15 64.5 23 c 128,-1,9
 10 61 10 61 10 143 c 2,10,-1
 10 265 l 2,11,12
 10 288 10 288 50 288 c 128,-1,13
 90 288 90 288 90 265 c 2,14,-1
 90 133 l 2,15,16
 90 55 90 55 201.5 55 c 128,-1,17
 313 55 313 55 313 133 c 2,0,-1
EndSplineSet
EndChar

StartChar: K
Encoding: 75 75 46
Width: 614
GlyphClass: 2
Flags: W
LayerCount: 2
Fore
SplineSet
553 13 m 0,0,1
 553 -5 553 -5 518 -5 c 128,-1,2
 483 -5 483 -5 476 18 c 2,3,-1
 405 276 l 2,4,5
 396 311 396 311 380 320.5 c 128,-1,6
 364 330 364 330 310 330 c 2,7,-1
 244 330 l 2,8,9
 224 330 224 330 224 365 c 128,-1,10
 224 400 224 400 244 400 c 2,11,-1
 269 400 l 2,12,13
 338 400 338 400 356.5 409 c 128,-1,14
 375 418 375 418 384 454 c 2,15,-1
 456 722 l 2,16,17
 463 745 463 745 498 745 c 128,-1,18
 533 745 533 745 533 727 c 1,19,-1
 461 454 l 2,20,21
 448 406 448 406 420 385 c 1,22,23
 457 367 457 367 474 304 c 0,24,25
 553 16 553 16 553 13 c 0,0,1
190 722 m 2,26,-1
 190 18 l 2,27,28
 190 -5 190 -5 150 -5 c 128,-1,29
 110 -5 110 -5 110 18 c 2,30,-1
 110 722 l 2,31,32
 110 745 110 745 150 745 c 128,-1,33
 190 745 190 745 190 722 c 2,26,-1
EndSplineSet
EndChar

StartChar: L
Encoding: 76 76 47
Width: 460
GlyphClass: 2
Flags: W
LayerCount: 2
Fore
SplineSet
268 70 m 2,0,-1
 430 70 l 2,1,2
 450 70 450 70 450 35 c 128,-1,3
 450 0 450 0 430 0 c 2,4,-1
 268 0 l 2,5,6
 182 0 182 0 146 41.5 c 128,-1,7
 110 83 110 83 110 176 c 2,8,-1
 110 722 l 2,9,10
 110 745 110 745 150 745 c 128,-1,11
 190 745 190 745 190 722 c 2,12,-1
 190 176 l 2,13,14
 190 118 190 118 207.5 94 c 128,-1,15
 225 70 225 70 268 70 c 2,0,-1
EndSplineSet
EndChar

StartChar: M
Encoding: 77 77 48
Width: 854
GlyphClass: 2
Flags: W
LayerCount: 2
Fore
SplineSet
664 18 m 2,0,-1
 664 670 l 1,1,-1
 654 670 l 2,2,3
 622 670 622 670 614 661 c 128,-1,4
 606 652 606 652 597 616 c 2,5,-1
 466 97 l 2,6,7
 461 74 461 74 427 74 c 128,-1,8
 393 74 393 74 388 97 c 2,9,-1
 257 616 l 2,10,11
 248 652 248 652 240 661 c 128,-1,12
 232 670 232 670 200 670 c 2,13,-1
 190 670 l 1,14,-1
 190 18 l 2,15,16
 190 -5 190 -5 150 -5 c 128,-1,17
 110 -5 110 -5 110 18 c 2,18,-1
 110 665 l 2,19,20
 110 709 110 709 120.5 724.5 c 128,-1,21
 131 740 131 740 170 740 c 2,22,-1
 192 740 l 2,23,24
 262 740 262 740 286.5 724 c 128,-1,25
 311 708 311 708 326 644 c 2,26,-1
 427 229 l 1,27,-1
 528 644 l 2,28,29
 543 708 543 708 567.5 724 c 128,-1,30
 592 740 592 740 662 740 c 2,31,-1
 684 740 l 2,32,33
 723 740 723 740 733.5 724.5 c 128,-1,34
 744 709 744 709 744 665 c 2,35,-1
 744 18 l 2,36,37
 744 -5 744 -5 704 -5 c 128,-1,38
 664 -5 664 -5 664 18 c 2,0,-1
EndSplineSet
EndChar

StartChar: N
Encoding: 78 78 49
Width: 713
GlyphClass: 2
Flags: W
LayerCount: 2
Fore
SplineSet
200 670 m 2,0,-1
 190 670 l 1,1,-1
 190 18 l 2,2,3
 190 -5 190 -5 150 -5 c 128,-1,4
 110 -5 110 -5 110 18 c 2,5,-1
 110 665 l 2,6,7
 110 709 110 709 120.5 724.5 c 128,-1,8
 131 740 131 740 170 740 c 2,9,-1
 192 740 l 2,10,11
 262 740 262 740 286 724 c 128,-1,12
 310 708 310 708 326 644 c 2,13,-1
 456 119 l 2,14,15
 465 83 465 83 473 74 c 128,-1,16
 481 65 481 65 513 65 c 2,17,-1
 523 65 l 1,18,-1
 523 717 l 2,19,20
 523 740 523 740 563 740 c 128,-1,21
 603 740 603 740 603 717 c 2,22,-1
 603 70 l 2,23,24
 603 26 603 26 592.5 10.5 c 128,-1,25
 582 -5 582 -5 543 -5 c 2,26,-1
 521 -5 l 2,27,28
 451 -5 451 -5 427 11 c 128,-1,29
 403 27 403 27 387 91 c 2,30,-1
 257 616 l 2,31,32
 248 652 248 652 240 661 c 128,-1,33
 232 670 232 670 200 670 c 2,0,-1
EndSplineSet
EndChar

StartChar: O
Encoding: 79 79 50
Width: 663
GlyphClass: 2
Flags: W
LayerCount: 2
Fore
SplineSet
563 597 m 2,0,-1
 563 143 l 2,1,2
 563 60 563 60 498.5 22.5 c 128,-1,3
 434 -15 434 -15 328 -15 c 0,4,5
 100 -15 100 -15 100 143 c 2,6,-1
 100 597 l 2,7,8
 100 680 100 680 164.5 717.5 c 128,-1,9
 229 755 229 755 335 755 c 0,10,11
 563 755 563 755 563 597 c 2,0,-1
180 607 m 2,12,-1
 180 133 l 2,13,14
 180 55 180 55 331.5 55 c 128,-1,15
 483 55 483 55 483 133 c 2,16,-1
 483 607 l 2,17,18
 483 685 483 685 331.5 685 c 128,-1,19
 180 685 180 685 180 607 c 2,12,-1
EndSplineSet
EndChar

StartChar: P
Encoding: 80 80 51
Width: 613
GlyphClass: 2
Flags: W
LayerCount: 2
Fore
SplineSet
240 350 m 2,0,-1
 327 350 l 2,1,2
 463 350 463 350 463 428 c 2,3,-1
 463 607 l 2,4,5
 463 685 463 685 326.5 685 c 128,-1,6
 190 685 190 685 190 607 c 2,7,-1
 190 18 l 2,8,9
 190 -5 190 -5 150 -5 c 128,-1,10
 110 -5 110 -5 110 18 c 2,11,-1
 110 597 l 2,12,13
 110 680 110 680 169 717.5 c 128,-1,14
 228 755 228 755 326 755 c 128,-1,15
 424 755 424 755 483.5 717.5 c 128,-1,16
 543 680 543 680 543 597 c 2,17,-1
 543 438 l 2,18,19
 543 355 543 355 484 317.5 c 128,-1,20
 425 280 425 280 327 280 c 2,21,-1
 240 280 l 2,22,23
 220 280 220 280 220 315 c 128,-1,24
 220 350 220 350 240 350 c 2,0,-1
EndSplineSet
EndChar

StartChar: Q
Encoding: 81 81 52
Width: 663
GlyphClass: 2
Flags: W
LayerCount: 2
Fore
SplineSet
328 55 m 0,0,1
 348 55 348 55 348 20 c 128,-1,2
 348 -15 348 -15 328 -15 c 0,3,4
 100 -15 100 -15 100 143 c 2,5,-1
 100 597 l 2,6,7
 100 680 100 680 164.5 717.5 c 128,-1,8
 229 755 229 755 335 755 c 0,9,10
 563 755 563 755 563 597 c 2,11,-1
 563 143 l 2,12,13
 563 52 563 52 479 12 c 1,14,15
 529 -98 529 -98 529 -100 c 0,16,17
 529 -117 529 -117 495 -117 c 128,-1,18
 461 -117 461 -117 451 -95 c 0,19,20
 331 172 331 172 331 174 c 0,21,22
 331 191 331 191 365 191 c 128,-1,23
 399 191 399 191 409 169 c 2,24,-1
 449 78 l 1,25,26
 483 97 483 97 483 133 c 2,27,-1
 483 607 l 2,28,29
 483 685 483 685 331.5 685 c 128,-1,30
 180 685 180 685 180 607 c 2,31,-1
 180 133 l 2,32,33
 180 55 180 55 328 55 c 0,0,1
EndSplineSet
EndChar

StartChar: R
Encoding: 82 82 53
Width: 644
GlyphClass: 2
Flags: W
LayerCount: 2
Fore
SplineSet
240 370 m 2,0,-1
 327 370 l 2,1,2
 463 370 463 370 463 448 c 2,3,-1
 463 607 l 2,4,5
 463 685 463 685 326.5 685 c 128,-1,6
 190 685 190 685 190 607 c 2,7,-1
 190 18 l 2,8,9
 190 -5 190 -5 150 -5 c 128,-1,10
 110 -5 110 -5 110 18 c 2,11,-1
 110 597 l 2,12,13
 110 680 110 680 169 717.5 c 128,-1,14
 228 755 228 755 326 755 c 128,-1,15
 424 755 424 755 483.5 717.5 c 128,-1,16
 543 680 543 680 543 597 c 2,17,-1
 543 458 l 2,18,19
 543 365 543 365 456 342 c 1,20,21
 479 321 479 321 492 274 c 0,22,23
 563 19 563 19 563 13 c 0,24,25
 563 -5 563 -5 528 -5 c 128,-1,26
 493 -5 493 -5 486 18 c 2,27,-1
 423 246 l 2,28,29
 414 281 414 281 398 290.5 c 128,-1,30
 382 300 382 300 328 300 c 2,31,-1
 240 300 l 2,32,33
 220 300 220 300 220 335 c 128,-1,34
 220 370 220 370 240 370 c 2,0,-1
EndSplineSet
EndChar

StartChar: S
Encoding: 83 83 54
Width: 617
GlyphClass: 2
Flags: W
LayerCount: 2
Fore
SplineSet
457 133 m 2,0,-1
 457 246 l 2,1,2
 457 279 457 279 431 294 c 128,-1,3
 405 309 405 309 341 324 c 2,4,-1
 252 344 l 2,5,6
 191 358 191 358 160 375 c 0,7,8
 94 410 94 410 94 520 c 2,9,-1
 94 597 l 2,10,11
 94 680 94 680 153.5 717.5 c 128,-1,12
 213 755 213 755 311 755 c 128,-1,13
 409 755 409 755 468 717.5 c 128,-1,14
 527 680 527 680 527 597 c 2,15,-1
 527 553 l 2,16,17
 527 530 527 530 487 530 c 128,-1,18
 447 530 447 530 447 553 c 2,19,-1
 447 607 l 2,20,21
 447 685 447 685 310.5 685 c 128,-1,22
 174 685 174 685 174 607 c 2,23,-1
 174 522 l 2,24,25
 174 467 174 467 190.5 446.5 c 128,-1,26
 207 426 207 426 252 416 c 2,27,-1
 341 396 l 2,28,29
 437 375 437 375 450.5 367.5 c 128,-1,30
 464 360 464 360 482 351 c 128,-1,31
 500 342 500 342 506.5 332.5 c 128,-1,32
 513 323 513 323 522 309 c 0,33,34
 537 286 537 286 537 238 c 2,35,-1
 537 143 l 2,36,37
 537 61 537 61 471.5 23 c 128,-1,38
 406 -15 406 -15 306.5 -15 c 128,-1,39
 207 -15 207 -15 143.5 23 c 128,-1,40
 80 61 80 61 80 143 c 2,41,-1
 80 187 l 2,42,43
 80 210 80 210 120 210 c 128,-1,44
 160 210 160 210 160 187 c 2,45,-1
 160 133 l 2,46,47
 160 92 160 92 201.5 73.5 c 128,-1,48
 243 55 243 55 306.5 55 c 128,-1,49
 370 55 370 55 413.5 74 c 128,-1,50
 457 93 457 93 457 133 c 2,0,-1
EndSplineSet
EndChar

StartChar: T
Encoding: 84 84 55
Width: 500
GlyphClass: 2
Flags: W
LayerCount: 2
Fore
SplineSet
40 740 m 2,0,-1
 460 740 l 2,1,2
 480 740 480 740 480 705 c 128,-1,3
 480 670 480 670 460 670 c 2,4,-1
 290 670 l 1,5,-1
 290 18 l 2,6,7
 290 -5 290 -5 250 -5 c 128,-1,8
 210 -5 210 -5 210 18 c 2,9,-1
 210 670 l 1,10,-1
 40 670 l 2,11,12
 20 670 20 670 20 705 c 128,-1,13
 20 740 20 740 40 740 c 2,0,-1
EndSplineSet
EndChar

StartChar: U
Encoding: 85 85 56
Width: 683
GlyphClass: 2
Flags: W
LayerCount: 2
Fore
SplineSet
190 133 m 2,0,1
 190 55 190 55 341.5 55 c 128,-1,2
 493 55 493 55 493 133 c 2,3,-1
 493 722 l 2,4,5
 493 745 493 745 533 745 c 128,-1,6
 573 745 573 745 573 722 c 2,7,-1
 573 143 l 2,8,9
 573 60 573 60 508.5 22.5 c 128,-1,10
 444 -15 444 -15 338 -15 c 0,11,12
 110 -15 110 -15 110 143 c 2,13,-1
 110 722 l 2,14,15
 110 745 110 745 149.5 745 c 128,-1,16
 189 745 189 745 189 722 c 2,17,-1
 190 133 l 2,0,1
EndSplineSet
EndChar

StartChar: V
Encoding: 86 86 57
Width: 636
GlyphClass: 2
Flags: W
LayerCount: 2
Fore
SplineSet
318 -15 m 128,-1,1
 239 -15 239 -15 207 16.5 c 128,-1,2
 175 48 175 48 161 122 c 2,3,-1
 53 713 l 2,4,5
 51 723 51 723 51 727 c 0,6,7
 51 745 51 745 89 745 c 128,-1,8
 127 745 127 745 131 722 c 2,9,-1
 239 133 l 2,10,11
 246 90 246 90 261.5 72.5 c 128,-1,12
 277 55 277 55 318 55 c 128,-1,13
 359 55 359 55 374.5 72.5 c 128,-1,14
 390 90 390 90 397 133 c 2,15,-1
 505 722 l 2,16,17
 509 745 509 745 547 745 c 128,-1,18
 585 745 585 745 585 727 c 0,19,20
 585 723 585 723 583 713 c 2,21,-1
 475 122 l 2,22,23
 461 48 461 48 429 16.5 c 128,-1,0
 397 -15 397 -15 318 -15 c 128,-1,1
EndSplineSet
EndChar

StartChar: W
Encoding: 87 87 58
Width: 984
GlyphClass: 2
Flags: W
LayerCount: 2
Fore
SplineSet
617 73.5 m 128,-1,1
 635 55 635 55 676.5 55 c 128,-1,2
 718 55 718 55 734 73 c 128,-1,3
 750 91 750 91 756 133 c 2,4,-1
 834 722 l 2,5,6
 837 745 837 745 875.5 745 c 128,-1,7
 914 745 914 745 914 725 c 1,8,-1
 834 122 l 2,9,10
 825 49 825 49 791 17 c 128,-1,11
 757 -15 757 -15 676.5 -15 c 128,-1,12
 596 -15 596 -15 561 17.5 c 128,-1,13
 526 50 526 50 520 122 c 2,14,-1
 497 368 l 1,15,-1
 487 368 l 1,16,-1
 464 122 l 2,17,18
 457 50 457 50 422.5 17.5 c 128,-1,19
 388 -15 388 -15 307.5 -15 c 128,-1,20
 227 -15 227 -15 193 17 c 128,-1,21
 159 49 159 49 150 122 c 2,22,-1
 70 727 l 1,23,24
 70 745 70 745 108.5 745 c 128,-1,25
 147 745 147 745 150 722 c 2,26,-1
 228 133 l 2,27,28
 234 91 234 91 249.5 73 c 128,-1,29
 265 55 265 55 307 55 c 128,-1,30
 349 55 349 55 366.5 73.5 c 128,-1,31
 384 92 384 92 390 133 c 2,32,-1
 452 631 l 2,33,34
 455 654 455 654 492 654 c 128,-1,35
 529 654 529 654 532 631 c 2,36,-1
 594 133 l 2,37,0
 599 92 599 92 617 73.5 c 128,-1,1
EndSplineSet
EndChar

StartChar: X
Encoding: 88 88 59
Width: 610
GlyphClass: 2
Flags: W
LayerCount: 2
Fore
SplineSet
549 13 m 0,0,1
 549 -5 549 -5 514.5 -5 c 128,-1,2
 480 -5 480 -5 473 18 c 2,3,-1
 398 267 l 2,4,5
 386 308 386 308 366 326.5 c 128,-1,6
 346 345 346 345 305 345 c 128,-1,7
 264 345 264 345 244 326.5 c 128,-1,8
 224 308 224 308 212 267 c 2,9,-1
 137 18 l 2,10,11
 130 -5 130 -5 95.5 -5 c 128,-1,12
 61 -5 61 -5 61 13 c 0,13,14
 61 14 61 14 138 278 c 0,15,16
 151 321 151 321 166 344.5 c 128,-1,17
 181 368 181 368 207 380 c 1,18,19
 182 391 182 391 167 415 c 128,-1,20
 152 439 152 439 138 482 c 0,21,22
 61 723 61 723 61 727 c 0,23,24
 61 745 61 745 95.5 745 c 128,-1,25
 130 745 130 745 137 722 c 2,26,-1
 212 493 l 2,27,28
 225 452 225 452 244.5 433.5 c 128,-1,29
 264 415 264 415 305 415 c 128,-1,30
 346 415 346 415 365.5 433.5 c 128,-1,31
 385 452 385 452 398 493 c 2,32,-1
 473 722 l 2,33,34
 480 745 480 745 514.5 745 c 128,-1,35
 549 745 549 745 549 727 c 0,36,37
 549 723 549 723 472 482 c 0,38,39
 458 439 458 439 443 415 c 128,-1,40
 428 391 428 391 403 380 c 1,41,42
 429 368 429 368 444 344.5 c 128,-1,43
 459 321 459 321 472 278 c 0,44,45
 549 14 549 14 549 13 c 0,0,1
EndSplineSet
EndChar

StartChar: Y
Encoding: 89 89 60
Width: 580
GlyphClass: 2
Flags: W
LayerCount: 2
Fore
SplineSet
330 18 m 2,0,1
 330 -5 330 -5 290 -5 c 128,-1,2
 250 -5 250 -5 250 18 c 2,3,-1
 250 247 l 1,4,5
 199 255 199 255 174 287 c 128,-1,6
 149 319 149 319 133 382 c 2,7,-1
 55 690 l 2,8,9
 46 722 46 722 46 727 c 0,10,11
 46 745 46 745 83.5 745 c 128,-1,12
 121 745 121 745 126 722 c 2,13,-1
 211 393 l 2,14,15
 222 351 222 351 237.5 333 c 128,-1,16
 253 315 253 315 290 315 c 128,-1,17
 327 315 327 315 342.5 333 c 128,-1,18
 358 351 358 351 369 393 c 2,19,-1
 454 722 l 2,20,21
 459 745 459 745 496.5 745 c 128,-1,22
 534 745 534 745 534 727 c 0,23,24
 534 722 534 722 525 690 c 2,25,-1
 447 382 l 2,26,27
 431 319 431 319 406 287 c 128,-1,28
 381 255 381 255 330 247 c 1,29,-1
 330 18 l 2,0,1
EndSplineSet
EndChar

StartChar: Z
Encoding: 90 90 61
Width: 595
GlyphClass: 2
Flags: W
LayerCount: 2
Fore
SplineSet
140 90 m 2,0,-1
 140 70 l 1,1,-1
 516 70 l 2,2,3
 536 70 536 70 536 35 c 128,-1,4
 536 0 536 0 516 0 c 2,5,-1
 80 0 l 2,6,7
 60 0 60 0 60 35 c 2,8,-1
 60 92 l 2,9,10
 60 128 60 128 70.5 147.5 c 128,-1,11
 81 167 81 167 84.5 172.5 c 128,-1,12
 88 178 88 178 99.5 191.5 c 128,-1,13
 111 205 111 205 115 210 c 0,14,15
 135 235 135 235 156 256 c 1,16,-1
 411 543 l 2,17,18
 436 572 436 572 445.5 589 c 128,-1,19
 455 606 455 606 455 630 c 2,20,-1
 455 670 l 1,21,-1
 119 670 l 2,22,23
 99 670 99 670 99 705 c 128,-1,24
 99 740 99 740 119 740 c 2,25,-1
 515 740 l 2,26,27
 535 740 535 740 535 705 c 2,28,-1
 535 628 l 2,29,30
 535 592 535 592 524.5 572.5 c 128,-1,31
 514 553 514 553 510.5 547.5 c 128,-1,32
 507 542 507 542 495.5 528.5 c 128,-1,33
 484 515 484 515 480 510 c 0,34,35
 460 485 460 485 439 464 c 1,36,-1
 184 177 l 2,37,38
 159 148 159 148 149.5 131 c 128,-1,39
 140 114 140 114 140 90 c 2,0,-1
EndSplineSet
EndChar

StartChar: bracketleft
Encoding: 91 91 62
Width: 360
GlyphClass: 2
Flags: W
LayerCount: 2
Fore
SplineSet
200 -30 m 1,0,-1
 310 -30 l 2,1,2
 330 -30 330 -30 330 -65 c 128,-1,3
 330 -100 330 -100 310 -100 c 2,4,-1
 180 -100 l 2,5,6
 141 -100 141 -100 130.5 -84.5 c 128,-1,7
 120 -69 120 -69 120 -25 c 2,8,-1
 120 765 l 2,9,10
 120 809 120 809 130.5 824.5 c 128,-1,11
 141 840 141 840 180 840 c 2,12,-1
 310 840 l 2,13,14
 330 840 330 840 330 805 c 128,-1,15
 330 770 330 770 310 770 c 2,16,-1
 200 770 l 1,17,-1
 200 -30 l 1,0,-1
EndSplineSet
EndChar

StartChar: backslash
Encoding: 92 92 63
Width: 377
GlyphClass: 2
Flags: W
LayerCount: 2
Fore
SplineSet
30 828 m 0,0,1
 30 845 30 845 63 845 c 128,-1,2
 96 845 96 845 103 822 c 2,3,-1
 343 -71 l 2,4,5
 347 -86 347 -86 347 -88 c 0,6,7
 347 -105 347 -105 314 -105 c 128,-1,8
 281 -105 281 -105 274 -82 c 2,9,-1
 34 811 l 2,10,11
 30 826 30 826 30 828 c 0,0,1
EndSplineSet
EndChar

StartChar: bracketright
Encoding: 93 93 64
Width: 360
GlyphClass: 2
Flags: W
LayerCount: 2
Fore
SplineSet
50 -30 m 2,0,-1
 160 -30 l 1,1,-1
 160 770 l 1,2,-1
 50 770 l 2,3,4
 30 770 30 770 30 805 c 128,-1,5
 30 840 30 840 50 840 c 2,6,-1
 180 840 l 2,7,8
 219 840 219 840 229.5 824.5 c 128,-1,9
 240 809 240 809 240 765 c 2,10,-1
 240 -25 l 2,11,12
 240 -69 240 -69 229.5 -84.5 c 128,-1,13
 219 -100 219 -100 180 -100 c 2,14,-1
 50 -100 l 2,15,16
 30 -100 30 -100 30 -65 c 128,-1,17
 30 -30 30 -30 50 -30 c 2,0,-1
EndSplineSet
EndChar

StartChar: asciicircum
Encoding: 94 94 65
Width: 600
GlyphClass: 2
Flags: W
LayerCount: 2
Fore
SplineSet
300 740 m 128,-1,1
 336 740 336 740 358.5 732 c 128,-1,2
 381 724 381 724 396 703.5 c 128,-1,3
 411 683 411 683 418.5 663 c 128,-1,4
 426 643 426 643 437 603 c 2,5,-1
 486 423 l 1,6,7
 486 403 486 403 449.5 403 c 128,-1,8
 413 403 413 403 406 426 c 2,9,-1
 359 592 l 2,10,11
 345 644 345 644 335 657 c 128,-1,12
 325 670 325 670 300 670 c 128,-1,13
 275 670 275 670 265 657 c 128,-1,14
 255 644 255 644 241 592 c 2,15,-1
 194 426 l 2,16,17
 187 403 187 403 150.5 403 c 128,-1,18
 114 403 114 403 114 423 c 1,19,-1
 163 603 l 2,20,21
 174 643 174 643 181.5 663 c 128,-1,22
 189 683 189 683 204 703.5 c 128,-1,23
 219 724 219 724 241.5 732 c 128,-1,0
 264 740 264 740 300 740 c 128,-1,1
EndSplineSet
EndChar

StartChar: underscore
Encoding: 95 95 66
Width: 565
GlyphClass: 2
Flags: W
LayerCount: 2
Fore
SplineSet
70 0 m 2,0,-1
 495 0 l 2,1,2
 515 0 515 0 515 -35 c 128,-1,3
 515 -70 515 -70 495 -70 c 2,4,-1
 70 -70 l 2,5,6
 50 -70 50 -70 50 -35 c 128,-1,7
 50 0 50 0 70 0 c 2,0,-1
EndSplineSet
EndChar

StartChar: grave
Encoding: 96 96 67
Width: 305
GlyphClass: 2
Flags: W
LayerCount: 2
Fore
SplineSet
253 667 m 1,0,-1
 61 758 l 2,1,2
 50 764 50 764 50 780.5 c 128,-1,3
 50 797 50 797 66 821.5 c 128,-1,4
 82 846 82 846 93 846 c 128,-1,5
 104 846 104 846 109 842 c 2,6,-1
 278 726 l 2,7,8
 285 720 285 720 285 710.5 c 128,-1,9
 285 701 285 701 273.5 684 c 128,-1,10
 262 667 262 667 253 667 c 1,0,-1
EndSplineSet
EndChar

StartChar: a
Encoding: 97 97 68
Width: 603
GlyphClass: 2
Flags: W
LayerCount: 2
Fore
SplineSet
363 0 m 2,0,-1
 246 0 l 2,1,2
 158 0 158 0 119 36 c 128,-1,3
 80 72 80 72 80 158 c 2,4,-1
 80 166 l 2,5,6
 80 251 80 251 115 283 c 128,-1,7
 150 315 150 315 240 324 c 2,8,-1
 413 341 l 1,9,-1
 413 452 l 2,10,11
 413 530 413 530 277 530 c 2,12,-1
 140 530 l 2,13,14
 120 530 120 530 120 565 c 128,-1,15
 120 600 120 600 140 600 c 2,16,-1
 277 600 l 2,17,18
 375 600 375 600 434 562.5 c 128,-1,19
 493 525 493 525 493 442 c 2,20,-1
 493 147 l 2,21,22
 493 82 493 82 516 44 c 0,23,24
 523 32 523 32 523 29 c 0,25,26
 523 17 523 17 504 3.5 c 128,-1,27
 485 -10 485 -10 472 -10 c 0,28,29
 450 -10 450 -10 431.5 31.5 c 128,-1,30
 413 73 413 73 413 137 c 2,31,-1
 413 271 l 1,32,-1
 246 254 l 2,33,34
 192 248 192 248 176 230 c 128,-1,35
 160 212 160 212 160 166 c 2,36,-1
 160 158 l 2,37,38
 160 110 160 110 176.5 90 c 128,-1,39
 193 70 193 70 246 70 c 2,40,-1
 363 70 l 2,41,42
 383 70 383 70 383 35 c 128,-1,43
 383 0 383 0 363 0 c 2,0,-1
EndSplineSet
EndChar

StartChar: b
Encoding: 98 98 69
Width: 643
GlyphClass: 2
Flags: W
LayerCount: 2
Fore
SplineSet
327 530 m 2,0,-1
 240 530 l 2,1,2
 220 530 220 530 220 565 c 128,-1,3
 220 600 220 600 240 600 c 2,4,-1
 327 600 l 2,5,6
 425 600 425 600 484 562.5 c 128,-1,7
 543 525 543 525 543 442 c 2,8,-1
 543 143 l 2,9,10
 543 60 543 60 483.5 22.5 c 128,-1,11
 424 -15 424 -15 326 -15 c 128,-1,12
 228 -15 228 -15 169 22.5 c 128,-1,13
 110 60 110 60 110 143 c 2,14,-1
 110 777 l 2,15,16
 110 800 110 800 150 800 c 128,-1,17
 190 800 190 800 190 777 c 2,18,-1
 190 133 l 2,19,20
 190 55 190 55 326.5 55 c 128,-1,21
 463 55 463 55 463 133 c 2,22,-1
 463 452 l 2,23,24
 463 530 463 530 327 530 c 2,0,-1
EndSplineSet
EndChar

StartChar: c
Encoding: 99 99 70
Width: 596
GlyphClass: 2
Flags: W
LayerCount: 2
Fore
SplineSet
180 467 m 2,0,-1
 180 133 l 2,1,2
 180 55 180 55 308 55 c 128,-1,3
 436 55 436 55 436 133 c 2,4,-1
 436 175 l 2,5,6
 436 198 436 198 476 198 c 128,-1,7
 516 198 516 198 516 175 c 2,8,-1
 516 143 l 2,9,10
 516 60 516 60 459.5 22.5 c 128,-1,11
 403 -15 403 -15 308.5 -15 c 128,-1,12
 214 -15 214 -15 157 22.5 c 128,-1,13
 100 60 100 60 100 143 c 2,14,-1
 100 457 l 2,15,16
 100 540 100 540 157 577.5 c 128,-1,17
 214 615 214 615 308.5 615 c 128,-1,18
 403 615 403 615 459.5 577.5 c 128,-1,19
 516 540 516 540 516 457 c 2,20,-1
 516 425 l 2,21,22
 516 402 516 402 476 402 c 128,-1,23
 436 402 436 402 436 425 c 2,24,-1
 436 467 l 2,25,26
 436 545 436 545 308 545 c 128,-1,27
 180 545 180 545 180 467 c 2,0,-1
EndSplineSet
EndChar

StartChar: d
Encoding: 100 100 71
Width: 643
GlyphClass: 2
Flags: W
LayerCount: 2
Fore
SplineSet
533 777 m 2,0,-1
 533 143 l 2,1,2
 533 60 533 60 474 22.5 c 128,-1,3
 415 -15 415 -15 317 -15 c 128,-1,4
 219 -15 219 -15 159.5 22.5 c 128,-1,5
 100 60 100 60 100 143 c 2,6,-1
 100 442 l 2,7,8
 100 525 100 525 159 562.5 c 128,-1,9
 218 600 218 600 316 600 c 2,10,-1
 403 600 l 2,11,12
 423 600 423 600 423 565 c 128,-1,13
 423 530 423 530 403 530 c 2,14,-1
 316 530 l 2,15,16
 180 530 180 530 180 452 c 2,17,-1
 180 133 l 2,18,19
 180 55 180 55 316.5 55 c 128,-1,20
 453 55 453 55 453 133 c 2,21,-1
 453 777 l 2,22,23
 453 800 453 800 493 800 c 128,-1,24
 533 800 533 800 533 777 c 2,0,-1
EndSplineSet
EndChar

StartChar: e
Encoding: 101 101 72
Width: 638
GlyphClass: 2
Flags: W
LayerCount: 2
Fore
SplineSet
538 459 m 2,0,-1
 538 429 l 2,1,2
 538 344 538 344 503 312 c 128,-1,3
 468 280 468 280 375 271 c 2,4,-1
 180 252 l 1,5,-1
 180 133 l 2,6,7
 180 55 180 55 310 55 c 0,8,9
 458 55 458 55 458 123 c 2,10,-1
 458 161 l 2,11,12
 458 184 458 184 498 184 c 128,-1,13
 538 184 538 184 538 161 c 2,14,-1
 538 133 l 2,15,16
 538 -15 538 -15 318 -15 c 0,17,18
 221 -15 221 -15 160.5 23 c 128,-1,19
 100 61 100 61 100 143 c 2,20,-1
 100 457 l 2,21,22
 100 540 100 540 164 577.5 c 128,-1,23
 228 615 228 615 331 615 c 128,-1,24
 434 615 434 615 486 579 c 128,-1,25
 538 543 538 543 538 459 c 2,0,-1
180 467 m 2,26,-1
 180 322 l 1,27,-1
 368 341 l 2,28,29
 425 347 425 347 441.5 365 c 128,-1,30
 458 383 458 383 458 429 c 2,31,-1
 458 467 l 2,32,33
 458 545 458 545 319 545 c 128,-1,34
 180 545 180 545 180 467 c 2,26,-1
EndSplineSet
EndChar

StartChar: f
Encoding: 102 102 73
Width: 385
GlyphClass: 2
Flags: W
LayerCount: 2
Fore
SplineSet
80 600 m 2,0,-1
 150 600 l 1,1,-1
 150 657 l 2,2,3
 150 815 150 815 356 815 c 2,4,-1
 391 815 l 2,5,6
 411 815 411 815 411 780 c 128,-1,7
 411 745 411 745 391 745 c 2,8,-1
 356 745 l 2,9,10
 230 745 230 745 230 667 c 2,11,-1
 230 600 l 1,12,-1
 345 600 l 2,13,14
 365 600 365 600 365 565 c 128,-1,15
 365 530 365 530 345 530 c 2,16,-1
 230 530 l 1,17,-1
 230 -103 l 2,18,19
 230 -167 230 -167 211.5 -208.5 c 128,-1,20
 193 -250 193 -250 171 -250 c 0,21,22
 158 -250 158 -250 139 -236.5 c 128,-1,23
 120 -223 120 -223 120 -211 c 0,24,25
 120 -208 120 -208 128 -196 c 0,26,27
 150 -158 150 -158 150 -93 c 2,28,-1
 150 530 l 1,29,-1
 80 530 l 2,30,31
 60 530 60 530 60 565 c 128,-1,32
 60 600 60 600 80 600 c 2,0,-1
EndSplineSet
PairPos2: "'kern' Horizontal Kerning lookup 0 per glyph data 1" quotedblright dx=0 dy=0 dh=80 dv=0 dx=0 dy=0 dh=0 dv=0
PairPos2: "'kern' Horizontal Kerning lookup 0 per glyph data 1" quotedblleft dx=0 dy=0 dh=80 dv=0 dx=0 dy=0 dh=0 dv=0
PairPos2: "'kern' Horizontal Kerning lookup 0 per glyph data 1" quoteright dx=0 dy=0 dh=80 dv=0 dx=0 dy=0 dh=0 dv=0
PairPos2: "'kern' Horizontal Kerning lookup 0 per glyph data 1" quoteleft dx=0 dy=0 dh=80 dv=0 dx=0 dy=0 dh=0 dv=0
PairPos2: "'kern' Horizontal Kerning lookup 0 per glyph data 1" braceright dx=0 dy=0 dh=80 dv=0 dx=0 dy=0 dh=0 dv=0
PairPos2: "'kern' Horizontal Kerning lookup 0 per glyph data 1" bracketright dx=0 dy=0 dh=80 dv=0 dx=0 dy=0 dh=0 dv=0
PairPos2: "'kern' Horizontal Kerning lookup 0 per glyph data 1" question dx=0 dy=0 dh=80 dv=0 dx=0 dy=0 dh=0 dv=0
PairPos2: "'kern' Horizontal Kerning lookup 0 per glyph data 1" parenright dx=0 dy=0 dh=80 dv=0 dx=0 dy=0 dh=0 dv=0
PairPos2: "'kern' Horizontal Kerning lookup 0 per glyph data 1" quotesingle dx=0 dy=0 dh=80 dv=0 dx=0 dy=0 dh=0 dv=0
PairPos2: "'kern' Horizontal Kerning lookup 0 per glyph data 1" quotedbl dx=0 dy=0 dh=80 dv=0 dx=0 dy=0 dh=0 dv=0
PairPos2: "'kern' Horizontal Kerning lookup 0 per glyph data 1" exclam dx=0 dy=0 dh=60 dv=0 dx=0 dy=0 dh=0 dv=0
EndChar

StartChar: g
Encoding: 103 103 74
Width: 643
GlyphClass: 2
Flags: W
LayerCount: 2
Fore
SplineSet
533 442 m 2,0,-1
 533 120 l 2,1,2
 533 97 533 97 493 97 c 128,-1,3
 453 97 453 97 453 120 c 2,4,-1
 453 452 l 2,5,6
 453 526 453 526 328 530 c 1,7,-1
 317 530 l 2,8,9
 180 530 180 530 180 452 c 2,10,-1
 180 176 l 2,11,12
 180 118 180 118 197.5 94 c 128,-1,13
 215 70 215 70 258 70 c 2,14,-1
 337 70 l 2,15,16
 432 70 432 70 482.5 33 c 128,-1,17
 533 -4 533 -4 533 -88 c 2,18,-1
 533 -92 l 2,19,20
 533 -176 533 -176 482.5 -213 c 128,-1,21
 432 -250 432 -250 337 -250 c 2,22,-1
 110 -250 l 2,23,24
 90 -250 90 -250 90 -215 c 128,-1,25
 90 -180 90 -180 110 -180 c 2,26,-1
 337 -180 l 2,27,28
 396 -180 396 -180 424.5 -162 c 128,-1,29
 453 -144 453 -144 453 -102 c 2,30,-1
 453 -78 l 2,31,32
 453 -36 453 -36 424.5 -18 c 128,-1,33
 396 0 396 0 337 0 c 2,34,-1
 258 0 l 2,35,36
 172 0 172 0 136 41.5 c 128,-1,37
 100 83 100 83 100 176 c 2,38,-1
 100 442 l 2,39,40
 100 525 100 525 159.5 562.5 c 128,-1,41
 219 600 219 600 317 600 c 2,42,-1
 457 600 l 2,43,44
 522 600 522 600 560 622 c 0,45,46
 572 630 572 630 575 630 c 0,47,48
 587 630 587 630 600.5 611 c 128,-1,49
 614 592 614 592 614 579 c 0,50,51
 614 561 614 561 584.5 548 c 128,-1,52
 555 535 555 535 506 531 c 1,53,54
 533 494 533 494 533 442 c 2,0,-1
EndSplineSet
EndChar

StartChar: h
Encoding: 104 104 75
Width: 663
GlyphClass: 2
Flags: W
LayerCount: 2
Fore
SplineSet
553 457 m 2,0,-1
 553 18 l 2,1,2
 553 -5 553 -5 513 -5 c 128,-1,3
 473 -5 473 -5 473 18 c 2,4,-1
 473 467 l 2,5,6
 473 545 473 545 336.5 545 c 128,-1,7
 200 545 200 545 200 467 c 2,8,-1
 200 18 l 2,9,10
 200 -5 200 -5 160 -5 c 128,-1,11
 120 -5 120 -5 120 18 c 2,12,-1
 120 777 l 2,13,14
 120 800 120 800 160 800 c 128,-1,15
 200 800 200 800 200 777 c 2,16,-1
 200 574 l 1,17,18
 255 615 255 615 344.5 615 c 128,-1,19
 434 615 434 615 493.5 577.5 c 128,-1,20
 553 540 553 540 553 457 c 2,0,-1
EndSplineSet
EndChar

StartChar: i
Encoding: 105 105 76
Width: 300
GlyphClass: 2
Flags: W
LayerCount: 2
Fore
SplineSet
190 582 m 2,0,-1
 190 117 l 2,1,2
 190 85 190 85 205 57.5 c 128,-1,3
 220 30 220 30 220 29 c 0,4,5
 220 17 220 17 201 3.5 c 128,-1,6
 182 -10 182 -10 169 -10 c 0,7,8
 148 -10 148 -10 129 26.5 c 128,-1,9
 110 63 110 63 110 107 c 2,10,-1
 110 582 l 2,11,12
 110 605 110 605 150 605 c 128,-1,13
 190 605 190 605 190 582 c 2,0,-1
193 795 m 2,14,-1
 193 708 l 2,15,16
 193 683 193 683 149.5 683 c 128,-1,17
 106 683 106 683 106 708 c 2,18,-1
 106 795 l 2,19,20
 106 820 106 820 149.5 820 c 128,-1,21
 193 820 193 820 193 795 c 2,14,-1
EndSplineSet
EndChar

StartChar: j
Encoding: 106 106 77
Width: 300
GlyphClass: 2
Flags: W
LayerCount: 2
Fore
SplineSet
192 795 m 2,0,-1
 192 708 l 2,1,2
 192 683 192 683 148.5 683 c 128,-1,3
 105 683 105 683 105 708 c 2,4,-1
 105 795 l 2,5,6
 105 820 105 820 148.5 820 c 128,-1,7
 192 820 192 820 192 795 c 2,0,-1
190 582 m 2,8,-1
 190 -92 l 2,9,10
 190 -250 190 -250 -16 -250 c 2,11,-1
 -51 -250 l 2,12,13
 -71 -250 -71 -250 -71 -215 c 128,-1,14
 -71 -180 -71 -180 -51 -180 c 2,15,-1
 -16 -180 l 2,16,17
 110 -180 110 -180 110 -102 c 2,18,-1
 110 582 l 2,19,20
 110 605 110 605 150 605 c 128,-1,21
 190 605 190 605 190 582 c 2,8,-1
EndSplineSet
EndChar

StartChar: k
Encoding: 107 107 78
Width: 602
GlyphClass: 2
Flags: W
LayerCount: 2
Fore
SplineSet
190 777 m 2,0,-1
 190 18 l 2,1,2
 190 -5 190 -5 150 -5 c 128,-1,3
 110 -5 110 -5 110 18 c 2,4,-1
 110 777 l 2,5,6
 110 800 110 800 150 800 c 128,-1,7
 190 800 190 800 190 777 c 2,0,-1
538 13 m 0,8,9
 538 -5 538 -5 503 -5 c 128,-1,10
 468 -5 468 -5 461 18 c 2,11,-1
 402 221 l 2,12,13
 392 256 392 256 376.5 265.5 c 128,-1,14
 361 275 361 275 307 275 c 2,15,-1
 244 275 l 2,16,17
 224 275 224 275 224 310 c 128,-1,18
 224 345 224 345 244 345 c 2,19,-1
 282 345 l 1,20,21
 324 346 324 346 337 355.5 c 128,-1,22
 350 365 350 365 362 399 c 2,23,-1
 429 582 l 2,24,25
 437 605 437 605 471.5 605 c 128,-1,26
 506 605 506 605 506 587 c 0,27,28
 506 586 506 586 496 556 c 2,29,-1
 431 371 l 2,30,31
 422 346 422 346 406 333 c 1,32,33
 452 316 452 316 471 249 c 2,34,-1
 531 40 l 2,35,36
 538 14 538 14 538 13 c 0,8,9
EndSplineSet
EndChar

StartChar: l
Encoding: 108 108 79
Width: 300
GlyphClass: 2
Flags: W
LayerCount: 2
Fore
SplineSet
190 777 m 2,0,-1
 190 117 l 2,1,2
 190 85 190 85 205 57.5 c 128,-1,3
 220 30 220 30 220 29 c 0,4,5
 220 17 220 17 201 3.5 c 128,-1,6
 182 -10 182 -10 169 -10 c 0,7,8
 148 -10 148 -10 129 26.5 c 128,-1,9
 110 63 110 63 110 107 c 2,10,-1
 110 777 l 2,11,12
 110 800 110 800 150 800 c 128,-1,13
 190 800 190 800 190 777 c 2,0,-1
EndSplineSet
EndChar

StartChar: m
Encoding: 109 109 80
Width: 966
GlyphClass: 2
Flags: W
LayerCount: 2
Fore
SplineSet
110 18 m 2,0,-1
 110 457 l 2,1,2
 110 539 110 539 167.5 577 c 128,-1,3
 225 615 225 615 327 615 c 128,-1,4
 429 615 429 615 483 562 c 1,5,6
 536 615 536 615 638 615 c 0,7,8
 856 615 856 615 856 457 c 2,9,-1
 856 18 l 2,10,11
 856 -5 856 -5 816 -5 c 128,-1,12
 776 -5 776 -5 776 18 c 2,13,-1
 776 467 l 2,14,15
 776 545 776 545 649.5 545 c 128,-1,16
 523 545 523 545 523 465 c 2,17,-1
 523 18 l 2,18,19
 523 -5 523 -5 483 -5 c 128,-1,20
 443 -5 443 -5 443 18 c 2,21,-1
 443 467 l 2,22,23
 443 545 443 545 316.5 545 c 128,-1,24
 190 545 190 545 190 467 c 2,25,-1
 190 18 l 2,26,27
 190 -5 190 -5 150 -5 c 128,-1,28
 110 -5 110 -5 110 18 c 2,0,-1
EndSplineSet
EndChar

StartChar: n
Encoding: 110 110 81
Width: 653
GlyphClass: 2
Flags: W
LayerCount: 2
Fore
SplineSet
543 457 m 2,0,-1
 543 18 l 2,1,2
 543 -5 543 -5 503 -5 c 128,-1,3
 463 -5 463 -5 463 18 c 2,4,-1
 463 467 l 2,5,6
 463 545 463 545 326.5 545 c 128,-1,7
 190 545 190 545 190 467 c 2,8,-1
 190 18 l 2,9,10
 190 -5 190 -5 150 -5 c 128,-1,11
 110 -5 110 -5 110 18 c 2,12,-1
 110 457 l 2,13,14
 110 540 110 540 169 577.5 c 128,-1,15
 228 615 228 615 326 615 c 128,-1,16
 424 615 424 615 483.5 577.5 c 128,-1,17
 543 540 543 540 543 457 c 2,0,-1
EndSplineSet
EndChar

StartChar: o
Encoding: 111 111 82
Width: 633
GlyphClass: 2
Flags: W
LayerCount: 2
Fore
SplineSet
453 133 m 2,0,-1
 453 467 l 2,1,2
 453 545 453 545 316.5 545 c 128,-1,3
 180 545 180 545 180 467 c 2,4,-1
 180 133 l 2,5,6
 180 55 180 55 316.5 55 c 128,-1,7
 453 55 453 55 453 133 c 2,0,-1
533 457 m 2,8,-1
 533 143 l 2,9,10
 533 60 533 60 474 22.5 c 128,-1,11
 415 -15 415 -15 317 -15 c 128,-1,12
 219 -15 219 -15 159.5 22.5 c 128,-1,13
 100 60 100 60 100 143 c 2,14,-1
 100 457 l 2,15,16
 100 540 100 540 159 577.5 c 128,-1,17
 218 615 218 615 316 615 c 128,-1,18
 414 615 414 615 473.5 577.5 c 128,-1,19
 533 540 533 540 533 457 c 2,8,-1
EndSplineSet
EndChar

StartChar: p
Encoding: 112 112 83
Width: 643
GlyphClass: 2
Flags: W
LayerCount: 2
Fore
SplineSet
240 70 m 2,0,-1
 327 70 l 2,1,2
 463 70 463 70 463 148 c 2,3,-1
 463 467 l 2,4,5
 463 545 463 545 326.5 545 c 128,-1,6
 190 545 190 545 190 467 c 2,7,-1
 190 -232 l 2,8,9
 190 -255 190 -255 150 -255 c 128,-1,10
 110 -255 110 -255 110 -232 c 2,11,-1
 110 457 l 2,12,13
 110 540 110 540 169 577.5 c 128,-1,14
 228 615 228 615 326 615 c 128,-1,15
 424 615 424 615 483.5 577.5 c 128,-1,16
 543 540 543 540 543 457 c 2,17,-1
 543 158 l 2,18,19
 543 75 543 75 484 37.5 c 128,-1,20
 425 0 425 0 327 0 c 2,21,-1
 240 0 l 2,22,23
 220 0 220 0 220 35 c 128,-1,24
 220 70 220 70 240 70 c 2,0,-1
EndSplineSet
EndChar

StartChar: q
Encoding: 113 113 84
Width: 643
GlyphClass: 2
Flags: W
LayerCount: 2
Fore
SplineSet
316 70 m 2,0,-1
 403 70 l 2,1,2
 423 70 423 70 423 35 c 128,-1,3
 423 0 423 0 403 0 c 2,4,-1
 316 0 l 2,5,6
 218 0 218 0 159 37.5 c 128,-1,7
 100 75 100 75 100 158 c 2,8,-1
 100 457 l 2,9,10
 100 540 100 540 159.5 577.5 c 128,-1,11
 219 615 219 615 317 615 c 128,-1,12
 415 615 415 615 474 577.5 c 128,-1,13
 533 540 533 540 533 457 c 2,14,-1
 533 -232 l 2,15,16
 533 -255 533 -255 493 -255 c 128,-1,17
 453 -255 453 -255 453 -232 c 2,18,-1
 453 467 l 2,19,20
 453 545 453 545 316.5 545 c 128,-1,21
 180 545 180 545 180 467 c 2,22,-1
 180 148 l 2,23,24
 180 70 180 70 316 70 c 2,0,-1
EndSplineSet
EndChar

StartChar: r
Encoding: 114 114 85
Width: 476
GlyphClass: 2
Flags: W
LayerCount: 2
Fore
SplineSet
376 417 m 2,0,-1
 376 467 l 2,1,2
 376 545 376 545 283 545 c 128,-1,3
 190 545 190 545 190 467 c 2,4,-1
 190 8 l 2,5,6
 190 -15 190 -15 150 -15 c 128,-1,7
 110 -15 110 -15 110 8 c 2,8,-1
 110 457 l 2,9,10
 110 540 110 540 157.5 577.5 c 128,-1,11
 205 615 205 615 283 615 c 0,12,13
 456 615 456 615 456 459 c 2,14,-1
 456 417 l 2,15,16
 456 394 456 394 416 394 c 128,-1,17
 376 394 376 394 376 417 c 2,0,-1
EndSplineSet
EndChar

StartChar: s
Encoding: 115 115 86
Width: 632
GlyphClass: 2
Flags: W
LayerCount: 2
Fore
SplineSet
445 427 m 2,0,-1
 445 466 l 2,1,2
 445 545 445 545 316 545 c 0,3,4
 261 545 261 545 226 527 c 128,-1,5
 191 509 191 509 191 470 c 2,6,-1
 191 448 l 2,7,8
 191 394 191 394 205 377.5 c 128,-1,9
 219 361 219 361 265 350 c 2,10,-1
 352 328 l 2,11,12
 476 296 476 296 499 266 c 0,13,14
 527 229 527 229 527 168 c 2,15,-1
 527 132 l 2,16,17
 527 54 527 54 466.5 19.5 c 128,-1,18
 406 -15 406 -15 310 -15 c 0,19,20
 154 -15 154 -15 112 64 c 0,21,22
 95 97 95 97 95 144 c 2,23,-1
 95 176 l 2,24,25
 95 189 95 189 104 193.5 c 128,-1,26
 113 198 113 198 135 198 c 0,27,28
 174 198 174 198 174 173 c 2,29,-1
 174 128 l 2,30,31
 174 88 174 88 209 71.5 c 128,-1,32
 244 55 244 55 311 55 c 0,33,34
 448 55 448 55 448 125 c 2,35,-1
 448 178 l 2,36,37
 448 209 448 209 424.5 226 c 128,-1,38
 401 243 401 243 344 258 c 2,39,-1
 256 280 l 2,40,41
 167 302 167 302 139.5 332.5 c 128,-1,42
 112 363 112 363 112 451 c 2,43,-1
 112 463 l 1,44,45
 114 543 114 543 169 579 c 128,-1,46
 224 615 224 615 314 615 c 0,47,48
 524 615 524 615 524 459 c 2,49,-1
 524 424 l 2,50,51
 524 403 524 403 484.5 403 c 128,-1,52
 445 403 445 403 445 427 c 2,0,-1
EndSplineSet
EndChar

StartChar: t
Encoding: 116 116 87
Width: 385
GlyphClass: 2
Flags: W
LayerCount: 2
Fore
SplineSet
230 717 m 2,0,-1
 230 600 l 1,1,-1
 335 600 l 2,2,3
 355 600 355 600 355 565 c 128,-1,4
 355 530 355 530 335 530 c 2,5,-1
 230 530 l 1,6,-1
 230 117 l 2,7,8
 230 85 230 85 245 57.5 c 128,-1,9
 260 30 260 30 260 29 c 0,10,11
 260 17 260 17 241 3.5 c 128,-1,12
 222 -10 222 -10 209 -10 c 0,13,14
 188 -10 188 -10 169 26.5 c 128,-1,15
 150 63 150 63 150 107 c 2,16,-1
 150 530 l 1,17,-1
 70 530 l 2,18,19
 50 530 50 530 50 565 c 128,-1,20
 50 600 50 600 70 600 c 2,21,-1
 150 600 l 1,22,-1
 150 717 l 2,23,24
 150 740 150 740 190 740 c 128,-1,25
 230 740 230 740 230 717 c 2,0,-1
EndSplineSet
EndChar

StartChar: u
Encoding: 117 117 88
Width: 653
GlyphClass: 2
Flags: W
LayerCount: 2
Fore
SplineSet
543 582 m 2,0,-1
 543 143 l 2,1,2
 543 60 543 60 483.5 22.5 c 128,-1,3
 424 -15 424 -15 326 -15 c 128,-1,4
 228 -15 228 -15 169 22.5 c 128,-1,5
 110 60 110 60 110 143 c 2,6,-1
 110 582 l 2,7,8
 110 605 110 605 150 605 c 128,-1,9
 190 605 190 605 190 582 c 2,10,-1
 190 133 l 2,11,12
 190 55 190 55 326.5 55 c 128,-1,13
 463 55 463 55 463 133 c 2,14,-1
 463 582 l 2,15,16
 463 605 463 605 503 605 c 128,-1,17
 543 605 543 605 543 582 c 2,0,-1
EndSplineSet
EndChar

StartChar: v
Encoding: 118 118 89
Width: 610
GlyphClass: 2
Flags: W
LayerCount: 2
Fore
SplineSet
305 -15 m 128,-1,1
 226 -15 226 -15 193 17 c 128,-1,2
 160 49 160 49 148 122 c 2,3,-1
 74 564 l 2,4,5
 71 585 71 585 71 587 c 0,6,7
 71 605 71 605 109 605 c 128,-1,8
 147 605 147 605 151 582 c 2,9,-1
 226 133 l 2,10,11
 233 90 233 90 248.5 72.5 c 128,-1,12
 264 55 264 55 305 55 c 128,-1,13
 346 55 346 55 361.5 72.5 c 128,-1,14
 377 90 377 90 384 133 c 2,15,-1
 459 582 l 2,16,17
 463 605 463 605 501 605 c 128,-1,18
 539 605 539 605 539 587 c 0,19,20
 539 585 539 585 536 564 c 2,21,-1
 462 122 l 2,22,23
 450 49 450 49 417 17 c 128,-1,0
 384 -15 384 -15 305 -15 c 128,-1,1
EndSplineSet
EndChar

StartChar: w
Encoding: 119 119 90
Width: 941
GlyphClass: 2
Flags: W
LayerCount: 2
Fore
SplineSet
432 541 m 2,0,1
 435 563 435 563 469.5 563 c 128,-1,2
 504 563 504 563 508 541 c 2,3,-1
 574 133 l 2,4,5
 580 91 580 91 595.5 73 c 128,-1,6
 611 55 611 55 647 55 c 128,-1,7
 683 55 683 55 695.5 72 c 128,-1,8
 708 89 708 89 716 133 c 2,9,-1
 791 582 l 2,10,11
 795 605 795 605 833 605 c 128,-1,12
 871 605 871 605 871 587 c 1,13,-1
 794 122 l 2,14,15
 782 49 782 49 751.5 17 c 128,-1,16
 721 -15 721 -15 646.5 -15 c 128,-1,17
 572 -15 572 -15 540.5 17 c 128,-1,18
 509 49 509 49 500 122 c 2,19,-1
 475 329 l 1,20,-1
 465 329 l 1,21,-1
 441 122 l 2,22,23
 432 49 432 49 400.5 17 c 128,-1,24
 369 -15 369 -15 294.5 -15 c 128,-1,25
 220 -15 220 -15 189.5 17 c 128,-1,26
 159 49 159 49 147 122 c 2,27,-1
 70 587 l 1,28,29
 70 605 70 605 108 605 c 128,-1,30
 146 605 146 605 150 582 c 2,31,-1
 225 133 l 2,32,33
 233 89 233 89 245.5 72 c 128,-1,34
 258 55 258 55 294 55 c 128,-1,35
 330 55 330 55 345.5 73 c 128,-1,36
 361 91 361 91 367 133 c 2,37,-1
 432 541 l 2,0,1
EndSplineSet
EndChar

StartChar: x
Encoding: 120 120 91
Width: 610
GlyphClass: 2
Flags: W
LayerCount: 2
Fore
SplineSet
305 275 m 128,-1,1
 263 275 263 275 242 256 c 128,-1,2
 221 237 221 237 211 197 c 2,3,-1
 166 18 l 2,4,5
 161 -5 161 -5 123.5 -5 c 128,-1,6
 86 -5 86 -5 86 13 c 1,7,-1
 133 208 l 2,8,9
 152 288 152 288 204 310 c 1,10,11
 155 332 155 332 133 412 c 2,12,-1
 96 548 l 2,13,14
 86 583 86 583 86 587 c 0,15,16
 86 605 86 605 122.5 605 c 128,-1,17
 159 605 159 605 166 582 c 2,18,-1
 211 423 l 2,19,20
 222 382 222 382 242.5 363.5 c 128,-1,21
 263 345 263 345 305 345 c 128,-1,22
 347 345 347 345 367.5 363.5 c 128,-1,23
 388 382 388 382 399 423 c 2,24,-1
 444 582 l 2,25,26
 451 605 451 605 487.5 605 c 128,-1,27
 524 605 524 605 524 587 c 0,28,29
 524 583 524 583 514 548 c 2,30,-1
 477 412 l 2,31,32
 455 332 455 332 406 310 c 1,33,34
 458 288 458 288 477 208 c 2,35,-1
 524 13 l 1,36,37
 524 -5 524 -5 486.5 -5 c 128,-1,38
 449 -5 449 -5 444 18 c 2,39,-1
 399 197 l 2,40,41
 389 237 389 237 368 256 c 128,-1,0
 347 275 347 275 305 275 c 128,-1,1
EndSplineSet
EndChar

StartChar: y
Encoding: 121 121 92
Width: 610
GlyphClass: 2
Flags: W
LayerCount: 2
Fore
SplineSet
243 -250 m 2,0,-1
 171 -250 l 2,1,2
 151 -250 151 -250 151 -215 c 128,-1,3
 151 -180 151 -180 171 -180 c 2,4,-1
 243 -180 l 2,5,6
 299 -180 299 -180 320 -163.5 c 128,-1,7
 341 -147 341 -147 349 -102 c 2,8,-1
 363 -15 l 1,9,-1
 305 -15 l 2,10,11
 226 -15 226 -15 193 17 c 128,-1,12
 160 49 160 49 148 122 c 2,13,-1
 75 562 l 2,14,15
 71 585 71 585 71 587 c 0,16,17
 71 605 71 605 109 605 c 128,-1,18
 147 605 147 605 151 582 c 2,19,-1
 226 133 l 2,20,21
 233 90 233 90 248.5 72.5 c 128,-1,22
 264 55 264 55 305 55 c 2,23,-1
 375 55 l 1,24,-1
 463 582 l 2,25,26
 467 605 467 605 503 605 c 128,-1,27
 539 605 539 605 539 587 c 0,28,29
 539 585 539 585 536 564 c 2,30,-1
 425 -92 l 2,31,32
 409 -187 409 -187 374 -218.5 c 128,-1,33
 339 -250 339 -250 243 -250 c 2,0,-1
EndSplineSet
EndChar

StartChar: z
Encoding: 122 122 93
Width: 573
GlyphClass: 2
Flags: W
LayerCount: 2
Fore
SplineSet
150 70 m 1,0,-1
 473 70 l 2,1,2
 493 70 493 70 493 35 c 128,-1,3
 493 0 493 0 473 0 c 2,4,-1
 90 0 l 2,5,6
 70 0 70 0 70 35 c 2,7,-1
 70 70 l 2,8,9
 70 108 70 108 77.5 121.5 c 128,-1,10
 85 135 85 135 88 140.5 c 128,-1,11
 91 146 91 146 101.5 157.5 c 128,-1,12
 112 169 112 169 117.5 174.5 c 128,-1,13
 123 180 123 180 139.5 197 c 128,-1,14
 156 214 156 214 166 224 c 2,15,-1
 368 431 l 2,16,17
 398 462 398 462 405 473.5 c 128,-1,18
 412 485 412 485 412 508 c 2,19,-1
 412 530 l 1,20,-1
 119 530 l 2,21,22
 99 530 99 530 99 565 c 128,-1,23
 99 600 99 600 119 600 c 2,24,-1
 472 600 l 2,25,26
 492 600 492 600 492 565 c 2,27,-1
 492 510 l 2,28,29
 492 463 492 463 477 440 c 128,-1,30
 462 417 462 417 396 356 c 1,31,-1
 194 149 l 2,32,33
 164 118 164 118 157 106 c 128,-1,34
 150 94 150 94 150 70 c 1,0,-1
EndSplineSet
EndChar

StartChar: braceleft
Encoding: 123 123 94
Width: 360
GlyphClass: 2
Flags: W
LayerCount: 2
Fore
SplineSet
214 682 m 2,0,-1
 214 504 l 2,1,2
 214 405 214 405 146 381 c 1,3,4
 214 356 214 356 214 258 c 2,5,-1
 214 58 l 2,6,7
 214 12 214 12 234.5 -9 c 128,-1,8
 255 -30 255 -30 310 -30 c 0,9,10
 330 -30 330 -30 330 -65 c 128,-1,11
 330 -100 330 -100 310 -100 c 0,12,13
 220 -100 220 -100 177 -63.5 c 128,-1,14
 134 -27 134 -27 134 58 c 2,15,-1
 134 258 l 2,16,17
 134 302 134 302 124 320.5 c 128,-1,18
 114 339 114 339 86 346 c 2,19,-1
 71 350 l 2,20,21
 51 356 51 356 51 381 c 128,-1,22
 51 406 51 406 71 412 c 2,23,-1
 86 416 l 2,24,25
 114 423 114 423 124 441.5 c 128,-1,26
 134 460 134 460 134 504 c 2,27,-1
 134 682 l 2,28,29
 134 767 134 767 177 803.5 c 128,-1,30
 220 840 220 840 310 840 c 0,31,32
 330 840 330 840 330 805 c 128,-1,33
 330 770 330 770 310 770 c 0,34,35
 255 770 255 770 234.5 749 c 128,-1,36
 214 728 214 728 214 682 c 2,0,-1
EndSplineSet
EndChar

StartChar: bar
Encoding: 124 124 95
Width: 320
GlyphClass: 2
Flags: W
LayerCount: 2
Fore
SplineSet
196 822 m 2,0,-1
 196 -82 l 2,1,2
 196 -105 196 -105 160 -105 c 128,-1,3
 124 -105 124 -105 124 -82 c 2,4,-1
 124 822 l 2,5,6
 124 845 124 845 160 845 c 128,-1,7
 196 845 196 845 196 822 c 2,0,-1
EndSplineSet
EndChar

StartChar: braceright
Encoding: 125 125 96
Width: 360
GlyphClass: 2
Flags: W
LayerCount: 2
Fore
SplineSet
146 504 m 2,0,-1
 146 682 l 2,1,2
 146 728 146 728 125.5 749 c 128,-1,3
 105 770 105 770 50 770 c 0,4,5
 30 770 30 770 30 805 c 128,-1,6
 30 840 30 840 50 840 c 0,7,8
 140 840 140 840 183 803.5 c 128,-1,9
 226 767 226 767 226 682 c 2,10,-1
 226 504 l 2,11,12
 226 460 226 460 236 441.5 c 128,-1,13
 246 423 246 423 274 416 c 2,14,-1
 289 412 l 2,15,16
 309 406 309 406 309 381 c 128,-1,17
 309 356 309 356 289 350 c 2,18,-1
 274 346 l 2,19,20
 246 339 246 339 236 320.5 c 128,-1,21
 226 302 226 302 226 258 c 2,22,-1
 226 58 l 2,23,24
 226 -27 226 -27 183 -63.5 c 128,-1,25
 140 -100 140 -100 50 -100 c 0,26,27
 30 -100 30 -100 30 -65 c 128,-1,28
 30 -30 30 -30 50 -30 c 0,29,30
 105 -30 105 -30 125.5 -9 c 128,-1,31
 146 12 146 12 146 58 c 2,32,-1
 146 258 l 2,33,34
 146 356 146 356 214 381 c 1,35,36
 146 404 146 404 146 504 c 2,0,-1
EndSplineSet
EndChar

StartChar: asciitilde
Encoding: 126 126 97
Width: 600
GlyphClass: 2
Flags: W
LayerCount: 2
Fore
SplineSet
525 418 m 0,0,1
 525 365 525 365 492.5 337 c 128,-1,2
 460 309 460 309 424.5 309 c 128,-1,3
 389 309 389 309 297 336 c 128,-1,4
 205 363 205 363 181 363 c 0,5,6
 145 363 145 363 145 328 c 0,7,8
 145 308 145 308 110 308 c 128,-1,9
 75 308 75 308 75 324 c 0,10,11
 75 377 75 377 107.5 405 c 128,-1,12
 140 433 140 433 175.5 433 c 128,-1,13
 211 433 211 433 303 406 c 128,-1,14
 395 379 395 379 419 379 c 0,15,16
 455 379 455 379 455 414 c 0,17,18
 455 434 455 434 490 434 c 128,-1,19
 525 434 525 434 525 418 c 0,0,1
EndSplineSet
EndChar

StartChar: exclamdown
Encoding: 161 161 98
Width: 301
GlyphClass: 2
Flags: W
LayerCount: 2
Fore
SplineSet
150 -215 m 128,-1,1
 100 -215 100 -215 100 -187 c 0,2,3
 109 75 109 75 117 331 c 0,4,5
 117 353 117 353 150 353 c 128,-1,6
 183 353 183 353 183 331 c 2,7,-1
 200 -186 l 2,8,0
 200 -215 200 -215 150 -215 c 128,-1,1
193 591 m 2,9,-1
 193 506 l 2,10,11
 193 482 193 482 150.5 482 c 128,-1,12
 108 482 108 482 108 506 c 2,13,-1
 108 591 l 2,14,15
 108 615 108 615 150.5 615 c 128,-1,16
 193 615 193 615 193 591 c 2,9,-1
EndSplineSet
EndChar

StartChar: cent
Encoding: 162 162 99
Width: 600
GlyphClass: 2
Flags: W
LayerCount: 2
Fore
SplineSet
370 822 m 2,0,-1
 370 646 l 1,1,-1
 486 646 l 2,2,3
 506 646 506 646 506 611 c 128,-1,4
 506 576 506 576 486 576 c 2,5,-1
 370 576 l 1,6,-1
 370 166 l 1,7,-1
 486 166 l 2,8,9
 506 166 506 166 506 131 c 128,-1,10
 506 96 506 96 486 96 c 2,11,-1
 370 96 l 1,12,-1
 370 -82 l 2,13,14
 370 -105 370 -105 334 -105 c 128,-1,15
 298 -105 298 -105 298 -82 c 2,16,-1
 298 96 l 1,17,18
 212 100 212 100 161 138 c 128,-1,19
 110 176 110 176 110 254 c 2,20,-1
 110 488 l 2,21,22
 110 566 110 566 161 604 c 128,-1,23
 212 642 212 642 298 645 c 1,24,-1
 298 822 l 2,25,26
 298 845 298 845 334 845 c 128,-1,27
 370 845 370 845 370 822 c 2,0,-1
190 244 m 2,28,29
 190 173 190 173 298 166 c 1,30,-1
 298 575 l 1,31,32
 190 570 190 570 190 498 c 2,33,-1
 190 244 l 2,28,29
EndSplineSet
EndChar

StartChar: sterling
Encoding: 163 163 100
Width: 600
GlyphClass: 2
Flags: W
LayerCount: 2
Fore
SplineSet
39 410 m 2,0,-1
 128 410 l 1,1,-1
 140 574 l 2,2,3
 146 661 146 661 180 700.5 c 128,-1,4
 214 740 214 740 298 740 c 2,5,-1
 490 740 l 2,6,7
 510 740 510 740 510 705 c 128,-1,8
 510 670 510 670 490 670 c 2,9,-1
 298 670 l 2,10,11
 256 670 256 670 240 648 c 128,-1,12
 224 626 224 626 220 574 c 2,13,-1
 208 410 l 1,14,-1
 372 410 l 2,15,16
 390 410 390 410 390 378.5 c 128,-1,17
 390 347 390 347 372 347 c 2,18,-1
 204 347 l 1,19,-1
 190 147 l 2,20,21
 187 103 187 103 173 70 c 1,22,-1
 523 70 l 2,23,24
 543 70 543 70 543 35 c 128,-1,25
 543 0 543 0 523 0 c 2,26,-1
 110 0 l 2,27,28
 96 0 96 0 78 12.5 c 128,-1,29
 60 25 60 25 60 39 c 0,30,31
 60 42 60 42 71 54.5 c 128,-1,32
 82 67 82 67 94.5 93.5 c 128,-1,33
 107 120 107 120 110 157 c 2,34,-1
 123 347 l 1,35,-1
 39 347 l 2,36,37
 21 347 21 347 21 378.5 c 128,-1,38
 21 410 21 410 39 410 c 2,0,-1
EndSplineSet
EndChar

StartChar: yen
Encoding: 165 165 101
Width: 600
GlyphClass: 2
Flags: W
LayerCount: 2
Fore
SplineSet
459 722 m 2,0,1
 466 745 466 745 502.5 745 c 128,-1,2
 539 745 539 745 539 727 c 0,3,4
 539 726 539 726 524 674 c 2,5,-1
 470 490 l 1,6,-1
 547 490 l 2,7,8
 565 490 565 490 565 458.5 c 128,-1,9
 565 427 565 427 547 427 c 2,10,-1
 451 427 l 1,11,-1
 447 412 l 1,12,13
 430 356 430 356 411 330 c 1,14,-1
 547 330 l 2,15,16
 565 330 565 330 565 298.5 c 128,-1,17
 565 267 565 267 547 267 c 2,18,-1
 340 267 l 1,19,-1
 340 18 l 2,20,21
 340 -5 340 -5 300 -5 c 128,-1,22
 260 -5 260 -5 260 18 c 2,23,-1
 260 267 l 1,24,-1
 53 267 l 2,25,26
 35 267 35 267 35 298.5 c 128,-1,27
 35 330 35 330 53 330 c 2,28,-1
 188 330 l 1,29,30
 170 356 170 356 153 412 c 1,31,-1
 148 427 l 1,32,-1
 53 427 l 2,33,34
 35 427 35 427 35 458.5 c 128,-1,35
 35 490 35 490 53 490 c 2,36,-1
 130 490 l 1,37,-1
 76 674 l 2,38,39
 61 726 61 726 61 727 c 0,40,41
 61 745 61 745 97.5 745 c 128,-1,42
 134 745 134 745 141 722 c 2,43,-1
 237 395 l 2,44,45
 248 357 248 357 262 343.5 c 128,-1,46
 276 330 276 330 300 330 c 2,47,-1
 307 330 l 1,48,49
 328 332 328 332 340.5 346 c 128,-1,50
 353 360 353 360 363 395 c 2,51,-1
 459 722 l 2,0,1
EndSplineSet
EndChar

StartChar: brokenbar
Encoding: 166 166 102
Width: 320
GlyphClass: 2
Flags: W
LayerCount: 2
Fore
SplineSet
196 822 m 2,0,-1
 196 518 l 2,1,2
 196 495 196 495 160 495 c 128,-1,3
 124 495 124 495 124 518 c 2,4,-1
 124 822 l 2,5,6
 124 845 124 845 160 845 c 128,-1,7
 196 845 196 845 196 822 c 2,0,-1
196 222 m 2,8,-1
 196 -82 l 2,9,10
 196 -105 196 -105 160 -105 c 128,-1,11
 124 -105 124 -105 124 -82 c 2,12,-1
 124 222 l 2,13,14
 124 245 124 245 160 245 c 128,-1,15
 196 245 196 245 196 222 c 2,8,-1
EndSplineSet
EndChar

StartChar: section
Encoding: 167 167 103
Width: 590
GlyphClass: 2
Flags: W
LayerCount: 2
Fore
SplineSet
420 -54 m 2,0,-1
 420 6 l 2,1,2
 420 40 420 40 393 55.5 c 128,-1,3
 366 71 366 71 304 84 c 2,4,-1
 255 94 l 2,5,6
 165 112 165 112 131 147 c 128,-1,7
 97 182 97 182 97 270 c 2,8,-1
 97 304 l 2,9,10
 97 412 97 412 155 447 c 1,11,12
 124 467 124 467 110.5 500 c 128,-1,13
 97 533 97 533 97 590 c 2,14,-1
 97 604 l 2,15,16
 97 690 97 690 133 730 c 128,-1,17
 169 770 169 770 255 770 c 2,18,-1
 467 770 l 2,19,20
 487 770 487 770 487 735 c 128,-1,21
 487 700 487 700 467 700 c 2,22,-1
 255 700 l 2,23,24
 212 700 212 700 194.5 677.5 c 128,-1,25
 177 655 177 655 177 604 c 2,26,-1
 177 592 l 2,27,28
 177 537 177 537 193.5 516 c 128,-1,29
 210 495 210 495 255 486 c 2,30,-1
 304 476 l 1,31,32
 421 451 421 451 446 432 c 0,33,34
 486 403 486 403 493 375 c 128,-1,35
 500 347 500 347 500 318 c 2,36,-1
 500 236 l 2,37,38
 500 142 500 142 453 106 c 1,39,40
 500 72 500 72 500 -2 c 2,41,-1
 500 -54 l 2,42,43
 500 -140 500 -140 464 -180 c 128,-1,44
 428 -220 428 -220 342 -220 c 2,45,-1
 110 -220 l 2,46,47
 90 -220 90 -220 90 -185 c 128,-1,48
 90 -150 90 -150 110 -150 c 2,49,-1
 342 -150 l 2,50,51
 385 -150 385 -150 402.5 -127.5 c 128,-1,52
 420 -105 420 -105 420 -54 c 2,0,-1
420 236 m 2,53,-1
 420 326 l 2,54,55
 420 360 420 360 393 375.5 c 128,-1,56
 366 391 366 391 304 404 c 2,57,-1
 255 414 l 2,58,59
 239 418 239 418 234 418 c 0,60,61
 203 413 203 413 190 390.5 c 128,-1,62
 177 368 177 368 177 324 c 2,63,-1
 177 272 l 2,64,65
 177 217 177 217 193.5 196 c 128,-1,66
 210 175 210 175 255 166 c 2,67,-1
 304 156 l 2,68,69
 361 144 361 144 380 138 c 1,70,71
 420 159 420 159 420 236 c 2,53,-1
EndSplineSet
EndChar

StartChar: dieresis
Encoding: 168 168 104
Width: 487
GlyphClass: 2
Flags: W
LayerCount: 2
Fore
SplineSet
187 795 m 2,0,-1
 187 708 l 2,1,2
 187 683 187 683 143.5 683 c 128,-1,3
 100 683 100 683 100 708 c 2,4,-1
 100 795 l 2,5,6
 100 820 100 820 143.5 820 c 128,-1,7
 187 820 187 820 187 795 c 2,0,-1
387 795 m 2,8,-1
 387 708 l 2,9,10
 387 683 387 683 343.5 683 c 128,-1,11
 300 683 300 683 300 708 c 2,12,-1
 300 795 l 2,13,14
 300 820 300 820 343.5 820 c 128,-1,15
 387 820 387 820 387 795 c 2,8,-1
EndSplineSet
EndChar

StartChar: copyright
Encoding: 169 169 105
Width: 795
GlyphClass: 2
Flags: W
LayerCount: 2
Fore
SplineSet
695 663 m 2,0,-1
 695 366 l 2,1,2
 695 265 695 265 607 220 c 0,3,4
 524 177 524 177 392 177 c 128,-1,5
 260 177 260 177 180 222.5 c 128,-1,6
 100 268 100 268 100 366 c 2,7,-1
 100 663 l 2,8,9
 100 760 100 760 183.5 805 c 128,-1,10
 267 850 267 850 403 850 c 0,11,12
 695 850 695 850 695 663 c 2,0,-1
645 366 m 2,13,-1
 645 663 l 2,14,15
 645 805 645 805 397.5 805 c 128,-1,16
 150 805 150 805 150 663 c 2,17,-1
 150 366 l 2,18,19
 150 222 150 222 397.5 222 c 128,-1,20
 645 222 645 222 645 366 c 2,13,-1
304 646 m 2,21,-1
 304 382 l 2,22,23
 304 340 304 340 393.5 340 c 128,-1,24
 483 340 483 340 483 382 c 2,25,-1
 483 428 l 2,26,27
 483 450 483 450 515.5 450 c 128,-1,28
 548 450 548 450 548 428 c 2,29,-1
 548 389 l 2,30,31
 548 281 548 281 396 281 c 0,32,33
 325 281 325 281 282 307 c 128,-1,34
 239 333 239 333 239 389 c 2,35,-1
 239 639 l 2,36,37
 239 695 239 695 282 721 c 128,-1,38
 325 747 325 747 396 747 c 0,39,40
 548 747 548 747 548 639 c 2,41,-1
 548 599 l 2,42,43
 548 578 548 578 515.5 578 c 128,-1,44
 483 578 483 578 483 599 c 2,45,-1
 483 646 l 2,46,47
 483 688 483 688 393.5 688 c 128,-1,48
 304 688 304 688 304 646 c 2,21,-1
EndSplineSet
EndChar

StartChar: ordfeminine
Encoding: 170 170 106
Width: 472
GlyphClass: 2
Flags: W
LayerCount: 2
Fore
SplineSet
247 380 m 2,0,-1
 199 380 l 2,1,2
 138 380 138 380 112 404 c 128,-1,3
 86 428 86 428 86 487 c 2,4,-1
 86 492 l 2,5,6
 86 549 86 549 110 571.5 c 128,-1,7
 134 594 134 594 194 600 c 2,8,-1
 297 611 l 1,9,-1
 297 674 l 2,10,11
 297 716 297 716 218 716 c 2,12,-1
 131 716 l 2,13,14
 112 716 112 716 112 745.5 c 128,-1,15
 112 775 112 775 131 775 c 2,16,-1
 218 775 l 2,17,18
 283 775 283 775 322.5 749 c 128,-1,19
 362 723 362 723 362 667 c 2,20,-1
 362 481 l 2,21,22
 362 440 362 440 376 416 c 0,23,24
 381 408 381 408 381 402 c 128,-1,25
 381 396 381 396 366.5 384.5 c 128,-1,26
 352 373 352 373 342 373 c 0,27,28
 326 373 326 373 311.5 402 c 128,-1,29
 297 431 297 431 297 474 c 2,30,-1
 297 552 l 1,31,-1
 200 541 l 2,32,33
 168 537 168 537 159.5 528 c 128,-1,34
 151 519 151 519 151 492 c 2,35,-1
 151 487 l 2,36,37
 151 460 151 460 160 449 c 128,-1,38
 169 438 169 438 199 438 c 2,39,-1
 247 438 l 2,40,41
 266 438 266 438 266 409 c 128,-1,42
 266 380 266 380 247 380 c 2,0,-1
EndSplineSet
EndChar

StartChar: guillemotleft
Encoding: 171 171 107
Width: 579
GlyphClass: 2
Flags: W
LayerCount: 2
Fore
SplineSet
235 610 m 2,0,1
 240 615 240 615 249.5 615 c 128,-1,2
 259 615 259 615 279.5 598.5 c 128,-1,3
 300 582 300 582 300 573.5 c 128,-1,4
 300 565 300 565 295 560 c 1,5,-1
 154 359 l 1,6,-1
 295 158 l 1,7,8
 300 153 300 153 300 144 c 128,-1,9
 300 135 300 135 279 119 c 128,-1,10
 258 103 258 103 249 103 c 128,-1,11
 240 103 240 103 235 108 c 2,12,-1
 84 309 l 2,13,14
 70 329 70 329 70 359 c 128,-1,15
 70 389 70 389 84 409 c 2,16,-1
 235 610 l 2,0,1
444 610 m 2,17,18
 449 615 449 615 458.5 615 c 128,-1,19
 468 615 468 615 488.5 598.5 c 128,-1,20
 509 582 509 582 509 573.5 c 128,-1,21
 509 565 509 565 504 560 c 1,22,-1
 363 359 l 1,23,-1
 504 158 l 1,24,25
 509 153 509 153 509 144 c 128,-1,26
 509 135 509 135 488 119 c 128,-1,27
 467 103 467 103 458 103 c 128,-1,28
 449 103 449 103 444 108 c 2,29,-1
 293 309 l 2,30,31
 279 329 279 329 279 359 c 128,-1,32
 279 389 279 389 293 409 c 2,33,-1
 444 610 l 2,17,18
EndSplineSet
EndChar

StartChar: logicalnot
Encoding: 172 172 108
Width: 600
GlyphClass: 2
Flags: W
LayerCount: 2
Fore
SplineSet
95 406 m 2,0,-1
 495 406 l 2,1,2
 525 406 525 406 525 371 c 2,3,-1
 525 198 l 2,4,5
 525 175 525 175 489 175 c 128,-1,6
 453 175 453 175 453 198 c 2,7,-1
 453 336 l 1,8,-1
 95 336 l 2,9,10
 75 336 75 336 75 371 c 128,-1,11
 75 406 75 406 95 406 c 2,0,-1
EndSplineSet
EndChar

StartChar: registered
Encoding: 174 174 109
Width: 795
GlyphClass: 2
Flags: W
LayerCount: 2
Fore
SplineSet
695 663 m 2,0,-1
 695 366 l 2,1,2
 695 265 695 265 607 220 c 0,3,4
 524 177 524 177 392 177 c 128,-1,5
 260 177 260 177 180 222.5 c 128,-1,6
 100 268 100 268 100 366 c 2,7,-1
 100 663 l 2,8,9
 100 760 100 760 183.5 805 c 128,-1,10
 267 850 267 850 403 850 c 0,11,12
 695 850 695 850 695 663 c 2,0,-1
373 520 m 2,13,-1
 404 520 l 2,14,15
 484 520 484 520 484 563 c 2,16,-1
 484 646 l 2,17,18
 484 688 484 688 403.5 688 c 128,-1,19
 323 688 323 688 323 646 c 2,20,-1
 323 310 l 2,21,22
 323 288 323 288 290.5 288 c 128,-1,23
 258 288 258 288 258 310 c 2,24,-1
 258 639 l 2,25,26
 258 695 258 695 298 721 c 128,-1,27
 338 747 338 747 403.5 747 c 128,-1,28
 469 747 469 747 508.5 721 c 128,-1,29
 548 695 548 695 548 639 c 2,30,-1
 548 570 l 2,31,32
 548 509 548 509 499 492 c 1,33,34
 509 481 509 481 516 455 c 2,35,-1
 548 337 l 2,36,37
 555 310 555 310 555 307 c 0,38,39
 555 288 555 288 526 288 c 128,-1,40
 497 288 497 288 492 308 c 2,41,-1
 458 433 l 2,42,43
 453 452 453 452 444 457 c 128,-1,44
 435 462 435 462 404 462 c 2,45,-1
 373 462 l 2,46,47
 354 462 354 462 354 491 c 128,-1,48
 354 520 354 520 373 520 c 2,13,-1
645 366 m 2,49,-1
 645 663 l 2,50,51
 645 805 645 805 397.5 805 c 128,-1,52
 150 805 150 805 150 663 c 2,53,-1
 150 366 l 2,54,55
 150 222 150 222 397.5 222 c 128,-1,56
 645 222 645 222 645 366 c 2,49,-1
EndSplineSet
EndChar

StartChar: macron
Encoding: 175 175 110
Width: 507
GlyphClass: 2
Flags: W
LayerCount: 2
Fore
SplineSet
120 787 m 2,0,-1
 387 787 l 2,1,2
 407 787 407 787 407 748.5 c 128,-1,3
 407 710 407 710 387 710 c 2,4,-1
 120 710 l 2,5,6
 100 710 100 710 100 748.5 c 128,-1,7
 100 787 100 787 120 787 c 2,0,-1
EndSplineSet
EndChar

StartChar: degree
Encoding: 176 176 111
Width: 470
GlyphClass: 2
Flags: W
LayerCount: 2
Fore
SplineSet
387 648 m 2,0,-1
 387 478 l 2,1,2
 387 422 387 422 344.5 396 c 128,-1,3
 302 370 302 370 232 370 c 0,4,5
 79 370 79 370 79 478 c 2,6,-1
 79 648 l 2,7,8
 79 704 79 704 122.5 729.5 c 128,-1,9
 166 755 166 755 236 755 c 0,10,11
 387 755 387 755 387 648 c 2,0,-1
144 655 m 2,12,-1
 144 471 l 2,13,14
 144 429 144 429 233.5 429 c 128,-1,15
 323 429 323 429 323 471 c 2,16,-1
 323 655 l 2,17,18
 323 697 323 697 233.5 697 c 128,-1,19
 144 697 144 697 144 655 c 2,12,-1
EndSplineSet
EndChar

StartChar: plusminus
Encoding: 177 177 112
Width: 600
GlyphClass: 2
Flags: W
LayerCount: 2
Fore
SplineSet
265 166 m 2,0,-1
 265 336 l 1,1,-1
 95 336 l 2,2,3
 75 336 75 336 75 371 c 128,-1,4
 75 406 75 406 95 406 c 2,5,-1
 265 406 l 1,6,-1
 265 576 l 2,7,8
 265 596 265 596 300 596 c 128,-1,9
 335 596 335 596 335 576 c 2,10,-1
 335 406 l 1,11,-1
 505 406 l 2,12,13
 525 406 525 406 525 371 c 128,-1,14
 525 336 525 336 505 336 c 2,15,-1
 335 336 l 1,16,-1
 335 166 l 2,17,18
 335 146 335 146 300 146 c 128,-1,19
 265 146 265 146 265 166 c 2,0,-1
95 70 m 2,20,-1
 505 70 l 2,21,22
 525 70 525 70 525 35 c 128,-1,23
 525 0 525 0 505 0 c 2,24,-1
 95 0 l 2,25,26
 75 0 75 0 75 35 c 128,-1,27
 75 70 75 70 95 70 c 2,20,-1
EndSplineSet
EndChar

StartChar: twosuperior
Encoding: 178 178 113
Width: 470
GlyphClass: 2
Flags: W
LayerCount: 2
Fore
SplineSet
381 651 m 2,0,-1
 381 641 l 2,1,2
 381 603 381 603 338 551 c 2,3,-1
 163 338 l 1,4,-1
 362 338 l 2,5,6
 381 338 381 338 381 309 c 128,-1,7
 381 280 381 280 362 280 c 2,8,-1
 93 280 l 2,9,10
 73 280 73 280 73 309 c 0,11,12
 73 324 73 324 81 334 c 2,13,-1
 284 578 l 2,14,15
 317 619 317 619 317 644 c 2,16,-1
 317 651 l 2,17,18
 317 679 317 679 307.5 692 c 128,-1,19
 298 705 298 705 274 705 c 2,20,-1
 120 705 l 2,21,22
 101 705 101 705 101 734.5 c 128,-1,23
 101 764 101 764 120 764 c 2,24,-1
 274 764 l 2,25,26
 332 764 332 764 356.5 736.5 c 128,-1,27
 381 709 381 709 381 651 c 2,0,-1
EndSplineSet
EndChar

StartChar: threesuperior
Encoding: 179 179 114
Width: 470
GlyphClass: 2
Flags: W
LayerCount: 2
Fore
SplineSet
374 641 m 2,0,1
 374 592 374 592 327 545 c 1,2,3
 384 529 384 529 384 449 c 2,4,-1
 384 378 l 2,5,6
 384 323 384 323 340 296.5 c 128,-1,7
 296 270 296 270 230 270 c 128,-1,8
 164 270 164 270 121.5 296 c 128,-1,9
 79 322 79 322 79 378 c 2,10,-1
 79 406 l 2,11,12
 79 427 79 427 111.5 427 c 128,-1,13
 144 427 144 427 144 406 c 2,14,-1
 144 371 l 2,15,16
 144 329 144 329 232 329 c 128,-1,17
 320 329 320 329 320 371 c 2,18,-1
 320 449 l 2,19,20
 320 474 320 474 311 483 c 128,-1,21
 302 492 302 492 272 492 c 2,22,-1
 162 492 l 2,23,24
 143 492 143 492 143 521.5 c 128,-1,25
 143 551 143 551 162 551 c 2,26,-1
 248 551 l 1,27,-1
 277 579 l 2,28,29
 310 611 310 611 310 644 c 2,30,-1
 310 651 l 2,31,32
 310 679 310 679 300.5 692 c 128,-1,33
 291 705 291 705 268 705 c 2,34,-1
 120 705 l 2,35,36
 101 705 101 705 101 734.5 c 128,-1,37
 101 764 101 764 120 764 c 2,38,-1
 268 764 l 2,39,40
 326 764 326 764 350 737 c 128,-1,41
 374 710 374 710 374 651 c 2,42,-1
 374 641 l 2,0,1
EndSplineSet
EndChar

StartChar: acute
Encoding: 180 180 115
Width: 305
GlyphClass: 2
Flags: W
LayerCount: 2
Fore
SplineSet
89 670 m 1,0,-1
 82 667 l 1,1,2
 73 667 73 667 61.5 684 c 128,-1,3
 50 701 50 701 50 710.5 c 128,-1,4
 50 720 50 720 57 726 c 2,5,-1
 226 842 l 2,6,7
 231 846 231 846 242 846 c 128,-1,8
 253 846 253 846 269 821.5 c 128,-1,9
 285 797 285 797 285 780.5 c 128,-1,10
 285 764 285 764 274 758 c 2,11,-1
 89 670 l 1,0,-1
EndSplineSet
EndChar

StartChar: mu
Encoding: 181 181 116
Width: 653
GlyphClass: 2
Flags: W
LayerCount: 2
Fore
SplineSet
543 582 m 2,0,-1
 543 143 l 2,1,2
 543 60 543 60 483.5 22.5 c 128,-1,3
 424 -15 424 -15 333 -15 c 128,-1,4
 242 -15 242 -15 188 27 c 1,5,-1
 188 -108 l 2,6,7
 188 -173 188 -173 212 -210 c 0,8,9
 220 -223 220 -223 220 -226 c 0,10,11
 220 -238 220 -238 201 -251.5 c 128,-1,12
 182 -265 182 -265 169 -265 c 0,13,14
 147 -265 147 -265 128.5 -223.5 c 128,-1,15
 110 -182 110 -182 110 -118 c 2,16,-1
 110 582 l 2,17,18
 110 605 110 605 150 605 c 128,-1,19
 190 605 190 605 190 582 c 2,20,-1
 190 133 l 2,21,22
 190 55 190 55 326.5 55 c 128,-1,23
 463 55 463 55 463 133 c 2,24,-1
 463 582 l 2,25,26
 463 605 463 605 503 605 c 128,-1,27
 543 605 543 605 543 582 c 2,0,-1
EndSplineSet
EndChar

StartChar: paragraph
Encoding: 182 182 117
Width: 593
GlyphClass: 2
Flags: W
LayerCount: 2
Fore
SplineSet
483 627 m 2,0,-1
 483 7 l 2,1,2
 483 -25 483 -25 498 -52.5 c 128,-1,3
 513 -80 513 -80 513 -81 c 0,4,5
 513 -93 513 -93 494 -106.5 c 128,-1,6
 475 -120 475 -120 462 -120 c 0,7,8
 441 -120 441 -120 422 -83.5 c 128,-1,9
 403 -47 403 -47 403 -3 c 2,10,-1
 403 320 l 1,11,-1
 266 320 l 2,12,13
 168 320 168 320 109 357.5 c 128,-1,14
 50 395 50 395 50 478 c 2,15,-1
 50 627 l 2,16,17
 50 710 50 710 109.5 747.5 c 128,-1,18
 169 785 169 785 267 785 c 128,-1,19
 365 785 365 785 424 747.5 c 128,-1,20
 483 710 483 710 483 627 c 2,0,-1
EndSplineSet
EndChar

StartChar: periodcentered
Encoding: 183 183 118
Width: 201
GlyphClass: 2
Flags: W
LayerCount: 2
Fore
SplineSet
143 354 m 2,0,-1
 143 269 l 2,1,2
 143 245 143 245 100.5 245 c 128,-1,3
 58 245 58 245 58 269 c 2,4,-1
 58 354 l 2,5,6
 58 378 58 378 100.5 378 c 128,-1,7
 143 378 143 378 143 354 c 2,0,-1
EndSplineSet
EndChar

StartChar: cedilla
Encoding: 184 184 119
Width: 596
GlyphClass: 2
Flags: W
LayerCount: 2
Fore
SplineSet
249 -97 m 2,0,-1
 249 -115 l 2,1,2
 249 -144 249 -144 297.5 -144 c 128,-1,3
 346 -144 346 -144 346 -114 c 2,4,-1
 346 -54 l 2,5,6
 346 -31 346 -31 335 -23 c 128,-1,7
 324 -15 324 -15 297 -15 c 1,8,-1
 297 21 l 1,9,10
 359 21 359 21 386 6.5 c 128,-1,11
 413 -8 413 -8 413 -53 c 2,12,-1
 413 -110 l 2,13,14
 413 -153 413 -153 378.5 -177.5 c 128,-1,15
 344 -202 344 -202 296 -202 c 128,-1,16
 248 -202 248 -202 215 -178 c 128,-1,17
 182 -154 182 -154 182 -110 c 2,18,-1
 182 -97 l 2,19,20
 182 -76 182 -76 215.5 -76 c 128,-1,21
 249 -76 249 -76 249 -97 c 2,0,-1
EndSplineSet
EndChar

StartChar: onesuperior
Encoding: 185 185 120
Width: 470
GlyphClass: 2
Flags: W
LayerCount: 2
Fore
SplineSet
353 280 m 2,0,-1
 137 280 l 2,1,2
 118 280 118 280 118 309 c 128,-1,3
 118 338 118 338 137 338 c 2,4,-1
 213 338 l 1,5,-1
 213 705 l 1,6,-1
 137 705 l 2,7,8
 118 705 118 705 118 734.5 c 128,-1,9
 118 764 118 764 137 764 c 2,10,-1
 233 764 l 2,11,12
 261 764 261 764 269.5 752.5 c 128,-1,13
 278 741 278 741 278 711 c 2,14,-1
 278 338 l 1,15,-1
 353 338 l 2,16,17
 373 338 373 338 373 309 c 128,-1,18
 373 280 373 280 353 280 c 2,0,-1
EndSplineSet
EndChar

StartChar: ordmasculine
Encoding: 186 186 121
Width: 491
GlyphClass: 2
Flags: W
LayerCount: 2
Fore
SplineSet
323 471 m 2,0,-1
 323 684 l 2,1,2
 323 726 323 726 243.5 726 c 128,-1,3
 164 726 164 726 164 684 c 2,4,-1
 164 471 l 2,5,6
 164 429 164 429 243.5 429 c 128,-1,7
 323 429 323 429 323 471 c 2,0,-1
387 677 m 2,8,-1
 387 478 l 2,9,10
 387 422 387 422 348 396 c 128,-1,11
 309 370 309 370 244 370 c 128,-1,12
 179 370 179 370 139 396 c 128,-1,13
 99 422 99 422 99 478 c 2,14,-1
 99 677 l 2,15,16
 99 733 99 733 138.5 759 c 128,-1,17
 178 785 178 785 243 785 c 128,-1,18
 308 785 308 785 347.5 759 c 128,-1,19
 387 733 387 733 387 677 c 2,8,-1
EndSplineSet
EndChar

StartChar: guillemotright
Encoding: 187 187 122
Width: 579
GlyphClass: 2
Flags: W
LayerCount: 2
Fore
SplineSet
495 409 m 2,0,1
 509 389 509 389 509 359 c 128,-1,2
 509 329 509 329 495 309 c 2,3,-1
 344 108 l 2,4,5
 339 103 339 103 330 103 c 128,-1,6
 321 103 321 103 300 119 c 128,-1,7
 279 135 279 135 279 144 c 128,-1,8
 279 153 279 153 284 158 c 1,9,-1
 425 359 l 1,10,-1
 284 560 l 1,11,12
 279 565 279 565 279 573.5 c 128,-1,13
 279 582 279 582 299.5 598.5 c 128,-1,14
 320 615 320 615 329.5 615 c 128,-1,15
 339 615 339 615 344 610 c 2,16,-1
 495 409 l 2,0,1
286 409 m 2,17,18
 300 389 300 389 300 359 c 128,-1,19
 300 329 300 329 286 309 c 2,20,-1
 135 108 l 2,21,22
 130 103 130 103 121 103 c 128,-1,23
 112 103 112 103 91 119 c 128,-1,24
 70 135 70 135 70 144 c 128,-1,25
 70 153 70 153 75 158 c 1,26,-1
 216 359 l 1,27,-1
 75 560 l 1,28,29
 70 565 70 565 70 573.5 c 128,-1,30
 70 582 70 582 90.5 598.5 c 128,-1,31
 111 615 111 615 120.5 615 c 128,-1,32
 130 615 130 615 135 610 c 2,33,-1
 286 409 l 2,17,18
EndSplineSet
EndChar

StartChar: onequarter
Encoding: 188 188 123
Width: 1011
GlyphClass: 2
Flags: W
LayerCount: 2
Fore
SplineSet
722 480 m 1,0,1
 729 490 729 490 743 490 c 128,-1,2
 757 490 757 490 770 480 c 128,-1,3
 783 470 783 470 783 460 c 1,4,-1
 708 295 l 2,5,6
 674 221 674 221 673.5 197 c 128,-1,7
 673 173 673 173 682.5 166 c 128,-1,8
 692 159 692 159 721 159 c 2,9,-1
 828 159 l 1,10,-1
 828 329 l 2,11,12
 828 351 828 351 860 351 c 128,-1,13
 892 351 892 351 892 329 c 2,14,-1
 892 159 l 1,15,-1
 919 159 l 2,16,17
 939 159 939 159 939 130.5 c 128,-1,18
 939 102 939 102 919 102 c 2,19,-1
 892 102 l 1,20,-1
 892 19 l 2,21,22
 892 -3 892 -3 860 -3 c 128,-1,23
 828 -3 828 -3 828 19 c 2,24,-1
 828 102 l 1,25,-1
 721 102 l 2,26,27
 661 102 661 102 635 122.5 c 128,-1,28
 609 143 609 143 609 189 c 2,29,-1
 609 196 l 2,30,31
 609 228 609 228 651 321 c 2,32,-1
 722 480 l 1,0,1
336 256 m 2,33,-1
 120 256 l 2,34,35
 101 256 101 256 101 285 c 128,-1,36
 101 314 101 314 120 314 c 2,37,-1
 196 314 l 1,38,-1
 196 681 l 1,39,-1
 120 681 l 2,40,41
 101 681 101 681 101 710.5 c 128,-1,42
 101 740 101 740 120 740 c 2,43,-1
 216 740 l 2,44,45
 244 740 244 740 252.5 728.5 c 128,-1,46
 261 717 261 717 261 687 c 2,47,-1
 261 314 l 1,48,-1
 336 314 l 2,49,50
 356 314 356 314 356 285 c 128,-1,51
 356 256 356 256 336 256 c 2,33,-1
459 8 m 2,52,53
 454 -15 454 -15 427 -15 c 128,-1,54
 400 -15 400 -15 400 2 c 1,55,-1
 552 732 l 2,56,57
 557 755 557 755 584 755 c 128,-1,58
 611 755 611 755 611 738 c 1,59,-1
 459 8 l 2,52,53
EndSplineSet
EndChar

StartChar: onehalf
Encoding: 189 189 124
Width: 1011
GlyphClass: 2
Flags: W
LayerCount: 2
Fore
SplineSet
926 371 m 2,0,-1
 926 361 l 2,1,2
 926 323 926 323 883 271 c 2,3,-1
 708 58 l 1,4,-1
 907 58 l 2,5,6
 926 58 926 58 926 29 c 128,-1,7
 926 0 926 0 907 0 c 2,8,-1
 638 0 l 2,9,10
 618 0 618 0 618 29 c 0,11,12
 618 44 618 44 626 54 c 2,13,-1
 829 298 l 2,14,15
 862 339 862 339 862 364 c 2,16,-1
 862 371 l 2,17,18
 862 399 862 399 852.5 412 c 128,-1,19
 843 425 843 425 819 425 c 2,20,-1
 665 425 l 2,21,22
 646 425 646 425 646 454.5 c 128,-1,23
 646 484 646 484 665 484 c 2,24,-1
 819 484 l 2,25,26
 877 484 877 484 901.5 456.5 c 128,-1,27
 926 429 926 429 926 371 c 2,0,-1
336 256 m 2,28,-1
 120 256 l 2,29,30
 101 256 101 256 101 285 c 128,-1,31
 101 314 101 314 120 314 c 2,32,-1
 196 314 l 1,33,-1
 196 681 l 1,34,-1
 120 681 l 2,35,36
 101 681 101 681 101 710.5 c 128,-1,37
 101 740 101 740 120 740 c 2,38,-1
 216 740 l 2,39,40
 244 740 244 740 252.5 728.5 c 128,-1,41
 261 717 261 717 261 687 c 2,42,-1
 261 314 l 1,43,-1
 336 314 l 2,44,45
 356 314 356 314 356 285 c 128,-1,46
 356 256 356 256 336 256 c 2,28,-1
459 8 m 2,47,48
 454 -15 454 -15 427 -15 c 128,-1,49
 400 -15 400 -15 400 2 c 1,50,-1
 552 732 l 2,51,52
 557 755 557 755 584 755 c 128,-1,53
 611 755 611 755 611 738 c 1,54,-1
 459 8 l 2,47,48
EndSplineSet
EndChar

StartChar: threequarters
Encoding: 190 190 125
Width: 1011
GlyphClass: 2
Flags: W
LayerCount: 2
Fore
SplineSet
722 480 m 1,0,1
 729 490 729 490 743 490 c 128,-1,2
 757 490 757 490 770 480 c 128,-1,3
 783 470 783 470 783 460 c 1,4,-1
 708 295 l 2,5,6
 674 221 674 221 673.5 197 c 128,-1,7
 673 173 673 173 682.5 166 c 128,-1,8
 692 159 692 159 721 159 c 2,9,-1
 828 159 l 1,10,-1
 828 329 l 2,11,12
 828 351 828 351 860 351 c 128,-1,13
 892 351 892 351 892 329 c 2,14,-1
 892 159 l 1,15,-1
 919 159 l 2,16,17
 939 159 939 159 939 130.5 c 128,-1,18
 939 102 939 102 919 102 c 2,19,-1
 892 102 l 1,20,-1
 892 19 l 2,21,22
 892 -3 892 -3 860 -3 c 128,-1,23
 828 -3 828 -3 828 19 c 2,24,-1
 828 102 l 1,25,-1
 721 102 l 2,26,27
 661 102 661 102 635 122.5 c 128,-1,28
 609 143 609 143 609 189 c 2,29,-1
 609 196 l 2,30,31
 609 228 609 228 651 321 c 2,32,-1
 722 480 l 1,0,1
357 617 m 2,33,34
 357 568 357 568 310 521 c 1,35,36
 367 505 367 505 367 425 c 2,37,-1
 367 354 l 2,38,39
 367 299 367 299 323 272.5 c 128,-1,40
 279 246 279 246 213 246 c 128,-1,41
 147 246 147 246 104.5 272 c 128,-1,42
 62 298 62 298 62 354 c 2,43,-1
 62 382 l 2,44,45
 62 403 62 403 94.5 403 c 128,-1,46
 127 403 127 403 127 382 c 2,47,-1
 127 347 l 2,48,49
 127 305 127 305 215 305 c 128,-1,50
 303 305 303 305 303 347 c 2,51,-1
 303 425 l 2,52,53
 303 450 303 450 294 459 c 128,-1,54
 285 468 285 468 255 468 c 2,55,-1
 145 468 l 2,56,57
 126 468 126 468 126 497.5 c 128,-1,58
 126 527 126 527 145 527 c 2,59,-1
 231 527 l 1,60,-1
 260 555 l 2,61,62
 293 587 293 587 293 620 c 2,63,-1
 293 627 l 2,64,65
 293 655 293 655 283.5 668 c 128,-1,66
 274 681 274 681 251 681 c 2,67,-1
 103 681 l 2,68,69
 84 681 84 681 84 710.5 c 128,-1,70
 84 740 84 740 103 740 c 2,71,-1
 251 740 l 2,72,73
 309 740 309 740 333 713 c 128,-1,74
 357 686 357 686 357 627 c 2,75,-1
 357 617 l 2,33,34
459 8 m 2,76,77
 454 -15 454 -15 427 -15 c 128,-1,78
 400 -15 400 -15 400 2 c 1,79,-1
 552 732 l 2,80,81
 557 755 557 755 584 755 c 128,-1,82
 611 755 611 755 611 738 c 1,83,-1
 459 8 l 2,76,77
EndSplineSet
EndChar

StartChar: questiondown
Encoding: 191 191 126
Width: 467
GlyphClass: 2
Flags: W
LayerCount: 2
Fore
SplineSet
208 506 m 2,0,-1
 208 591 l 2,1,2
 208 615 208 615 250.5 615 c 128,-1,3
 293 615 293 615 293 591 c 2,4,-1
 293 506 l 2,5,6
 293 482 293 482 250.5 482 c 128,-1,7
 208 482 208 482 208 506 c 2,0,-1
251 353 m 128,-1,9
 284 353 284 353 284 331 c 2,10,-1
 290 152 l 1,11,-1
 223 134 l 2,12,13
 173 120 173 120 151.5 104.5 c 128,-1,14
 130 89 130 89 130 56 c 2,15,-1
 130 -67 l 2,16,17
 130 -107 130 -107 164.5 -126 c 128,-1,18
 199 -145 199 -145 250 -145 c 128,-1,19
 301 -145 301 -145 334 -126.5 c 128,-1,20
 367 -108 367 -108 367 -67 c 2,21,-1
 367 -13 l 2,22,23
 367 10 367 10 407 10 c 128,-1,24
 447 10 447 10 447 -13 c 2,25,-1
 447 -57 l 2,26,27
 447 -138 447 -138 389.5 -176.5 c 128,-1,28
 332 -215 332 -215 250 -215 c 0,29,30
 136 -215 136 -215 81 -149 c 0,31,32
 50 -112 50 -112 50 -57 c 2,33,-1
 50 48 l 2,34,35
 50 108 50 108 81 146 c 0,36,37
 93 160 93 160 119 172.5 c 128,-1,38
 145 185 145 185 162 190 c 128,-1,39
 179 195 179 195 215 205 c 1,40,-1
 218 331 l 2,41,8
 218 353 218 353 251 353 c 128,-1,9
EndSplineSet
EndChar

StartChar: Agrave
Encoding: 192 192 127
Width: 683
GlyphClass: 2
Flags: W
LayerCount: 2
Fore
SplineSet
573 597 m 2,0,-1
 573 18 l 2,1,2
 573 -5 573 -5 533 -5 c 128,-1,3
 493 -5 493 -5 493 18 c 2,4,-1
 493 289 l 1,5,-1
 190 289 l 1,6,-1
 190 18 l 2,7,8
 190 -5 190 -5 150 -5 c 128,-1,9
 110 -5 110 -5 110 18 c 2,10,-1
 110 597 l 2,11,12
 110 653 110 653 143 689.5 c 128,-1,13
 176 726 176 726 227 740.5 c 128,-1,14
 278 755 278 755 347 755 c 0,15,16
 573 755 573 755 573 597 c 2,0,-1
190 607 m 2,17,-1
 190 359 l 1,18,-1
 493 359 l 1,19,-1
 493 607 l 2,20,21
 493 685 493 685 341.5 685 c 128,-1,22
 190 685 190 685 190 607 c 2,17,-1
427 807 m 1,23,-1
 235 898 l 2,24,25
 224 904 224 904 224 920.5 c 128,-1,26
 224 937 224 937 240 961.5 c 128,-1,27
 256 986 256 986 267 986 c 128,-1,28
 278 986 278 986 283 982 c 2,29,-1
 452 866 l 2,30,31
 459 860 459 860 459 850.5 c 128,-1,32
 459 841 459 841 447.5 824 c 128,-1,33
 436 807 436 807 427 807 c 1,23,-1
EndSplineSet
EndChar

StartChar: Aacute
Encoding: 193 193 128
Width: 683
GlyphClass: 2
Flags: W
LayerCount: 2
Fore
SplineSet
573 597 m 2,0,-1
 573 18 l 2,1,2
 573 -5 573 -5 533 -5 c 128,-1,3
 493 -5 493 -5 493 18 c 2,4,-1
 493 289 l 1,5,-1
 190 289 l 1,6,-1
 190 18 l 2,7,8
 190 -5 190 -5 150 -5 c 128,-1,9
 110 -5 110 -5 110 18 c 2,10,-1
 110 597 l 2,11,12
 110 653 110 653 143 689.5 c 128,-1,13
 176 726 176 726 227 740.5 c 128,-1,14
 278 755 278 755 347 755 c 0,15,16
 573 755 573 755 573 597 c 2,0,-1
190 607 m 2,17,-1
 190 359 l 1,18,-1
 493 359 l 1,19,-1
 493 607 l 2,20,21
 493 685 493 685 341.5 685 c 128,-1,22
 190 685 190 685 190 607 c 2,17,-1
263 810 m 1,23,-1
 256 807 l 1,24,25
 247 807 247 807 235.5 824 c 128,-1,26
 224 841 224 841 224 850.5 c 128,-1,27
 224 860 224 860 231 866 c 2,28,-1
 400 982 l 2,29,30
 405 986 405 986 416 986 c 128,-1,31
 427 986 427 986 443 961.5 c 128,-1,32
 459 937 459 937 459 920.5 c 128,-1,33
 459 904 459 904 448 898 c 2,34,-1
 263 810 l 1,23,-1
EndSplineSet
EndChar

StartChar: Acircumflex
Encoding: 194 194 129
Width: 683
GlyphClass: 2
Flags: W
LayerCount: 2
Fore
SplineSet
573 597 m 2,0,-1
 573 18 l 2,1,2
 573 -5 573 -5 533 -5 c 128,-1,3
 493 -5 493 -5 493 18 c 2,4,-1
 493 289 l 1,5,-1
 190 289 l 1,6,-1
 190 18 l 2,7,8
 190 -5 190 -5 150 -5 c 128,-1,9
 110 -5 110 -5 110 18 c 2,10,-1
 110 597 l 2,11,12
 110 653 110 653 143 689.5 c 128,-1,13
 176 726 176 726 227 740.5 c 128,-1,14
 278 755 278 755 347 755 c 0,15,16
 573 755 573 755 573 597 c 2,0,-1
190 607 m 2,17,-1
 190 359 l 1,18,-1
 493 359 l 1,19,-1
 493 607 l 2,20,21
 493 685 493 685 341.5 685 c 128,-1,22
 190 685 190 685 190 607 c 2,17,-1
336 986 m 2,23,-1
 347 986 l 2,24,25
 352 986 352 986 356 982 c 2,26,-1
 476 866 l 2,27,28
 483 859 483 859 483 848.5 c 128,-1,29
 483 838 483 838 472 822.5 c 128,-1,30
 461 807 461 807 454.5 807 c 128,-1,31
 448 807 448 807 444 810 c 2,32,-1
 341 886 l 1,33,-1
 238 810 l 2,34,35
 233 807 233 807 231 807 c 0,36,37
 221 807 221 807 210 822.5 c 128,-1,38
 199 838 199 838 199 848.5 c 128,-1,39
 199 859 199 859 206 866 c 2,40,-1
 326 982 l 2,41,42
 330 986 330 986 336 986 c 2,23,-1
EndSplineSet
EndChar

StartChar: Atilde
Encoding: 195 195 130
Width: 683
GlyphClass: 2
Flags: W
LayerCount: 2
Fore
SplineSet
573 597 m 2,0,-1
 573 18 l 2,1,2
 573 -5 573 -5 533 -5 c 128,-1,3
 493 -5 493 -5 493 18 c 2,4,-1
 493 289 l 1,5,-1
 190 289 l 1,6,-1
 190 18 l 2,7,8
 190 -5 190 -5 150 -5 c 128,-1,9
 110 -5 110 -5 110 18 c 2,10,-1
 110 597 l 2,11,12
 110 653 110 653 143 689.5 c 128,-1,13
 176 726 176 726 227 740.5 c 128,-1,14
 278 755 278 755 347 755 c 0,15,16
 573 755 573 755 573 597 c 2,0,-1
190 607 m 2,17,-1
 190 359 l 1,18,-1
 493 359 l 1,19,-1
 493 607 l 2,20,21
 493 685 493 685 341.5 685 c 128,-1,22
 190 685 190 685 190 607 c 2,17,-1
271 871 m 1,23,-1
 266 872 l 1,24,25
 253 872 253 872 253 847 c 0,26,27
 253 827 253 827 218 827 c 128,-1,28
 183 827 183 827 183 843 c 0,29,30
 183 898 183 898 201 925 c 128,-1,31
 219 952 219 952 248 952 c 0,32,33
 255 952 255 952 271 948 c 2,34,-1
 412 909 l 2,35,36
 414 908 414 908 418 908 c 0,37,38
 430 908 430 908 430 933 c 0,39,40
 430 953 430 953 465 953 c 128,-1,41
 500 953 500 953 500 937 c 0,42,43
 500 883 500 883 482 856 c 128,-1,44
 464 829 464 829 434 829 c 0,45,46
 424 829 424 829 412 832 c 2,47,-1
 271 871 l 1,23,-1
EndSplineSet
EndChar

StartChar: Adieresis
Encoding: 196 196 131
Width: 683
GlyphClass: 2
Flags: W
LayerCount: 2
Fore
SplineSet
573 597 m 2,0,-1
 573 18 l 2,1,2
 573 -5 573 -5 533 -5 c 128,-1,3
 493 -5 493 -5 493 18 c 2,4,-1
 493 289 l 1,5,-1
 190 289 l 1,6,-1
 190 18 l 2,7,8
 190 -5 190 -5 150 -5 c 128,-1,9
 110 -5 110 -5 110 18 c 2,10,-1
 110 597 l 2,11,12
 110 653 110 653 143 689.5 c 128,-1,13
 176 726 176 726 227 740.5 c 128,-1,14
 278 755 278 755 347 755 c 0,15,16
 573 755 573 755 573 597 c 2,0,-1
190 607 m 2,17,-1
 190 359 l 1,18,-1
 493 359 l 1,19,-1
 493 607 l 2,20,21
 493 685 493 685 341.5 685 c 128,-1,22
 190 685 190 685 190 607 c 2,17,-1
285 935 m 2,23,-1
 285 848 l 2,24,25
 285 823 285 823 241.5 823 c 128,-1,26
 198 823 198 823 198 848 c 2,27,-1
 198 935 l 2,28,29
 198 960 198 960 241.5 960 c 128,-1,30
 285 960 285 960 285 935 c 2,23,-1
485 935 m 2,31,-1
 485 848 l 2,32,33
 485 823 485 823 441.5 823 c 128,-1,34
 398 823 398 823 398 848 c 2,35,-1
 398 935 l 2,36,37
 398 960 398 960 441.5 960 c 128,-1,38
 485 960 485 960 485 935 c 2,31,-1
EndSplineSet
EndChar

StartChar: Aring
Encoding: 197 197 132
Width: 683
GlyphClass: 2
Flags: W
LayerCount: 2
Fore
SplineSet
573 597 m 2,0,-1
 573 18 l 2,1,2
 573 -5 573 -5 533 -5 c 128,-1,3
 493 -5 493 -5 493 18 c 2,4,-1
 493 289 l 1,5,-1
 190 289 l 1,6,-1
 190 18 l 2,7,8
 190 -5 190 -5 150 -5 c 128,-1,9
 110 -5 110 -5 110 18 c 2,10,-1
 110 597 l 2,11,12
 110 653 110 653 143 689.5 c 128,-1,13
 176 726 176 726 227 740.5 c 128,-1,14
 278 755 278 755 347 755 c 0,15,16
 573 755 573 755 573 597 c 2,0,-1
190 607 m 2,17,-1
 190 359 l 1,18,-1
 493 359 l 1,19,-1
 493 607 l 2,20,21
 493 685 493 685 341.5 685 c 128,-1,22
 190 685 190 685 190 607 c 2,17,-1
452 904 m 2,23,-1
 452 879 l 2,24,25
 452 787 452 787 340 787 c 0,26,27
 281 787 281 787 256 809.5 c 128,-1,28
 231 832 231 832 231 879 c 2,29,-1
 231 904 l 2,30,31
 231 996 231 996 343 996 c 0,32,33
 402 996 402 996 427 973.5 c 128,-1,34
 452 951 452 951 452 904 c 2,23,-1
293 913 m 2,35,-1
 293 869 l 2,36,37
 293 840 293 840 341.5 840 c 128,-1,38
 390 840 390 840 390 870 c 2,39,-1
 390 914 l 2,40,41
 390 943 390 943 341.5 943 c 128,-1,42
 293 943 293 943 293 913 c 2,35,-1
EndSplineSet
EndChar

StartChar: AE
Encoding: 198 198 133
Width: 965
GlyphClass: 2
Flags: W
LayerCount: 2
Fore
SplineSet
110 597 m 2,0,1
 110 755 110 755 342 755 c 0,2,3
 452 755 452 755 504 702 c 1,4,5
 560 755 560 755 685 755 c 0,6,7
 774 755 774 755 829 717 c 128,-1,8
 884 679 884 679 884 597 c 2,9,-1
 884 582 l 2,10,11
 884 559 884 559 844 559 c 128,-1,12
 804 559 804 559 804 582 c 2,13,-1
 804 607 l 2,14,15
 804 685 804 685 673.5 685 c 128,-1,16
 543 685 543 685 543 607 c 2,17,-1
 543 504 l 2,18,19
 543 462 543 462 568.5 439 c 128,-1,20
 594 416 594 416 641 416 c 2,21,-1
 735 416 l 2,22,23
 755 416 755 416 755 381 c 128,-1,24
 755 346 755 346 735 346 c 2,25,-1
 650 346 l 2,26,27
 542 346 542 346 542 258 c 2,28,-1
 542 133 l 2,29,30
 542 55 542 55 683.5 55 c 128,-1,31
 825 55 825 55 825 133 c 2,32,-1
 825 205 l 2,33,34
 825 228 825 228 865 228 c 128,-1,35
 905 228 905 228 905 205 c 2,36,-1
 905 143 l 2,37,38
 905 60 905 60 845 22.5 c 128,-1,39
 785 -15 785 -15 684.5 -15 c 128,-1,40
 584 -15 584 -15 523 22.5 c 128,-1,41
 462 60 462 60 462 143 c 2,42,-1
 462 228 l 2,43,44
 462 319 462 319 529 346 c 1,45,-1
 185 346 l 1,46,-1
 185 18 l 2,47,48
 185 -5 185 -5 147.5 -5 c 128,-1,49
 110 -5 110 -5 110 18 c 2,50,-1
 110 597 l 2,0,1
185 607 m 2,51,-1
 185 416 l 1,52,-1
 530 416 l 1,53,54
 462 442 462 442 462 534 c 2,55,-1
 462 626 l 2,56,57
 462 657 462 657 423.5 671 c 128,-1,58
 385 685 385 685 327 685 c 0,59,60
 185 685 185 685 185 607 c 2,51,-1
EndSplineSet
EndChar

StartChar: Ccedilla
Encoding: 199 199 134
Width: 633
GlyphClass: 2
Flags: W
LayerCount: 2
Fore
SplineSet
281 -97 m 2,0,-1
 281 -115 l 2,1,2
 281 -144 281 -144 329.5 -144 c 128,-1,3
 378 -144 378 -144 378 -114 c 2,4,-1
 378 -54 l 2,5,6
 378 -31 378 -31 367 -23 c 128,-1,7
 356 -15 356 -15 329 -15 c 0,8,9
 225 -15 225 -15 162.5 22.5 c 128,-1,10
 100 60 100 60 100 143 c 2,11,-1
 100 597 l 2,12,13
 100 680 100 680 163 717.5 c 128,-1,14
 226 755 226 755 330 755 c 0,15,16
 553 755 553 755 553 597 c 2,17,-1
 553 535 l 2,18,19
 553 512 553 512 513 512 c 128,-1,20
 473 512 473 512 473 535 c 2,21,-1
 473 607 l 2,22,23
 473 685 473 685 326.5 685 c 128,-1,24
 180 685 180 685 180 607 c 2,25,-1
 180 133 l 2,26,27
 180 55 180 55 326.5 55 c 128,-1,28
 473 55 473 55 473 133 c 2,29,-1
 473 205 l 2,30,31
 473 228 473 228 513 228 c 128,-1,32
 553 228 553 228 553 205 c 2,33,-1
 553 143 l 2,34,35
 553 28 553 28 430 -4 c 1,36,37
 445 -20 445 -20 445 -53 c 2,38,-1
 445 -110 l 2,39,40
 445 -153 445 -153 410.5 -177.5 c 128,-1,41
 376 -202 376 -202 328 -202 c 128,-1,42
 280 -202 280 -202 247 -178 c 128,-1,43
 214 -154 214 -154 214 -110 c 2,44,-1
 214 -97 l 2,45,46
 214 -76 214 -76 247.5 -76 c 128,-1,47
 281 -76 281 -76 281 -97 c 2,0,-1
EndSplineSet
EndChar

StartChar: Egrave
Encoding: 200 200 135
Width: 603
GlyphClass: 2
Flags: W
LayerCount: 2
Fore
SplineSet
180 258 m 2,0,-1
 180 133 l 2,1,2
 180 55 180 55 321.5 55 c 128,-1,3
 463 55 463 55 463 133 c 2,4,-1
 463 205 l 2,5,6
 463 228 463 228 503 228 c 128,-1,7
 543 228 543 228 543 205 c 2,8,-1
 543 143 l 2,9,10
 543 60 543 60 483 22.5 c 128,-1,11
 423 -15 423 -15 322.5 -15 c 128,-1,12
 222 -15 222 -15 161 22.5 c 128,-1,13
 100 60 100 60 100 143 c 2,14,-1
 100 258 l 2,15,16
 100 361 100 361 188 382 c 1,17,18
 110 406 110 406 110 504 c 2,19,-1
 110 597 l 2,20,21
 110 680 110 680 171 717.5 c 128,-1,22
 232 755 232 755 326.5 755 c 128,-1,23
 421 755 421 755 476 717 c 128,-1,24
 531 679 531 679 531 597 c 2,25,-1
 531 582 l 2,26,27
 531 559 531 559 491 559 c 128,-1,28
 451 559 451 559 451 582 c 2,29,-1
 451 607 l 2,30,31
 451 685 451 685 320.5 685 c 128,-1,32
 190 685 190 685 190 607 c 2,33,-1
 190 504 l 2,34,35
 190 416 190 416 298 416 c 2,36,-1
 373 416 l 2,37,38
 393 416 393 416 393 381 c 128,-1,39
 393 346 393 346 373 346 c 2,40,-1
 288 346 l 2,41,42
 180 346 180 346 180 258 c 2,0,-1
387 807 m 1,43,-1
 195 898 l 2,44,45
 184 904 184 904 184 920.5 c 128,-1,46
 184 937 184 937 200 961.5 c 128,-1,47
 216 986 216 986 227 986 c 128,-1,48
 238 986 238 986 243 982 c 2,49,-1
 412 866 l 2,50,51
 419 860 419 860 419 850.5 c 128,-1,52
 419 841 419 841 407.5 824 c 128,-1,53
 396 807 396 807 387 807 c 1,43,-1
EndSplineSet
EndChar

StartChar: Eacute
Encoding: 201 201 136
Width: 603
GlyphClass: 2
Flags: W
LayerCount: 2
Fore
SplineSet
180 258 m 2,0,-1
 180 133 l 2,1,2
 180 55 180 55 321.5 55 c 128,-1,3
 463 55 463 55 463 133 c 2,4,-1
 463 205 l 2,5,6
 463 228 463 228 503 228 c 128,-1,7
 543 228 543 228 543 205 c 2,8,-1
 543 143 l 2,9,10
 543 60 543 60 483 22.5 c 128,-1,11
 423 -15 423 -15 322.5 -15 c 128,-1,12
 222 -15 222 -15 161 22.5 c 128,-1,13
 100 60 100 60 100 143 c 2,14,-1
 100 258 l 2,15,16
 100 361 100 361 188 382 c 1,17,18
 110 406 110 406 110 504 c 2,19,-1
 110 597 l 2,20,21
 110 680 110 680 171 717.5 c 128,-1,22
 232 755 232 755 326.5 755 c 128,-1,23
 421 755 421 755 476 717 c 128,-1,24
 531 679 531 679 531 597 c 2,25,-1
 531 582 l 2,26,27
 531 559 531 559 491 559 c 128,-1,28
 451 559 451 559 451 582 c 2,29,-1
 451 607 l 2,30,31
 451 685 451 685 320.5 685 c 128,-1,32
 190 685 190 685 190 607 c 2,33,-1
 190 504 l 2,34,35
 190 416 190 416 298 416 c 2,36,-1
 373 416 l 2,37,38
 393 416 393 416 393 381 c 128,-1,39
 393 346 393 346 373 346 c 2,40,-1
 288 346 l 2,41,42
 180 346 180 346 180 258 c 2,0,-1
223 810 m 1,43,-1
 216 807 l 1,44,45
 207 807 207 807 195.5 824 c 128,-1,46
 184 841 184 841 184 850.5 c 128,-1,47
 184 860 184 860 191 866 c 2,48,-1
 360 982 l 2,49,50
 365 986 365 986 376 986 c 128,-1,51
 387 986 387 986 403 961.5 c 128,-1,52
 419 937 419 937 419 920.5 c 128,-1,53
 419 904 419 904 408 898 c 2,54,-1
 223 810 l 1,43,-1
EndSplineSet
EndChar

StartChar: Ecircumflex
Encoding: 202 202 137
Width: 603
GlyphClass: 2
Flags: W
LayerCount: 2
Fore
SplineSet
180 258 m 2,0,-1
 180 133 l 2,1,2
 180 55 180 55 321.5 55 c 128,-1,3
 463 55 463 55 463 133 c 2,4,-1
 463 205 l 2,5,6
 463 228 463 228 503 228 c 128,-1,7
 543 228 543 228 543 205 c 2,8,-1
 543 143 l 2,9,10
 543 60 543 60 483 22.5 c 128,-1,11
 423 -15 423 -15 322.5 -15 c 128,-1,12
 222 -15 222 -15 161 22.5 c 128,-1,13
 100 60 100 60 100 143 c 2,14,-1
 100 258 l 2,15,16
 100 361 100 361 188 382 c 1,17,18
 110 406 110 406 110 504 c 2,19,-1
 110 597 l 2,20,21
 110 680 110 680 171 717.5 c 128,-1,22
 232 755 232 755 326.5 755 c 128,-1,23
 421 755 421 755 476 717 c 128,-1,24
 531 679 531 679 531 597 c 2,25,-1
 531 582 l 2,26,27
 531 559 531 559 491 559 c 128,-1,28
 451 559 451 559 451 582 c 2,29,-1
 451 607 l 2,30,31
 451 685 451 685 320.5 685 c 128,-1,32
 190 685 190 685 190 607 c 2,33,-1
 190 504 l 2,34,35
 190 416 190 416 298 416 c 2,36,-1
 373 416 l 2,37,38
 393 416 393 416 393 381 c 128,-1,39
 393 346 393 346 373 346 c 2,40,-1
 288 346 l 2,41,42
 180 346 180 346 180 258 c 2,0,-1
296 986 m 2,43,-1
 307 986 l 2,44,45
 312 986 312 986 316 982 c 2,46,-1
 436 866 l 2,47,48
 443 859 443 859 443 848.5 c 128,-1,49
 443 838 443 838 432 822.5 c 128,-1,50
 421 807 421 807 414.5 807 c 128,-1,51
 408 807 408 807 404 810 c 2,52,-1
 301 886 l 1,53,-1
 198 810 l 2,54,55
 194 807 194 807 187.5 807 c 128,-1,56
 181 807 181 807 170 822.5 c 128,-1,57
 159 838 159 838 159 848.5 c 128,-1,58
 159 859 159 859 166 866 c 2,59,-1
 286 982 l 2,60,61
 290 986 290 986 296 986 c 2,43,-1
EndSplineSet
EndChar

StartChar: Edieresis
Encoding: 203 203 138
Width: 603
GlyphClass: 2
Flags: W
LayerCount: 2
Fore
SplineSet
180 258 m 2,0,-1
 180 133 l 2,1,2
 180 55 180 55 321.5 55 c 128,-1,3
 463 55 463 55 463 133 c 2,4,-1
 463 205 l 2,5,6
 463 228 463 228 503 228 c 128,-1,7
 543 228 543 228 543 205 c 2,8,-1
 543 143 l 2,9,10
 543 60 543 60 483 22.5 c 128,-1,11
 423 -15 423 -15 322.5 -15 c 128,-1,12
 222 -15 222 -15 161 22.5 c 128,-1,13
 100 60 100 60 100 143 c 2,14,-1
 100 258 l 2,15,16
 100 361 100 361 188 382 c 1,17,18
 110 406 110 406 110 504 c 2,19,-1
 110 597 l 2,20,21
 110 680 110 680 171 717.5 c 128,-1,22
 232 755 232 755 326.5 755 c 128,-1,23
 421 755 421 755 476 717 c 128,-1,24
 531 679 531 679 531 597 c 2,25,-1
 531 582 l 2,26,27
 531 559 531 559 491 559 c 128,-1,28
 451 559 451 559 451 582 c 2,29,-1
 451 607 l 2,30,31
 451 685 451 685 320.5 685 c 128,-1,32
 190 685 190 685 190 607 c 2,33,-1
 190 504 l 2,34,35
 190 416 190 416 298 416 c 2,36,-1
 373 416 l 2,37,38
 393 416 393 416 393 381 c 128,-1,39
 393 346 393 346 373 346 c 2,40,-1
 288 346 l 2,41,42
 180 346 180 346 180 258 c 2,0,-1
245 935 m 2,43,-1
 245 848 l 2,44,45
 245 823 245 823 201.5 823 c 128,-1,46
 158 823 158 823 158 848 c 2,47,-1
 158 935 l 2,48,49
 158 960 158 960 201.5 960 c 128,-1,50
 245 960 245 960 245 935 c 2,43,-1
445 935 m 2,51,-1
 445 848 l 2,52,53
 445 823 445 823 401.5 823 c 128,-1,54
 358 823 358 823 358 848 c 2,55,-1
 358 935 l 2,56,57
 358 960 358 960 401.5 960 c 128,-1,58
 445 960 445 960 445 935 c 2,51,-1
EndSplineSet
EndChar

StartChar: Igrave
Encoding: 204 204 139
Width: 320
GlyphClass: 2
Flags: W
LayerCount: 2
Fore
SplineSet
200 722 m 2,0,-1
 200 18 l 2,1,2
 200 -5 200 -5 160 -5 c 128,-1,3
 120 -5 120 -5 120 18 c 2,4,-1
 120 722 l 2,5,6
 120 745 120 745 160 745 c 128,-1,7
 200 745 200 745 200 722 c 2,0,-1
246 807 m 1,8,-1
 54 898 l 2,9,10
 43 904 43 904 43 920.5 c 128,-1,11
 43 937 43 937 59 961.5 c 128,-1,12
 75 986 75 986 86 986 c 128,-1,13
 97 986 97 986 102 982 c 2,14,-1
 271 866 l 2,15,16
 278 860 278 860 278 850.5 c 128,-1,17
 278 841 278 841 266.5 824 c 128,-1,18
 255 807 255 807 246 807 c 1,8,-1
EndSplineSet
EndChar

StartChar: Iacute
Encoding: 205 205 140
Width: 320
GlyphClass: 2
Flags: W
LayerCount: 2
Fore
SplineSet
200 722 m 2,0,-1
 200 18 l 2,1,2
 200 -5 200 -5 160 -5 c 128,-1,3
 120 -5 120 -5 120 18 c 2,4,-1
 120 722 l 2,5,6
 120 745 120 745 160 745 c 128,-1,7
 200 745 200 745 200 722 c 2,0,-1
82 810 m 1,8,-1
 75 807 l 1,9,10
 66 807 66 807 54.5 824 c 128,-1,11
 43 841 43 841 43 850.5 c 128,-1,12
 43 860 43 860 50 866 c 2,13,-1
 219 982 l 2,14,15
 224 986 224 986 235 986 c 128,-1,16
 246 986 246 986 262 961.5 c 128,-1,17
 278 937 278 937 278 920.5 c 128,-1,18
 278 904 278 904 267 898 c 2,19,-1
 82 810 l 1,8,-1
EndSplineSet
EndChar

StartChar: Icircumflex
Encoding: 206 206 141
Width: 320
GlyphClass: 2
Flags: W
LayerCount: 2
Fore
SplineSet
200 722 m 2,0,-1
 200 18 l 2,1,2
 200 -5 200 -5 160 -5 c 128,-1,3
 120 -5 120 -5 120 18 c 2,4,-1
 120 722 l 2,5,6
 120 745 120 745 160 745 c 128,-1,7
 200 745 200 745 200 722 c 2,0,-1
155 986 m 2,8,-1
 166 986 l 2,9,10
 171 986 171 986 175 982 c 2,11,-1
 295 866 l 2,12,13
 302 859 302 859 302 848.5 c 128,-1,14
 302 838 302 838 291 822.5 c 128,-1,15
 280 807 280 807 270 807 c 0,16,17
 268 807 268 807 263 810 c 2,18,-1
 160 886 l 1,19,-1
 57 810 l 2,20,21
 52 807 52 807 50 807 c 0,22,23
 40 807 40 807 29 822.5 c 128,-1,24
 18 838 18 838 18 848.5 c 128,-1,25
 18 859 18 859 25 866 c 2,26,-1
 145 982 l 2,27,28
 149 986 149 986 155 986 c 2,8,-1
EndSplineSet
EndChar

StartChar: Idieresis
Encoding: 207 207 142
Width: 320
GlyphClass: 2
Flags: W
LayerCount: 2
Fore
SplineSet
200 722 m 2,0,-1
 200 18 l 2,1,2
 200 -5 200 -5 160 -5 c 128,-1,3
 120 -5 120 -5 120 18 c 2,4,-1
 120 722 l 2,5,6
 120 745 120 745 160 745 c 128,-1,7
 200 745 200 745 200 722 c 2,0,-1
104 935 m 2,8,-1
 104 848 l 2,9,10
 104 823 104 823 60.5 823 c 128,-1,11
 17 823 17 823 17 848 c 2,12,-1
 17 935 l 2,13,14
 17 960 17 960 60.5 960 c 128,-1,15
 104 960 104 960 104 935 c 2,8,-1
304 935 m 2,16,-1
 304 848 l 2,17,18
 304 823 304 823 260.5 823 c 128,-1,19
 217 823 217 823 217 848 c 2,20,-1
 217 935 l 2,21,22
 217 960 217 960 260.5 960 c 128,-1,23
 304 960 304 960 304 935 c 2,16,-1
EndSplineSet
EndChar

StartChar: Eth
Encoding: 208 208 143
Width: 683
GlyphClass: 2
Flags: W
LayerCount: 2
Fore
SplineSet
70 404 m 2,0,-1
 110 404 l 1,1,-1
 110 665 l 2,2,3
 110 709 110 709 120.5 724.5 c 128,-1,4
 131 740 131 740 170 740 c 2,5,-1
 378 740 l 2,6,7
 478 740 478 740 525.5 704 c 128,-1,8
 573 668 573 668 573 582 c 2,9,-1
 573 158 l 2,10,11
 573 72 573 72 525.5 36 c 128,-1,12
 478 0 478 0 378 0 c 2,13,-1
 170 0 l 2,14,15
 131 0 131 0 120.5 15.5 c 128,-1,16
 110 31 110 31 110 75 c 2,17,-1
 110 334 l 1,18,-1
 70 334 l 2,19,20
 50 334 50 334 50 369 c 128,-1,21
 50 404 50 404 70 404 c 2,0,-1
190 70 m 1,22,-1
 378 70 l 2,23,24
 442 70 442 70 467.5 87 c 128,-1,25
 493 104 493 104 493 148 c 2,26,-1
 493 592 l 2,27,28
 493 636 493 636 467.5 653 c 128,-1,29
 442 670 442 670 378 670 c 2,30,-1
 190 670 l 1,31,-1
 190 404 l 1,32,-1
 395 404 l 2,33,34
 415 404 415 404 415 369 c 128,-1,35
 415 334 415 334 395 334 c 2,36,-1
 190 334 l 1,37,-1
 190 70 l 1,22,-1
EndSplineSet
EndChar

StartChar: Ntilde
Encoding: 209 209 144
Width: 713
GlyphClass: 2
Flags: W
LayerCount: 2
Fore
SplineSet
200 670 m 2,0,-1
 190 670 l 1,1,-1
 190 18 l 2,2,3
 190 -5 190 -5 150 -5 c 128,-1,4
 110 -5 110 -5 110 18 c 2,5,-1
 110 665 l 2,6,7
 110 709 110 709 120.5 724.5 c 128,-1,8
 131 740 131 740 170 740 c 2,9,-1
 192 740 l 2,10,11
 262 740 262 740 286 724 c 128,-1,12
 310 708 310 708 326 644 c 2,13,-1
 456 119 l 2,14,15
 465 83 465 83 473 74 c 128,-1,16
 481 65 481 65 513 65 c 2,17,-1
 523 65 l 1,18,-1
 523 717 l 2,19,20
 523 740 523 740 563 740 c 128,-1,21
 603 740 603 740 603 717 c 2,22,-1
 603 70 l 2,23,24
 603 26 603 26 592.5 10.5 c 128,-1,25
 582 -5 582 -5 543 -5 c 2,26,-1
 521 -5 l 2,27,28
 451 -5 451 -5 427 11 c 128,-1,29
 403 27 403 27 387 91 c 2,30,-1
 257 616 l 2,31,32
 248 652 248 652 240 661 c 128,-1,33
 232 670 232 670 200 670 c 2,0,-1
286 871 m 1,34,-1
 281 872 l 1,35,36
 268 872 268 872 268 847 c 0,37,38
 268 827 268 827 233 827 c 128,-1,39
 198 827 198 827 198 843 c 0,40,41
 198 898 198 898 216 925 c 128,-1,42
 234 952 234 952 263 952 c 0,43,44
 270 952 270 952 286 948 c 2,45,-1
 427 909 l 2,46,47
 429 908 429 908 433 908 c 0,48,49
 445 908 445 908 445 933 c 0,50,51
 445 953 445 953 480 953 c 128,-1,52
 515 953 515 953 515 937 c 0,53,54
 515 883 515 883 497 856 c 128,-1,55
 479 829 479 829 449 829 c 0,56,57
 439 829 439 829 427 832 c 2,58,-1
 286 871 l 1,34,-1
EndSplineSet
EndChar

StartChar: Ograve
Encoding: 210 210 145
Width: 663
GlyphClass: 2
Flags: W
LayerCount: 2
Fore
SplineSet
563 597 m 2,0,-1
 563 143 l 2,1,2
 563 60 563 60 498.5 22.5 c 128,-1,3
 434 -15 434 -15 328 -15 c 0,4,5
 100 -15 100 -15 100 143 c 2,6,-1
 100 597 l 2,7,8
 100 680 100 680 164.5 717.5 c 128,-1,9
 229 755 229 755 335 755 c 0,10,11
 563 755 563 755 563 597 c 2,0,-1
180 607 m 2,12,-1
 180 133 l 2,13,14
 180 55 180 55 331.5 55 c 128,-1,15
 483 55 483 55 483 133 c 2,16,-1
 483 607 l 2,17,18
 483 685 483 685 331.5 685 c 128,-1,19
 180 685 180 685 180 607 c 2,12,-1
417 807 m 1,20,-1
 225 898 l 2,21,22
 214 904 214 904 214 920.5 c 128,-1,23
 214 937 214 937 230 961.5 c 128,-1,24
 246 986 246 986 257 986 c 128,-1,25
 268 986 268 986 273 982 c 2,26,-1
 442 866 l 2,27,28
 449 860 449 860 449 850.5 c 128,-1,29
 449 841 449 841 437.5 824 c 128,-1,30
 426 807 426 807 417 807 c 1,20,-1
EndSplineSet
EndChar

StartChar: Oacute
Encoding: 211 211 146
Width: 663
GlyphClass: 2
Flags: W
LayerCount: 2
Fore
SplineSet
563 597 m 2,0,-1
 563 143 l 2,1,2
 563 60 563 60 498.5 22.5 c 128,-1,3
 434 -15 434 -15 328 -15 c 0,4,5
 100 -15 100 -15 100 143 c 2,6,-1
 100 597 l 2,7,8
 100 680 100 680 164.5 717.5 c 128,-1,9
 229 755 229 755 335 755 c 0,10,11
 563 755 563 755 563 597 c 2,0,-1
180 607 m 2,12,-1
 180 133 l 2,13,14
 180 55 180 55 331.5 55 c 128,-1,15
 483 55 483 55 483 133 c 2,16,-1
 483 607 l 2,17,18
 483 685 483 685 331.5 685 c 128,-1,19
 180 685 180 685 180 607 c 2,12,-1
253 810 m 1,20,-1
 246 807 l 1,21,22
 237 807 237 807 225.5 824 c 128,-1,23
 214 841 214 841 214 850.5 c 128,-1,24
 214 860 214 860 221 866 c 2,25,-1
 390 982 l 2,26,27
 395 986 395 986 406 986 c 128,-1,28
 417 986 417 986 433 961.5 c 128,-1,29
 449 937 449 937 449 920.5 c 128,-1,30
 449 904 449 904 438 898 c 2,31,-1
 253 810 l 1,20,-1
EndSplineSet
EndChar

StartChar: Ocircumflex
Encoding: 212 212 147
Width: 663
GlyphClass: 2
Flags: W
LayerCount: 2
Fore
SplineSet
563 597 m 2,0,-1
 563 143 l 2,1,2
 563 60 563 60 498.5 22.5 c 128,-1,3
 434 -15 434 -15 328 -15 c 0,4,5
 100 -15 100 -15 100 143 c 2,6,-1
 100 597 l 2,7,8
 100 680 100 680 164.5 717.5 c 128,-1,9
 229 755 229 755 335 755 c 0,10,11
 563 755 563 755 563 597 c 2,0,-1
180 607 m 2,12,-1
 180 133 l 2,13,14
 180 55 180 55 331.5 55 c 128,-1,15
 483 55 483 55 483 133 c 2,16,-1
 483 607 l 2,17,18
 483 685 483 685 331.5 685 c 128,-1,19
 180 685 180 685 180 607 c 2,12,-1
326 986 m 2,20,-1
 337 986 l 2,21,22
 342 986 342 986 346 982 c 2,23,-1
 466 866 l 2,24,25
 473 859 473 859 473 848.5 c 128,-1,26
 473 838 473 838 462 822.5 c 128,-1,27
 451 807 451 807 444.5 807 c 128,-1,28
 438 807 438 807 434 810 c 2,29,-1
 331 886 l 1,30,-1
 228 810 l 2,31,32
 224 807 224 807 217.5 807 c 128,-1,33
 211 807 211 807 200 822.5 c 128,-1,34
 189 838 189 838 189 848.5 c 128,-1,35
 189 859 189 859 196 866 c 2,36,-1
 316 982 l 2,37,38
 320 986 320 986 326 986 c 2,20,-1
EndSplineSet
EndChar

StartChar: Otilde
Encoding: 213 213 148
Width: 663
GlyphClass: 2
Flags: W
LayerCount: 2
Fore
SplineSet
563 597 m 2,0,-1
 563 143 l 2,1,2
 563 60 563 60 498.5 22.5 c 128,-1,3
 434 -15 434 -15 328 -15 c 0,4,5
 100 -15 100 -15 100 143 c 2,6,-1
 100 597 l 2,7,8
 100 680 100 680 164.5 717.5 c 128,-1,9
 229 755 229 755 335 755 c 0,10,11
 563 755 563 755 563 597 c 2,0,-1
180 607 m 2,12,-1
 180 133 l 2,13,14
 180 55 180 55 331.5 55 c 128,-1,15
 483 55 483 55 483 133 c 2,16,-1
 483 607 l 2,17,18
 483 685 483 685 331.5 685 c 128,-1,19
 180 685 180 685 180 607 c 2,12,-1
261 871 m 1,20,-1
 256 872 l 1,21,22
 243 872 243 872 243 847 c 0,23,24
 243 827 243 827 208 827 c 128,-1,25
 173 827 173 827 173 843 c 0,26,27
 173 898 173 898 191 925 c 128,-1,28
 209 952 209 952 238 952 c 0,29,30
 245 952 245 952 261 948 c 2,31,-1
 402 909 l 2,32,33
 404 908 404 908 408 908 c 0,34,35
 420 908 420 908 420 933 c 0,36,37
 420 953 420 953 455 953 c 128,-1,38
 490 953 490 953 490 937 c 0,39,40
 490 883 490 883 472 856 c 128,-1,41
 454 829 454 829 424 829 c 0,42,43
 414 829 414 829 402 832 c 2,44,-1
 261 871 l 1,20,-1
EndSplineSet
EndChar

StartChar: Odieresis
Encoding: 214 214 149
Width: 663
GlyphClass: 2
Flags: W
LayerCount: 2
Fore
SplineSet
563 597 m 2,0,-1
 563 143 l 2,1,2
 563 60 563 60 498.5 22.5 c 128,-1,3
 434 -15 434 -15 328 -15 c 0,4,5
 100 -15 100 -15 100 143 c 2,6,-1
 100 597 l 2,7,8
 100 680 100 680 164.5 717.5 c 128,-1,9
 229 755 229 755 335 755 c 0,10,11
 563 755 563 755 563 597 c 2,0,-1
180 607 m 2,12,-1
 180 133 l 2,13,14
 180 55 180 55 331.5 55 c 128,-1,15
 483 55 483 55 483 133 c 2,16,-1
 483 607 l 2,17,18
 483 685 483 685 331.5 685 c 128,-1,19
 180 685 180 685 180 607 c 2,12,-1
275 935 m 2,20,-1
 275 848 l 2,21,22
 275 823 275 823 231.5 823 c 128,-1,23
 188 823 188 823 188 848 c 2,24,-1
 188 935 l 2,25,26
 188 960 188 960 231.5 960 c 128,-1,27
 275 960 275 960 275 935 c 2,20,-1
475 935 m 2,28,-1
 475 848 l 2,29,30
 475 823 475 823 431.5 823 c 128,-1,31
 388 823 388 823 388 848 c 2,32,-1
 388 935 l 2,33,34
 388 960 388 960 431.5 960 c 128,-1,35
 475 960 475 960 475 935 c 2,28,-1
EndSplineSet
EndChar

StartChar: multiply
Encoding: 215 215 150
Width: 600
GlyphClass: 2
Flags: W
LayerCount: 2
Fore
SplineSet
159 180 m 2,0,1
 154 175 154 175 144.5 175 c 128,-1,2
 135 175 135 175 119.5 191 c 128,-1,3
 104 207 104 207 104 216 c 128,-1,4
 104 225 104 225 109 230 c 2,5,-1
 250 371 l 1,6,-1
 109 512 l 2,7,8
 104 517 104 517 104 526.5 c 128,-1,9
 104 536 104 536 120.5 551.5 c 128,-1,10
 137 567 137 567 145.5 567 c 128,-1,11
 154 567 154 567 159 562 c 2,12,-1
 300 421 l 1,13,-1
 441 562 l 2,14,15
 446 567 446 567 455.5 567 c 128,-1,16
 465 567 465 567 480.5 550.5 c 128,-1,17
 496 534 496 534 496 525.5 c 128,-1,18
 496 517 496 517 491 512 c 2,19,-1
 350 371 l 1,20,-1
 491 230 l 2,21,22
 496 225 496 225 496 215.5 c 128,-1,23
 496 206 496 206 480 190.5 c 128,-1,24
 464 175 464 175 455 175 c 128,-1,25
 446 175 446 175 441 180 c 2,26,-1
 300 321 l 1,27,-1
 159 180 l 2,0,1
EndSplineSet
EndChar

StartChar: Oslash
Encoding: 216 216 151
Width: 663
GlyphClass: 2
Flags: W
LayerCount: 2
Fore
SplineSet
563 597 m 2,0,-1
 563 143 l 2,1,2
 563 60 563 60 498.5 22.5 c 128,-1,3
 434 -15 434 -15 328 -15 c 0,4,5
 305 -15 305 -15 265 -11 c 1,6,-1
 246 -82 l 2,7,8
 239 -105 239 -105 206 -105 c 128,-1,9
 173 -105 173 -105 173 -88 c 0,10,11
 173 -86 173 -86 177 -71 c 2,12,-1
 197 4 l 1,13,14
 100 41 100 41 100 143 c 2,15,-1
 100 597 l 2,16,17
 100 680 100 680 164.5 717.5 c 128,-1,18
 229 755 229 755 335 755 c 0,19,20
 358 755 358 755 398 751 c 1,21,-1
 417 822 l 2,22,23
 424 845 424 845 457 845 c 128,-1,24
 490 845 490 845 490 828 c 0,25,26
 490 826 490 826 486 811 c 2,27,-1
 466 735 l 1,28,29
 563 699 563 699 563 597 c 2,0,-1
180 607 m 2,30,-1
 180 133 l 2,31,32
 180 94 180 94 216 75 c 1,33,-1
 379 683 l 1,34,35
 351 685 351 685 335 685 c 0,36,37
 180 685 180 685 180 607 c 2,30,-1
483 607 m 2,38,39
 483 645 483 645 447 665 c 1,40,-1
 283 57 l 1,41,42
 297 55 297 55 328 55 c 0,43,44
 483 55 483 55 483 133 c 2,45,-1
 483 607 l 2,38,39
EndSplineSet
EndChar

StartChar: Ugrave
Encoding: 217 217 152
Width: 683
GlyphClass: 2
Flags: W
LayerCount: 2
Fore
SplineSet
190 133 m 2,0,1
 190 55 190 55 341.5 55 c 128,-1,2
 493 55 493 55 493 133 c 2,3,-1
 493 722 l 2,4,5
 493 745 493 745 533 745 c 128,-1,6
 573 745 573 745 573 722 c 2,7,-1
 573 143 l 2,8,9
 573 60 573 60 508.5 22.5 c 128,-1,10
 444 -15 444 -15 338 -15 c 0,11,12
 110 -15 110 -15 110 143 c 2,13,-1
 110 722 l 2,14,15
 110 745 110 745 149.5 745 c 128,-1,16
 189 745 189 745 189 722 c 2,17,-1
 190 133 l 2,0,1
427 807 m 1,18,-1
 235 898 l 2,19,20
 224 904 224 904 224 920.5 c 128,-1,21
 224 937 224 937 240 961.5 c 128,-1,22
 256 986 256 986 267 986 c 128,-1,23
 278 986 278 986 283 982 c 2,24,-1
 452 866 l 2,25,26
 459 860 459 860 459 850.5 c 128,-1,27
 459 841 459 841 447.5 824 c 128,-1,28
 436 807 436 807 427 807 c 1,18,-1
EndSplineSet
EndChar

StartChar: Uacute
Encoding: 218 218 153
Width: 683
GlyphClass: 2
Flags: W
LayerCount: 2
Fore
SplineSet
190 133 m 2,0,1
 190 55 190 55 341.5 55 c 128,-1,2
 493 55 493 55 493 133 c 2,3,-1
 493 722 l 2,4,5
 493 745 493 745 533 745 c 128,-1,6
 573 745 573 745 573 722 c 2,7,-1
 573 143 l 2,8,9
 573 60 573 60 508.5 22.5 c 128,-1,10
 444 -15 444 -15 338 -15 c 0,11,12
 110 -15 110 -15 110 143 c 2,13,-1
 110 722 l 2,14,15
 110 745 110 745 149.5 745 c 128,-1,16
 189 745 189 745 189 722 c 2,17,-1
 190 133 l 2,0,1
263 810 m 1,18,-1
 256 807 l 1,19,20
 247 807 247 807 235.5 824 c 128,-1,21
 224 841 224 841 224 850.5 c 128,-1,22
 224 860 224 860 231 866 c 2,23,-1
 400 982 l 2,24,25
 405 986 405 986 416 986 c 128,-1,26
 427 986 427 986 443 961.5 c 128,-1,27
 459 937 459 937 459 920.5 c 128,-1,28
 459 904 459 904 448 898 c 2,29,-1
 263 810 l 1,18,-1
EndSplineSet
EndChar

StartChar: Ucircumflex
Encoding: 219 219 154
Width: 683
GlyphClass: 2
Flags: W
LayerCount: 2
Fore
SplineSet
190 133 m 2,0,1
 190 55 190 55 341.5 55 c 128,-1,2
 493 55 493 55 493 133 c 2,3,-1
 493 722 l 2,4,5
 493 745 493 745 533 745 c 128,-1,6
 573 745 573 745 573 722 c 2,7,-1
 573 143 l 2,8,9
 573 60 573 60 508.5 22.5 c 128,-1,10
 444 -15 444 -15 338 -15 c 0,11,12
 110 -15 110 -15 110 143 c 2,13,-1
 110 722 l 2,14,15
 110 745 110 745 149.5 745 c 128,-1,16
 189 745 189 745 189 722 c 2,17,-1
 190 133 l 2,0,1
336 986 m 2,18,-1
 347 986 l 2,19,20
 352 986 352 986 356 982 c 2,21,-1
 476 866 l 2,22,23
 483 859 483 859 483 848.5 c 128,-1,24
 483 838 483 838 472 822.5 c 128,-1,25
 461 807 461 807 454.5 807 c 128,-1,26
 448 807 448 807 444 810 c 2,27,-1
 341 886 l 1,28,-1
 238 810 l 2,29,30
 233 807 233 807 231 807 c 0,31,32
 221 807 221 807 210 822.5 c 128,-1,33
 199 838 199 838 199 848.5 c 128,-1,34
 199 859 199 859 206 866 c 2,35,-1
 326 982 l 2,36,37
 330 986 330 986 336 986 c 2,18,-1
EndSplineSet
EndChar

StartChar: Udieresis
Encoding: 220 220 155
Width: 683
GlyphClass: 2
Flags: W
LayerCount: 2
Fore
SplineSet
190 133 m 2,0,1
 190 55 190 55 341.5 55 c 128,-1,2
 493 55 493 55 493 133 c 2,3,-1
 493 722 l 2,4,5
 493 745 493 745 533 745 c 128,-1,6
 573 745 573 745 573 722 c 2,7,-1
 573 143 l 2,8,9
 573 60 573 60 508.5 22.5 c 128,-1,10
 444 -15 444 -15 338 -15 c 0,11,12
 110 -15 110 -15 110 143 c 2,13,-1
 110 722 l 2,14,15
 110 745 110 745 149.5 745 c 128,-1,16
 189 745 189 745 189 722 c 2,17,-1
 190 133 l 2,0,1
285 935 m 2,18,-1
 285 848 l 2,19,20
 285 823 285 823 241.5 823 c 128,-1,21
 198 823 198 823 198 848 c 2,22,-1
 198 935 l 2,23,24
 198 960 198 960 241.5 960 c 128,-1,25
 285 960 285 960 285 935 c 2,18,-1
485 935 m 2,26,-1
 485 848 l 2,27,28
 485 823 485 823 441.5 823 c 128,-1,29
 398 823 398 823 398 848 c 2,30,-1
 398 935 l 2,31,32
 398 960 398 960 441.5 960 c 128,-1,33
 485 960 485 960 485 935 c 2,26,-1
EndSplineSet
EndChar

StartChar: Yacute
Encoding: 221 221 156
Width: 580
GlyphClass: 2
Flags: W
LayerCount: 2
Fore
SplineSet
330 18 m 2,0,1
 330 -5 330 -5 290 -5 c 128,-1,2
 250 -5 250 -5 250 18 c 2,3,-1
 250 247 l 1,4,5
 199 255 199 255 174 287 c 128,-1,6
 149 319 149 319 133 382 c 2,7,-1
 55 690 l 2,8,9
 46 722 46 722 46 727 c 0,10,11
 46 745 46 745 83.5 745 c 128,-1,12
 121 745 121 745 126 722 c 2,13,-1
 211 393 l 2,14,15
 222 351 222 351 237.5 333 c 128,-1,16
 253 315 253 315 290 315 c 128,-1,17
 327 315 327 315 342.5 333 c 128,-1,18
 358 351 358 351 369 393 c 2,19,-1
 454 722 l 2,20,21
 459 745 459 745 496.5 745 c 128,-1,22
 534 745 534 745 534 727 c 0,23,24
 534 722 534 722 525 690 c 2,25,-1
 447 382 l 2,26,27
 431 319 431 319 406 287 c 128,-1,28
 381 255 381 255 330 247 c 1,29,-1
 330 18 l 2,0,1
241 810 m 1,30,-1
 234 807 l 1,31,32
 225 807 225 807 213.5 824 c 128,-1,33
 202 841 202 841 202 850.5 c 128,-1,34
 202 860 202 860 209 866 c 2,35,-1
 378 982 l 2,36,37
 383 986 383 986 394 986 c 128,-1,38
 405 986 405 986 421 961.5 c 128,-1,39
 437 937 437 937 437 920.5 c 128,-1,40
 437 904 437 904 426 898 c 2,41,-1
 241 810 l 1,30,-1
EndSplineSet
EndChar

StartChar: Thorn
Encoding: 222 222 157
Width: 613
GlyphClass: 2
Flags: W
LayerCount: 2
Fore
SplineSet
240 210 m 2,0,-1
 327 210 l 2,1,2
 463 210 463 210 463 288 c 2,3,-1
 463 467 l 2,4,5
 463 545 463 545 326.5 545 c 128,-1,6
 190 545 190 545 190 471 c 2,7,-1
 190 18 l 2,8,9
 190 -5 190 -5 150 -5 c 128,-1,10
 110 -5 110 -5 110 18 c 2,11,-1
 110 732 l 2,12,13
 110 755 110 755 150 755 c 128,-1,14
 190 755 190 755 190 732 c 2,15,-1
 190 577 l 1,16,17
 231 615 231 615 327.5 615 c 128,-1,18
 424 615 424 615 483.5 577.5 c 128,-1,19
 543 540 543 540 543 457 c 2,20,-1
 543 298 l 2,21,22
 543 215 543 215 484 177.5 c 128,-1,23
 425 140 425 140 327 140 c 2,24,-1
 240 140 l 2,25,26
 220 140 220 140 220 175 c 128,-1,27
 220 210 220 210 240 210 c 2,0,-1
EndSplineSet
EndChar

StartChar: germandbls
Encoding: 223 223 158
Width: 687
GlyphClass: 2
Flags: W
LayerCount: 2
Fore
SplineSet
607 256 m 2,0,-1
 607 143 l 2,1,2
 607 61 607 61 556 23 c 128,-1,3
 505 -15 505 -15 427 -15 c 128,-1,4
 349 -15 349 -15 299.5 23 c 128,-1,5
 250 61 250 61 250 143 c 2,6,-1
 250 187 l 2,7,8
 250 210 250 210 290 210 c 128,-1,9
 330 210 330 210 330 187 c 2,10,-1
 330 133 l 2,11,12
 330 92 330 92 357.5 73.5 c 128,-1,13
 385 55 385 55 427 55 c 128,-1,14
 469 55 469 55 498 74 c 128,-1,15
 527 93 527 93 527 133 c 2,16,-1
 527 256 l 2,17,18
 527 302 527 302 511.5 318 c 128,-1,19
 496 334 496 334 441 334 c 2,20,-1
 329 334 l 2,21,22
 309 334 309 334 309 369 c 128,-1,23
 309 404 309 404 329 404 c 2,24,-1
 360 404 l 1,25,-1
 407 452 l 2,26,27
 463 509 463 509 463 562 c 2,28,-1
 463 574 l 2,29,30
 463 625 463 625 445.5 647.5 c 128,-1,31
 428 670 428 670 385 670 c 2,32,-1
 268 670 l 2,33,34
 225 670 225 670 207.5 646 c 128,-1,35
 190 622 190 622 190 564 c 2,36,-1
 190 18 l 2,37,38
 190 -5 190 -5 150 -5 c 128,-1,39
 110 -5 110 -5 110 18 c 2,40,-1
 110 564 l 2,41,42
 110 657 110 657 146 698.5 c 128,-1,43
 182 740 182 740 268 740 c 2,44,-1
 385 740 l 2,45,46
 471 740 471 740 507 700 c 128,-1,47
 543 660 543 660 543 574 c 2,48,-1
 543 557 l 2,49,50
 543 528 543 528 525.5 489.5 c 128,-1,51
 508 451 508 451 479 421 c 2,52,-1
 462 403 l 1,53,54
 540 400 540 400 573.5 368 c 128,-1,55
 607 336 607 336 607 256 c 2,0,-1
EndSplineSet
EndChar

StartChar: agrave
Encoding: 224 224 159
Width: 603
GlyphClass: 2
Flags: W
LayerCount: 2
Fore
SplineSet
363 0 m 2,0,-1
 246 0 l 2,1,2
 158 0 158 0 119 36 c 128,-1,3
 80 72 80 72 80 158 c 2,4,-1
 80 166 l 2,5,6
 80 251 80 251 115 283 c 128,-1,7
 150 315 150 315 240 324 c 2,8,-1
 413 341 l 1,9,-1
 413 452 l 2,10,11
 413 530 413 530 277 530 c 2,12,-1
 140 530 l 2,13,14
 120 530 120 530 120 565 c 128,-1,15
 120 600 120 600 140 600 c 2,16,-1
 277 600 l 2,17,18
 375 600 375 600 434 562.5 c 128,-1,19
 493 525 493 525 493 442 c 2,20,-1
 493 147 l 2,21,22
 493 82 493 82 516 44 c 0,23,24
 523 32 523 32 523 29 c 0,25,26
 523 17 523 17 504 3.5 c 128,-1,27
 485 -10 485 -10 472 -10 c 0,28,29
 450 -10 450 -10 431.5 31.5 c 128,-1,30
 413 73 413 73 413 137 c 2,31,-1
 413 271 l 1,32,-1
 246 254 l 2,33,34
 192 248 192 248 176 230 c 128,-1,35
 160 212 160 212 160 166 c 2,36,-1
 160 158 l 2,37,38
 160 110 160 110 176.5 90 c 128,-1,39
 193 70 193 70 246 70 c 2,40,-1
 363 70 l 2,41,42
 383 70 383 70 383 35 c 128,-1,43
 383 0 383 0 363 0 c 2,0,-1
392 667 m 1,44,-1
 200 758 l 2,45,46
 189 764 189 764 189 780.5 c 128,-1,47
 189 797 189 797 205 821.5 c 128,-1,48
 221 846 221 846 232 846 c 128,-1,49
 243 846 243 846 248 842 c 2,50,-1
 417 726 l 2,51,52
 424 720 424 720 424 710.5 c 128,-1,53
 424 701 424 701 412.5 684 c 128,-1,54
 401 667 401 667 392 667 c 1,44,-1
EndSplineSet
EndChar

StartChar: aacute
Encoding: 225 225 160
Width: 603
GlyphClass: 2
Flags: W
LayerCount: 2
Fore
SplineSet
363 0 m 2,0,-1
 246 0 l 2,1,2
 158 0 158 0 119 36 c 128,-1,3
 80 72 80 72 80 158 c 2,4,-1
 80 166 l 2,5,6
 80 251 80 251 115 283 c 128,-1,7
 150 315 150 315 240 324 c 2,8,-1
 413 341 l 1,9,-1
 413 452 l 2,10,11
 413 530 413 530 277 530 c 2,12,-1
 140 530 l 2,13,14
 120 530 120 530 120 565 c 128,-1,15
 120 600 120 600 140 600 c 2,16,-1
 277 600 l 2,17,18
 375 600 375 600 434 562.5 c 128,-1,19
 493 525 493 525 493 442 c 2,20,-1
 493 147 l 2,21,22
 493 82 493 82 516 44 c 0,23,24
 523 32 523 32 523 29 c 0,25,26
 523 17 523 17 504 3.5 c 128,-1,27
 485 -10 485 -10 472 -10 c 0,28,29
 450 -10 450 -10 431.5 31.5 c 128,-1,30
 413 73 413 73 413 137 c 2,31,-1
 413 271 l 1,32,-1
 246 254 l 2,33,34
 192 248 192 248 176 230 c 128,-1,35
 160 212 160 212 160 166 c 2,36,-1
 160 158 l 2,37,38
 160 110 160 110 176.5 90 c 128,-1,39
 193 70 193 70 246 70 c 2,40,-1
 363 70 l 2,41,42
 383 70 383 70 383 35 c 128,-1,43
 383 0 383 0 363 0 c 2,0,-1
250 670 m 1,44,-1
 243 667 l 1,45,46
 234 667 234 667 222.5 684 c 128,-1,47
 211 701 211 701 211 710.5 c 128,-1,48
 211 720 211 720 218 726 c 2,49,-1
 387 842 l 2,50,51
 392 846 392 846 403 846 c 128,-1,52
 414 846 414 846 430 821.5 c 128,-1,53
 446 797 446 797 446 780.5 c 128,-1,54
 446 764 446 764 435 758 c 2,55,-1
 250 670 l 1,44,-1
EndSplineSet
EndChar

StartChar: acircumflex
Encoding: 226 226 161
Width: 603
GlyphClass: 2
Flags: W
LayerCount: 2
Fore
SplineSet
363 0 m 2,0,-1
 246 0 l 2,1,2
 158 0 158 0 119 36 c 128,-1,3
 80 72 80 72 80 158 c 2,4,-1
 80 166 l 2,5,6
 80 251 80 251 115 283 c 128,-1,7
 150 315 150 315 240 324 c 2,8,-1
 413 341 l 1,9,-1
 413 452 l 2,10,11
 413 530 413 530 277 530 c 2,12,-1
 140 530 l 2,13,14
 120 530 120 530 120 565 c 128,-1,15
 120 600 120 600 140 600 c 2,16,-1
 277 600 l 2,17,18
 375 600 375 600 434 562.5 c 128,-1,19
 493 525 493 525 493 442 c 2,20,-1
 493 147 l 2,21,22
 493 82 493 82 516 44 c 0,23,24
 523 32 523 32 523 29 c 0,25,26
 523 17 523 17 504 3.5 c 128,-1,27
 485 -10 485 -10 472 -10 c 0,28,29
 450 -10 450 -10 431.5 31.5 c 128,-1,30
 413 73 413 73 413 137 c 2,31,-1
 413 271 l 1,32,-1
 246 254 l 2,33,34
 192 248 192 248 176 230 c 128,-1,35
 160 212 160 212 160 166 c 2,36,-1
 160 158 l 2,37,38
 160 110 160 110 176.5 90 c 128,-1,39
 193 70 193 70 246 70 c 2,40,-1
 363 70 l 2,41,42
 383 70 383 70 383 35 c 128,-1,43
 383 0 383 0 363 0 c 2,0,-1
304 846 m 2,44,-1
 315 846 l 2,45,46
 320 846 320 846 324 842 c 2,47,-1
 444 726 l 2,48,49
 451 719 451 719 451 708.5 c 128,-1,50
 451 698 451 698 440 682.5 c 128,-1,51
 429 667 429 667 422.5 667 c 128,-1,52
 416 667 416 667 412 670 c 2,53,-1
 309 746 l 1,54,-1
 206 670 l 2,55,56
 201 667 201 667 199 667 c 0,57,58
 189 667 189 667 178 682.5 c 128,-1,59
 167 698 167 698 167 708.5 c 128,-1,60
 167 719 167 719 174 726 c 2,61,-1
 294 842 l 2,62,63
 298 846 298 846 304 846 c 2,44,-1
EndSplineSet
EndChar

StartChar: atilde
Encoding: 227 227 162
Width: 603
GlyphClass: 2
Flags: W
LayerCount: 2
Fore
SplineSet
363 0 m 2,0,-1
 246 0 l 2,1,2
 158 0 158 0 119 36 c 128,-1,3
 80 72 80 72 80 158 c 2,4,-1
 80 166 l 2,5,6
 80 251 80 251 115 283 c 128,-1,7
 150 315 150 315 240 324 c 2,8,-1
 413 341 l 1,9,-1
 413 452 l 2,10,11
 413 530 413 530 277 530 c 2,12,-1
 140 530 l 2,13,14
 120 530 120 530 120 565 c 128,-1,15
 120 600 120 600 140 600 c 2,16,-1
 277 600 l 2,17,18
 375 600 375 600 434 562.5 c 128,-1,19
 493 525 493 525 493 442 c 2,20,-1
 493 147 l 2,21,22
 493 82 493 82 516 44 c 0,23,24
 523 32 523 32 523 29 c 0,25,26
 523 17 523 17 504 3.5 c 128,-1,27
 485 -10 485 -10 472 -10 c 0,28,29
 450 -10 450 -10 431.5 31.5 c 128,-1,30
 413 73 413 73 413 137 c 2,31,-1
 413 271 l 1,32,-1
 246 254 l 2,33,34
 192 248 192 248 176 230 c 128,-1,35
 160 212 160 212 160 166 c 2,36,-1
 160 158 l 2,37,38
 160 110 160 110 176.5 90 c 128,-1,39
 193 70 193 70 246 70 c 2,40,-1
 363 70 l 2,41,42
 383 70 383 70 383 35 c 128,-1,43
 383 0 383 0 363 0 c 2,0,-1
231 731 m 1,44,-1
 226 732 l 1,45,46
 213 732 213 732 213 707 c 0,47,48
 213 687 213 687 178 687 c 128,-1,49
 143 687 143 687 143 703 c 0,50,51
 143 758 143 758 161 785 c 128,-1,52
 179 812 179 812 208 812 c 0,53,54
 215 812 215 812 231 808 c 2,55,-1
 372 769 l 2,56,57
 374 768 374 768 378 768 c 0,58,59
 390 768 390 768 390 793 c 0,60,61
 390 813 390 813 425 813 c 128,-1,62
 460 813 460 813 460 797 c 0,63,64
 460 743 460 743 442 716 c 128,-1,65
 424 689 424 689 394 689 c 0,66,67
 384 689 384 689 372 692 c 2,68,-1
 231 731 l 1,44,-1
EndSplineSet
EndChar

StartChar: adieresis
Encoding: 228 228 163
Width: 603
GlyphClass: 2
Flags: W
LayerCount: 2
Fore
SplineSet
363 0 m 2,0,-1
 246 0 l 2,1,2
 158 0 158 0 119 36 c 128,-1,3
 80 72 80 72 80 158 c 2,4,-1
 80 166 l 2,5,6
 80 251 80 251 115 283 c 128,-1,7
 150 315 150 315 240 324 c 2,8,-1
 413 341 l 1,9,-1
 413 452 l 2,10,11
 413 530 413 530 277 530 c 2,12,-1
 140 530 l 2,13,14
 120 530 120 530 120 565 c 128,-1,15
 120 600 120 600 140 600 c 2,16,-1
 277 600 l 2,17,18
 375 600 375 600 434 562.5 c 128,-1,19
 493 525 493 525 493 442 c 2,20,-1
 493 147 l 2,21,22
 493 82 493 82 516 44 c 0,23,24
 523 32 523 32 523 29 c 0,25,26
 523 17 523 17 504 3.5 c 128,-1,27
 485 -10 485 -10 472 -10 c 0,28,29
 450 -10 450 -10 431.5 31.5 c 128,-1,30
 413 73 413 73 413 137 c 2,31,-1
 413 271 l 1,32,-1
 246 254 l 2,33,34
 192 248 192 248 176 230 c 128,-1,35
 160 212 160 212 160 166 c 2,36,-1
 160 158 l 2,37,38
 160 110 160 110 176.5 90 c 128,-1,39
 193 70 193 70 246 70 c 2,40,-1
 363 70 l 2,41,42
 383 70 383 70 383 35 c 128,-1,43
 383 0 383 0 363 0 c 2,0,-1
252 795 m 2,44,-1
 252 708 l 2,45,46
 252 683 252 683 208.5 683 c 128,-1,47
 165 683 165 683 165 708 c 2,48,-1
 165 795 l 2,49,50
 165 820 165 820 208.5 820 c 128,-1,51
 252 820 252 820 252 795 c 2,44,-1
452 795 m 2,52,-1
 452 708 l 2,53,54
 452 683 452 683 408.5 683 c 128,-1,55
 365 683 365 683 365 708 c 2,56,-1
 365 795 l 2,57,58
 365 820 365 820 408.5 820 c 128,-1,59
 452 820 452 820 452 795 c 2,52,-1
EndSplineSet
EndChar

StartChar: aring
Encoding: 229 229 164
Width: 603
GlyphClass: 2
Flags: W
LayerCount: 2
Fore
SplineSet
363 0 m 2,0,-1
 246 0 l 2,1,2
 158 0 158 0 119 36 c 128,-1,3
 80 72 80 72 80 158 c 2,4,-1
 80 166 l 2,5,6
 80 251 80 251 115 283 c 128,-1,7
 150 315 150 315 240 324 c 2,8,-1
 413 341 l 1,9,-1
 413 452 l 2,10,11
 413 530 413 530 277 530 c 2,12,-1
 140 530 l 2,13,14
 120 530 120 530 120 565 c 128,-1,15
 120 600 120 600 140 600 c 2,16,-1
 277 600 l 2,17,18
 375 600 375 600 434 562.5 c 128,-1,19
 493 525 493 525 493 442 c 2,20,-1
 493 147 l 2,21,22
 493 82 493 82 516 44 c 0,23,24
 523 32 523 32 523 29 c 0,25,26
 523 17 523 17 504 3.5 c 128,-1,27
 485 -10 485 -10 472 -10 c 0,28,29
 450 -10 450 -10 431.5 31.5 c 128,-1,30
 413 73 413 73 413 137 c 2,31,-1
 413 271 l 1,32,-1
 246 254 l 2,33,34
 192 248 192 248 176 230 c 128,-1,35
 160 212 160 212 160 166 c 2,36,-1
 160 158 l 2,37,38
 160 110 160 110 176.5 90 c 128,-1,39
 193 70 193 70 246 70 c 2,40,-1
 363 70 l 2,41,42
 383 70 383 70 383 35 c 128,-1,43
 383 0 383 0 363 0 c 2,0,-1
412 764 m 2,44,-1
 412 739 l 2,45,46
 412 647 412 647 300 647 c 0,47,48
 241 647 241 647 216 669.5 c 128,-1,49
 191 692 191 692 191 739 c 2,50,-1
 191 764 l 2,51,52
 191 856 191 856 303 856 c 0,53,54
 362 856 362 856 387 833.5 c 128,-1,55
 412 811 412 811 412 764 c 2,44,-1
253 773 m 2,56,-1
 253 729 l 2,57,58
 253 700 253 700 301.5 700 c 128,-1,59
 350 700 350 700 350 730 c 2,60,-1
 350 774 l 2,61,62
 350 803 350 803 301.5 803 c 128,-1,63
 253 803 253 803 253 773 c 2,56,-1
EndSplineSet
EndChar

StartChar: ae
Encoding: 230 230 165
Width: 951
GlyphClass: 2
Flags: W
LayerCount: 2
Fore
SplineSet
363 0 m 2,0,-1
 246 0 l 2,1,2
 158 0 158 0 119 36 c 128,-1,3
 80 72 80 72 80 158 c 2,4,-1
 80 166 l 2,5,6
 80 251 80 251 115 283 c 128,-1,7
 150 315 150 315 240 324 c 2,8,-1
 413 341 l 1,9,-1
 413 456 l 1,10,11
 409 530 409 530 277 530 c 2,12,-1
 140 530 l 2,13,14
 120 530 120 530 120 565 c 128,-1,15
 120 600 120 600 140 600 c 2,16,-1
 277 600 l 2,17,18
 388 600 388 600 444 554 c 1,19,20
 500 621 500 621 646 621 c 0,21,22
 747 621 747 621 799 585 c 128,-1,23
 851 549 851 549 851 465 c 2,24,-1
 851 454 l 2,25,26
 851 369 851 369 816 337 c 128,-1,27
 781 305 781 305 688 296 c 2,28,-1
 493 277 l 1,29,-1
 493 139 l 2,30,31
 493 61 493 61 623 61 c 0,32,33
 771 61 771 61 771 129 c 2,34,-1
 771 167 l 2,35,36
 771 190 771 190 811 190 c 128,-1,37
 851 190 851 190 851 167 c 2,38,-1
 851 139 l 2,39,40
 851 -9 851 -9 631 -9 c 0,41,42
 534 -9 534 -9 473.5 29 c 128,-1,43
 413 67 413 67 413 149 c 2,44,-1
 413 271 l 1,45,-1
 246 254 l 2,46,47
 192 248 192 248 176 230 c 128,-1,48
 160 212 160 212 160 166 c 2,49,-1
 160 158 l 2,50,51
 160 110 160 110 176.5 90 c 128,-1,52
 193 70 193 70 246 70 c 2,53,-1
 363 70 l 2,54,55
 383 70 383 70 383 35 c 128,-1,56
 383 0 383 0 363 0 c 2,0,-1
493 473 m 2,57,-1
 493 347 l 1,58,-1
 681 366 l 2,59,60
 738 372 738 372 754.5 390 c 128,-1,61
 771 408 771 408 771 454 c 2,62,-1
 771 473 l 2,63,64
 771 551 771 551 632 551 c 128,-1,65
 493 551 493 551 493 473 c 2,57,-1
EndSplineSet
EndChar

StartChar: ccedilla
Encoding: 231 231 166
Width: 596
GlyphClass: 2
Flags: W
LayerCount: 2
Fore
SplineSet
260 -97 m 2,0,-1
 260 -115 l 2,1,2
 260 -144 260 -144 308.5 -144 c 128,-1,3
 357 -144 357 -144 357 -114 c 2,4,-1
 357 -54 l 2,5,6
 357 -32 357 -32 348 -24 c 128,-1,7
 339 -16 339 -16 316 -15 c 1,8,-1
 308 -15 l 2,9,10
 214 -15 214 -15 157 22.5 c 128,-1,11
 100 60 100 60 100 143 c 2,12,-1
 100 457 l 2,13,14
 100 540 100 540 157 577.5 c 128,-1,15
 214 615 214 615 308.5 615 c 128,-1,16
 403 615 403 615 459.5 577.5 c 128,-1,17
 516 540 516 540 516 457 c 2,18,-1
 516 425 l 2,19,20
 516 402 516 402 476 402 c 128,-1,21
 436 402 436 402 436 425 c 2,22,-1
 436 467 l 2,23,24
 436 545 436 545 308 545 c 128,-1,25
 180 545 180 545 180 467 c 2,26,-1
 180 133 l 2,27,28
 180 55 180 55 308 55 c 128,-1,29
 436 55 436 55 436 133 c 2,30,-1
 436 175 l 2,31,32
 436 198 436 198 476 198 c 128,-1,33
 516 198 516 198 516 175 c 2,34,-1
 516 143 l 2,35,36
 516 32 516 32 407 -2 c 1,37,38
 424 -19 424 -19 424 -53 c 2,39,-1
 424 -110 l 2,40,41
 424 -153 424 -153 389.5 -177.5 c 128,-1,42
 355 -202 355 -202 307 -202 c 128,-1,43
 259 -202 259 -202 226 -178 c 128,-1,44
 193 -154 193 -154 193 -110 c 2,45,-1
 193 -97 l 2,46,47
 193 -76 193 -76 226.5 -76 c 128,-1,48
 260 -76 260 -76 260 -97 c 2,0,-1
EndSplineSet
EndChar

StartChar: egrave
Encoding: 232 232 167
Width: 638
GlyphClass: 2
Flags: W
LayerCount: 2
Fore
SplineSet
538 459 m 2,0,-1
 538 429 l 2,1,2
 538 344 538 344 503 312 c 128,-1,3
 468 280 468 280 375 271 c 2,4,-1
 180 252 l 1,5,-1
 180 133 l 2,6,7
 180 55 180 55 310 55 c 0,8,9
 458 55 458 55 458 123 c 2,10,-1
 458 161 l 2,11,12
 458 184 458 184 498 184 c 128,-1,13
 538 184 538 184 538 161 c 2,14,-1
 538 133 l 2,15,16
 538 -15 538 -15 318 -15 c 0,17,18
 221 -15 221 -15 160.5 23 c 128,-1,19
 100 61 100 61 100 143 c 2,20,-1
 100 457 l 2,21,22
 100 540 100 540 164 577.5 c 128,-1,23
 228 615 228 615 331 615 c 128,-1,24
 434 615 434 615 486 579 c 128,-1,25
 538 543 538 543 538 459 c 2,0,-1
180 467 m 2,26,-1
 180 322 l 1,27,-1
 368 341 l 2,28,29
 425 347 425 347 441.5 365 c 128,-1,30
 458 383 458 383 458 429 c 2,31,-1
 458 467 l 2,32,33
 458 545 458 545 319 545 c 128,-1,34
 180 545 180 545 180 467 c 2,26,-1
404 667 m 1,35,-1
 212 758 l 2,36,37
 201 764 201 764 201 780.5 c 128,-1,38
 201 797 201 797 217 821.5 c 128,-1,39
 233 846 233 846 244 846 c 128,-1,40
 255 846 255 846 260 842 c 2,41,-1
 429 726 l 2,42,43
 436 720 436 720 436 710.5 c 128,-1,44
 436 701 436 701 424.5 684 c 128,-1,45
 413 667 413 667 404 667 c 1,35,-1
EndSplineSet
EndChar

StartChar: eacute
Encoding: 233 233 168
Width: 638
GlyphClass: 2
Flags: W
LayerCount: 2
Fore
SplineSet
538 459 m 2,0,-1
 538 429 l 2,1,2
 538 344 538 344 503 312 c 128,-1,3
 468 280 468 280 375 271 c 2,4,-1
 180 252 l 1,5,-1
 180 133 l 2,6,7
 180 55 180 55 310 55 c 0,8,9
 458 55 458 55 458 123 c 2,10,-1
 458 161 l 2,11,12
 458 184 458 184 498 184 c 128,-1,13
 538 184 538 184 538 161 c 2,14,-1
 538 133 l 2,15,16
 538 -15 538 -15 318 -15 c 0,17,18
 221 -15 221 -15 160.5 23 c 128,-1,19
 100 61 100 61 100 143 c 2,20,-1
 100 457 l 2,21,22
 100 540 100 540 164 577.5 c 128,-1,23
 228 615 228 615 331 615 c 128,-1,24
 434 615 434 615 486 579 c 128,-1,25
 538 543 538 543 538 459 c 2,0,-1
180 467 m 2,26,-1
 180 322 l 1,27,-1
 368 341 l 2,28,29
 425 347 425 347 441.5 365 c 128,-1,30
 458 383 458 383 458 429 c 2,31,-1
 458 467 l 2,32,33
 458 545 458 545 319 545 c 128,-1,34
 180 545 180 545 180 467 c 2,26,-1
260 670 m 1,35,-1
 253 667 l 1,36,37
 244 667 244 667 232.5 684 c 128,-1,38
 221 701 221 701 221 710.5 c 128,-1,39
 221 720 221 720 228 726 c 2,40,-1
 397 842 l 2,41,42
 402 846 402 846 413 846 c 128,-1,43
 424 846 424 846 440 821.5 c 128,-1,44
 456 797 456 797 456 780.5 c 128,-1,45
 456 764 456 764 445 758 c 2,46,-1
 260 670 l 1,35,-1
EndSplineSet
EndChar

StartChar: ecircumflex
Encoding: 234 234 169
Width: 638
GlyphClass: 2
Flags: W
LayerCount: 2
Fore
SplineSet
538 459 m 2,0,-1
 538 429 l 2,1,2
 538 344 538 344 503 312 c 128,-1,3
 468 280 468 280 375 271 c 2,4,-1
 180 252 l 1,5,-1
 180 133 l 2,6,7
 180 55 180 55 310 55 c 0,8,9
 458 55 458 55 458 123 c 2,10,-1
 458 161 l 2,11,12
 458 184 458 184 498 184 c 128,-1,13
 538 184 538 184 538 161 c 2,14,-1
 538 133 l 2,15,16
 538 -15 538 -15 318 -15 c 0,17,18
 221 -15 221 -15 160.5 23 c 128,-1,19
 100 61 100 61 100 143 c 2,20,-1
 100 457 l 2,21,22
 100 540 100 540 164 577.5 c 128,-1,23
 228 615 228 615 331 615 c 128,-1,24
 434 615 434 615 486 579 c 128,-1,25
 538 543 538 543 538 459 c 2,0,-1
180 467 m 2,26,-1
 180 322 l 1,27,-1
 368 341 l 2,28,29
 425 347 425 347 441.5 365 c 128,-1,30
 458 383 458 383 458 429 c 2,31,-1
 458 467 l 2,32,33
 458 545 458 545 319 545 c 128,-1,34
 180 545 180 545 180 467 c 2,26,-1
314 846 m 2,35,-1
 325 846 l 2,36,37
 330 846 330 846 334 842 c 2,38,-1
 454 726 l 2,39,40
 461 719 461 719 461 708.5 c 128,-1,41
 461 698 461 698 450 682.5 c 128,-1,42
 439 667 439 667 432.5 667 c 128,-1,43
 426 667 426 667 422 670 c 2,44,-1
 319 746 l 1,45,-1
 216 670 l 2,46,47
 212 667 212 667 205.5 667 c 128,-1,48
 199 667 199 667 188 682.5 c 128,-1,49
 177 698 177 698 177 708.5 c 128,-1,50
 177 719 177 719 184 726 c 2,51,-1
 304 842 l 2,52,53
 308 846 308 846 314 846 c 2,35,-1
EndSplineSet
EndChar

StartChar: edieresis
Encoding: 235 235 170
Width: 638
GlyphClass: 2
Flags: W
LayerCount: 2
Fore
SplineSet
538 459 m 2,0,-1
 538 429 l 2,1,2
 538 344 538 344 503 312 c 128,-1,3
 468 280 468 280 375 271 c 2,4,-1
 180 252 l 1,5,-1
 180 133 l 2,6,7
 180 55 180 55 310 55 c 0,8,9
 458 55 458 55 458 123 c 2,10,-1
 458 161 l 2,11,12
 458 184 458 184 498 184 c 128,-1,13
 538 184 538 184 538 161 c 2,14,-1
 538 133 l 2,15,16
 538 -15 538 -15 318 -15 c 0,17,18
 221 -15 221 -15 160.5 23 c 128,-1,19
 100 61 100 61 100 143 c 2,20,-1
 100 457 l 2,21,22
 100 540 100 540 164 577.5 c 128,-1,23
 228 615 228 615 331 615 c 128,-1,24
 434 615 434 615 486 579 c 128,-1,25
 538 543 538 543 538 459 c 2,0,-1
180 467 m 2,26,-1
 180 322 l 1,27,-1
 368 341 l 2,28,29
 425 347 425 347 441.5 365 c 128,-1,30
 458 383 458 383 458 429 c 2,31,-1
 458 467 l 2,32,33
 458 545 458 545 319 545 c 128,-1,34
 180 545 180 545 180 467 c 2,26,-1
262 795 m 2,35,-1
 262 708 l 2,36,37
 262 683 262 683 218.5 683 c 128,-1,38
 175 683 175 683 175 708 c 2,39,-1
 175 795 l 2,40,41
 175 820 175 820 218.5 820 c 128,-1,42
 262 820 262 820 262 795 c 2,35,-1
462 795 m 2,43,-1
 462 708 l 2,44,45
 462 683 462 683 418.5 683 c 128,-1,46
 375 683 375 683 375 708 c 2,47,-1
 375 795 l 2,48,49
 375 820 375 820 418.5 820 c 128,-1,50
 462 820 462 820 462 795 c 2,43,-1
EndSplineSet
EndChar

StartChar: igrave
Encoding: 236 236 171
Width: 300
GlyphClass: 2
Flags: W
LayerCount: 2
Fore
SplineSet
190 577 m 2,0,-1
 190 117 l 2,1,2
 190 85 190 85 205 57.5 c 128,-1,3
 220 30 220 30 220 29 c 0,4,5
 220 17 220 17 201 3.5 c 128,-1,6
 182 -10 182 -10 169 -10 c 0,7,8
 148 -10 148 -10 129 26.5 c 128,-1,9
 110 63 110 63 110 107 c 2,10,-1
 110 577 l 2,11,12
 110 600 110 600 150 600 c 128,-1,13
 190 600 190 600 190 577 c 2,0,-1
236 667 m 1,14,-1
 44 758 l 2,15,16
 33 764 33 764 33 780.5 c 128,-1,17
 33 797 33 797 49 821.5 c 128,-1,18
 65 846 65 846 76 846 c 128,-1,19
 87 846 87 846 92 842 c 2,20,-1
 261 726 l 2,21,22
 268 720 268 720 268 710.5 c 128,-1,23
 268 701 268 701 256.5 684 c 128,-1,24
 245 667 245 667 236 667 c 1,14,-1
EndSplineSet
EndChar

StartChar: iacute
Encoding: 237 237 172
Width: 300
GlyphClass: 2
Flags: W
LayerCount: 2
Fore
SplineSet
190 577 m 2,0,-1
 190 117 l 2,1,2
 190 85 190 85 205 57.5 c 128,-1,3
 220 30 220 30 220 29 c 0,4,5
 220 17 220 17 201 3.5 c 128,-1,6
 182 -10 182 -10 169 -10 c 0,7,8
 148 -10 148 -10 129 26.5 c 128,-1,9
 110 63 110 63 110 107 c 2,10,-1
 110 577 l 2,11,12
 110 600 110 600 150 600 c 128,-1,13
 190 600 190 600 190 577 c 2,0,-1
72 670 m 1,14,-1
 65 667 l 1,15,16
 56 667 56 667 44.5 684 c 128,-1,17
 33 701 33 701 33 710.5 c 128,-1,18
 33 720 33 720 40 726 c 2,19,-1
 209 842 l 2,20,21
 214 846 214 846 225 846 c 128,-1,22
 236 846 236 846 252 821.5 c 128,-1,23
 268 797 268 797 268 780.5 c 128,-1,24
 268 764 268 764 257 758 c 2,25,-1
 72 670 l 1,14,-1
EndSplineSet
EndChar

StartChar: icircumflex
Encoding: 238 238 173
Width: 300
GlyphClass: 2
Flags: W
LayerCount: 2
Fore
SplineSet
190 577 m 2,0,-1
 190 117 l 2,1,2
 190 85 190 85 205 57.5 c 128,-1,3
 220 30 220 30 220 29 c 0,4,5
 220 17 220 17 201 3.5 c 128,-1,6
 182 -10 182 -10 169 -10 c 0,7,8
 148 -10 148 -10 129 26.5 c 128,-1,9
 110 63 110 63 110 107 c 2,10,-1
 110 577 l 2,11,12
 110 600 110 600 150 600 c 128,-1,13
 190 600 190 600 190 577 c 2,0,-1
145 846 m 2,14,-1
 156 846 l 2,15,16
 161 846 161 846 165 842 c 2,17,-1
 285 726 l 2,18,19
 292 719 292 719 292 708.5 c 128,-1,20
 292 698 292 698 281 682.5 c 128,-1,21
 270 667 270 667 260 667 c 0,22,23
 258 667 258 667 253 670 c 2,24,-1
 150 746 l 1,25,-1
 47 670 l 2,26,27
 43 667 43 667 36.5 667 c 128,-1,28
 30 667 30 667 19 682.5 c 128,-1,29
 8 698 8 698 8 708.5 c 128,-1,30
 8 719 8 719 15 726 c 2,31,-1
 135 842 l 2,32,33
 139 846 139 846 145 846 c 2,14,-1
EndSplineSet
EndChar

StartChar: idieresis
Encoding: 239 239 174
Width: 300
GlyphClass: 2
Flags: W
LayerCount: 2
Fore
SplineSet
190 577 m 2,0,-1
 190 117 l 2,1,2
 190 85 190 85 205 57.5 c 128,-1,3
 220 30 220 30 220 29 c 0,4,5
 220 17 220 17 201 3.5 c 128,-1,6
 182 -10 182 -10 169 -10 c 0,7,8
 148 -10 148 -10 129 26.5 c 128,-1,9
 110 63 110 63 110 107 c 2,10,-1
 110 577 l 2,11,12
 110 600 110 600 150 600 c 128,-1,13
 190 600 190 600 190 577 c 2,0,-1
94 795 m 2,14,-1
 94 708 l 2,15,16
 94 683 94 683 50.5 683 c 128,-1,17
 7 683 7 683 7 708 c 2,18,-1
 7 795 l 2,19,20
 7 820 7 820 50.5 820 c 128,-1,21
 94 820 94 820 94 795 c 2,14,-1
294 795 m 2,22,-1
 294 708 l 2,23,24
 294 683 294 683 250.5 683 c 128,-1,25
 207 683 207 683 207 708 c 2,26,-1
 207 795 l 2,27,28
 207 820 207 820 250.5 820 c 128,-1,29
 294 820 294 820 294 795 c 2,22,-1
EndSplineSet
EndChar

StartChar: eth
Encoding: 240 240 175
Width: 654
GlyphClass: 2
Flags: W
LayerCount: 2
Fore
SplineSet
533 546 m 2,0,-1
 533 143 l 2,1,2
 533 60 533 60 474 22.5 c 128,-1,3
 415 -15 415 -15 317 -15 c 128,-1,4
 219 -15 219 -15 159.5 22.5 c 128,-1,5
 100 60 100 60 100 143 c 2,6,-1
 100 387 l 2,7,8
 100 470 100 470 159 507.5 c 128,-1,9
 218 545 218 545 320.5 545 c 128,-1,10
 423 545 423 545 462 496 c 1,11,-1
 462 547 l 2,12,13
 462 573 462 573 452 611 c 2,14,-1
 442 647 l 1,15,-1
 348 622 l 1,16,17
 330 622 330 622 330 651 c 128,-1,18
 330 680 330 680 351 686 c 2,19,-1
 426 706 l 1,20,-1
 406 782 l 1,21,22
 406 800 406 800 439 800 c 128,-1,23
 472 800 472 800 478 779 c 2,24,-1
 492 724 l 1,25,-1
 592 751 l 1,26,27
 610 751 610 751 610 721 c 128,-1,28
 610 691 610 691 589 687 c 1,29,-1
 508 665 l 1,30,-1
 518 630 l 1,31,32
 533 572 533 572 533 546 c 2,0,-1
453 133 m 2,33,-1
 453 397 l 2,34,35
 453 475 453 475 316.5 475 c 128,-1,36
 180 475 180 475 180 397 c 2,37,-1
 180 133 l 2,38,39
 180 55 180 55 316.5 55 c 128,-1,40
 453 55 453 55 453 133 c 2,33,-1
EndSplineSet
EndChar

StartChar: ntilde
Encoding: 241 241 176
Width: 653
GlyphClass: 2
Flags: W
LayerCount: 2
Fore
SplineSet
543 457 m 2,0,-1
 543 18 l 2,1,2
 543 -5 543 -5 503 -5 c 128,-1,3
 463 -5 463 -5 463 18 c 2,4,-1
 463 467 l 2,5,6
 463 545 463 545 326.5 545 c 128,-1,7
 190 545 190 545 190 467 c 2,8,-1
 190 18 l 2,9,10
 190 -5 190 -5 150 -5 c 128,-1,11
 110 -5 110 -5 110 18 c 2,12,-1
 110 457 l 2,13,14
 110 540 110 540 169 577.5 c 128,-1,15
 228 615 228 615 326 615 c 128,-1,16
 424 615 424 615 483.5 577.5 c 128,-1,17
 543 540 543 540 543 457 c 2,0,-1
266 731 m 1,18,-1
 261 732 l 1,19,20
 248 732 248 732 248 707 c 0,21,22
 248 687 248 687 213 687 c 128,-1,23
 178 687 178 687 178 703 c 0,24,25
 178 758 178 758 196 785 c 128,-1,26
 214 812 214 812 243 812 c 0,27,28
 250 812 250 812 266 808 c 2,29,-1
 407 769 l 2,30,31
 409 768 409 768 413 768 c 0,32,33
 425 768 425 768 425 793 c 0,34,35
 425 813 425 813 460 813 c 128,-1,36
 495 813 495 813 495 797 c 0,37,38
 495 743 495 743 477 716 c 128,-1,39
 459 689 459 689 429 689 c 0,40,41
 419 689 419 689 407 692 c 2,42,-1
 266 731 l 1,18,-1
EndSplineSet
EndChar

StartChar: ograve
Encoding: 242 242 177
Width: 633
GlyphClass: 2
Flags: W
LayerCount: 2
Fore
SplineSet
453 133 m 2,0,-1
 453 467 l 2,1,2
 453 545 453 545 316.5 545 c 128,-1,3
 180 545 180 545 180 467 c 2,4,-1
 180 133 l 2,5,6
 180 55 180 55 316.5 55 c 128,-1,7
 453 55 453 55 453 133 c 2,0,-1
533 457 m 2,8,-1
 533 143 l 2,9,10
 533 60 533 60 474 22.5 c 128,-1,11
 415 -15 415 -15 317 -15 c 128,-1,12
 219 -15 219 -15 159.5 22.5 c 128,-1,13
 100 60 100 60 100 143 c 2,14,-1
 100 457 l 2,15,16
 100 540 100 540 159 577.5 c 128,-1,17
 218 615 218 615 316 615 c 128,-1,18
 414 615 414 615 473.5 577.5 c 128,-1,19
 533 540 533 540 533 457 c 2,8,-1
402 667 m 1,20,-1
 210 758 l 2,21,22
 199 764 199 764 199 780.5 c 128,-1,23
 199 797 199 797 215 821.5 c 128,-1,24
 231 846 231 846 242 846 c 128,-1,25
 253 846 253 846 258 842 c 2,26,-1
 427 726 l 2,27,28
 434 720 434 720 434 710.5 c 128,-1,29
 434 701 434 701 422.5 684 c 128,-1,30
 411 667 411 667 402 667 c 1,20,-1
EndSplineSet
EndChar

StartChar: oacute
Encoding: 243 243 178
Width: 633
GlyphClass: 2
Flags: W
LayerCount: 2
Fore
SplineSet
453 133 m 2,0,-1
 453 467 l 2,1,2
 453 545 453 545 316.5 545 c 128,-1,3
 180 545 180 545 180 467 c 2,4,-1
 180 133 l 2,5,6
 180 55 180 55 316.5 55 c 128,-1,7
 453 55 453 55 453 133 c 2,0,-1
533 457 m 2,8,-1
 533 143 l 2,9,10
 533 60 533 60 474 22.5 c 128,-1,11
 415 -15 415 -15 317 -15 c 128,-1,12
 219 -15 219 -15 159.5 22.5 c 128,-1,13
 100 60 100 60 100 143 c 2,14,-1
 100 457 l 2,15,16
 100 540 100 540 159 577.5 c 128,-1,17
 218 615 218 615 316 615 c 128,-1,18
 414 615 414 615 473.5 577.5 c 128,-1,19
 533 540 533 540 533 457 c 2,8,-1
258 670 m 1,20,-1
 251 667 l 1,21,22
 242 667 242 667 230.5 684 c 128,-1,23
 219 701 219 701 219 710.5 c 128,-1,24
 219 720 219 720 226 726 c 2,25,-1
 395 842 l 2,26,27
 400 846 400 846 411 846 c 128,-1,28
 422 846 422 846 438 821.5 c 128,-1,29
 454 797 454 797 454 780.5 c 128,-1,30
 454 764 454 764 443 758 c 2,31,-1
 258 670 l 1,20,-1
EndSplineSet
EndChar

StartChar: ocircumflex
Encoding: 244 244 179
Width: 633
GlyphClass: 2
Flags: W
LayerCount: 2
Fore
SplineSet
453 133 m 2,0,-1
 453 467 l 2,1,2
 453 545 453 545 316.5 545 c 128,-1,3
 180 545 180 545 180 467 c 2,4,-1
 180 133 l 2,5,6
 180 55 180 55 316.5 55 c 128,-1,7
 453 55 453 55 453 133 c 2,0,-1
533 457 m 2,8,-1
 533 143 l 2,9,10
 533 60 533 60 474 22.5 c 128,-1,11
 415 -15 415 -15 317 -15 c 128,-1,12
 219 -15 219 -15 159.5 22.5 c 128,-1,13
 100 60 100 60 100 143 c 2,14,-1
 100 457 l 2,15,16
 100 540 100 540 159 577.5 c 128,-1,17
 218 615 218 615 316 615 c 128,-1,18
 414 615 414 615 473.5 577.5 c 128,-1,19
 533 540 533 540 533 457 c 2,8,-1
311 846 m 2,20,-1
 322 846 l 2,21,22
 327 846 327 846 331 842 c 2,23,-1
 451 726 l 2,24,25
 458 719 458 719 458 708.5 c 128,-1,26
 458 698 458 698 447 682.5 c 128,-1,27
 436 667 436 667 426 667 c 0,28,29
 424 667 424 667 419 670 c 2,30,-1
 316 746 l 1,31,-1
 213 670 l 2,32,33
 208 667 208 667 206 667 c 0,34,35
 196 667 196 667 185 682.5 c 128,-1,36
 174 698 174 698 174 708.5 c 128,-1,37
 174 719 174 719 181 726 c 2,38,-1
 301 842 l 2,39,40
 305 846 305 846 311 846 c 2,20,-1
EndSplineSet
EndChar

StartChar: otilde
Encoding: 245 245 180
Width: 633
GlyphClass: 2
Flags: W
LayerCount: 2
Fore
SplineSet
453 133 m 2,0,-1
 453 467 l 2,1,2
 453 545 453 545 316.5 545 c 128,-1,3
 180 545 180 545 180 467 c 2,4,-1
 180 133 l 2,5,6
 180 55 180 55 316.5 55 c 128,-1,7
 453 55 453 55 453 133 c 2,0,-1
533 457 m 2,8,-1
 533 143 l 2,9,10
 533 60 533 60 474 22.5 c 128,-1,11
 415 -15 415 -15 317 -15 c 128,-1,12
 219 -15 219 -15 159.5 22.5 c 128,-1,13
 100 60 100 60 100 143 c 2,14,-1
 100 457 l 2,15,16
 100 540 100 540 159 577.5 c 128,-1,17
 218 615 218 615 316 615 c 128,-1,18
 414 615 414 615 473.5 577.5 c 128,-1,19
 533 540 533 540 533 457 c 2,8,-1
246 731 m 1,20,-1
 241 732 l 1,21,22
 228 732 228 732 228 707 c 0,23,24
 228 687 228 687 193 687 c 128,-1,25
 158 687 158 687 158 703 c 0,26,27
 158 758 158 758 176 785 c 128,-1,28
 194 812 194 812 223 812 c 0,29,30
 230 812 230 812 246 808 c 2,31,-1
 387 769 l 2,32,33
 389 768 389 768 393 768 c 0,34,35
 405 768 405 768 405 793 c 0,36,37
 405 813 405 813 440 813 c 128,-1,38
 475 813 475 813 475 797 c 0,39,40
 475 743 475 743 457 716 c 128,-1,41
 439 689 439 689 409 689 c 0,42,43
 399 689 399 689 387 692 c 2,44,-1
 246 731 l 1,20,-1
EndSplineSet
EndChar

StartChar: odieresis
Encoding: 246 246 181
Width: 633
GlyphClass: 2
Flags: W
LayerCount: 2
Fore
SplineSet
453 133 m 2,0,-1
 453 467 l 2,1,2
 453 545 453 545 316.5 545 c 128,-1,3
 180 545 180 545 180 467 c 2,4,-1
 180 133 l 2,5,6
 180 55 180 55 316.5 55 c 128,-1,7
 453 55 453 55 453 133 c 2,0,-1
533 457 m 2,8,-1
 533 143 l 2,9,10
 533 60 533 60 474 22.5 c 128,-1,11
 415 -15 415 -15 317 -15 c 128,-1,12
 219 -15 219 -15 159.5 22.5 c 128,-1,13
 100 60 100 60 100 143 c 2,14,-1
 100 457 l 2,15,16
 100 540 100 540 159 577.5 c 128,-1,17
 218 615 218 615 316 615 c 128,-1,18
 414 615 414 615 473.5 577.5 c 128,-1,19
 533 540 533 540 533 457 c 2,8,-1
260 795 m 2,20,-1
 260 708 l 2,21,22
 260 683 260 683 216.5 683 c 128,-1,23
 173 683 173 683 173 708 c 2,24,-1
 173 795 l 2,25,26
 173 820 173 820 216.5 820 c 128,-1,27
 260 820 260 820 260 795 c 2,20,-1
460 795 m 2,28,-1
 460 708 l 2,29,30
 460 683 460 683 416.5 683 c 128,-1,31
 373 683 373 683 373 708 c 2,32,-1
 373 795 l 2,33,34
 373 820 373 820 416.5 820 c 128,-1,35
 460 820 460 820 460 795 c 2,28,-1
EndSplineSet
EndChar

StartChar: divide
Encoding: 247 247 182
Width: 600
GlyphClass: 2
Flags: W
LayerCount: 2
Fore
SplineSet
342 188 m 2,0,-1
 342 103 l 2,1,2
 342 79 342 79 299.5 79 c 128,-1,3
 257 79 257 79 257 103 c 2,4,-1
 257 188 l 2,5,6
 257 212 257 212 299.5 212 c 128,-1,7
 342 212 342 212 342 188 c 2,0,-1
342 615 m 2,8,-1
 342 530 l 2,9,10
 342 506 342 506 299.5 506 c 128,-1,11
 257 506 257 506 257 530 c 2,12,-1
 257 615 l 2,13,14
 257 639 257 639 299.5 639 c 128,-1,15
 342 639 342 639 342 615 c 2,8,-1
95 406 m 2,16,-1
 505 406 l 2,17,18
 525 406 525 406 525 371 c 128,-1,19
 525 336 525 336 505 336 c 2,20,-1
 95 336 l 2,21,22
 75 336 75 336 75 371 c 128,-1,23
 75 406 75 406 95 406 c 2,16,-1
EndSplineSet
EndChar

StartChar: oslash
Encoding: 248 248 183
Width: 633
GlyphClass: 2
Flags: W
LayerCount: 2
Fore
SplineSet
533 457 m 2,0,-1
 533 143 l 2,1,2
 533 60 533 60 474 22.5 c 128,-1,3
 415 -15 415 -15 317 -15 c 0,4,5
 292 -15 292 -15 269 -12 c 1,6,-1
 231 -153 l 2,7,8
 224 -176 224 -176 191 -176 c 128,-1,9
 158 -176 158 -176 158 -159 c 0,10,11
 158 -157 158 -157 162 -142 c 2,12,-1
 200 2 l 1,13,14
 100 37 100 37 100 143 c 2,15,-1
 100 457 l 2,16,17
 100 540 100 540 159 577.5 c 128,-1,18
 218 615 218 615 316 615 c 0,19,20
 341 615 341 615 365 612 c 1,21,-1
 402 751 l 2,22,23
 409 774 409 774 442 774 c 128,-1,24
 475 774 475 774 475 757 c 0,25,26
 475 755 475 755 471 740 c 2,27,-1
 433 597 l 1,28,29
 533 560 533 560 533 457 c 2,0,-1
180 133 m 2,30,31
 180 93 180 93 219 72 c 1,32,-1
 346 544 l 1,33,34
 336 545 336 545 316 545 c 0,35,36
 180 545 180 545 180 467 c 2,37,-1
 180 133 l 2,30,31
453 133 m 2,38,-1
 453 467 l 2,39,40
 453 508 453 508 414 527 c 1,41,-1
 287 56 l 1,42,43
 297 55 297 55 317 55 c 0,44,45
 453 55 453 55 453 133 c 2,38,-1
EndSplineSet
EndChar

StartChar: ugrave
Encoding: 249 249 184
Width: 653
GlyphClass: 2
Flags: W
LayerCount: 2
Fore
SplineSet
543 582 m 2,0,-1
 543 143 l 2,1,2
 543 60 543 60 483.5 22.5 c 128,-1,3
 424 -15 424 -15 326 -15 c 128,-1,4
 228 -15 228 -15 169 22.5 c 128,-1,5
 110 60 110 60 110 143 c 2,6,-1
 110 582 l 2,7,8
 110 605 110 605 150 605 c 128,-1,9
 190 605 190 605 190 582 c 2,10,-1
 190 133 l 2,11,12
 190 55 190 55 326.5 55 c 128,-1,13
 463 55 463 55 463 133 c 2,14,-1
 463 582 l 2,15,16
 463 605 463 605 503 605 c 128,-1,17
 543 605 543 605 543 582 c 2,0,-1
412 667 m 1,18,-1
 220 758 l 2,19,20
 209 764 209 764 209 780.5 c 128,-1,21
 209 797 209 797 225 821.5 c 128,-1,22
 241 846 241 846 252 846 c 128,-1,23
 263 846 263 846 268 842 c 2,24,-1
 437 726 l 2,25,26
 444 720 444 720 444 710.5 c 128,-1,27
 444 701 444 701 432.5 684 c 128,-1,28
 421 667 421 667 412 667 c 1,18,-1
EndSplineSet
EndChar

StartChar: uacute
Encoding: 250 250 185
Width: 653
GlyphClass: 2
Flags: W
LayerCount: 2
Fore
SplineSet
543 582 m 2,0,-1
 543 143 l 2,1,2
 543 60 543 60 483.5 22.5 c 128,-1,3
 424 -15 424 -15 326 -15 c 128,-1,4
 228 -15 228 -15 169 22.5 c 128,-1,5
 110 60 110 60 110 143 c 2,6,-1
 110 582 l 2,7,8
 110 605 110 605 150 605 c 128,-1,9
 190 605 190 605 190 582 c 2,10,-1
 190 133 l 2,11,12
 190 55 190 55 326.5 55 c 128,-1,13
 463 55 463 55 463 133 c 2,14,-1
 463 582 l 2,15,16
 463 605 463 605 503 605 c 128,-1,17
 543 605 543 605 543 582 c 2,0,-1
268 670 m 1,18,-1
 261 667 l 1,19,20
 252 667 252 667 240.5 684 c 128,-1,21
 229 701 229 701 229 710.5 c 128,-1,22
 229 720 229 720 236 726 c 2,23,-1
 405 842 l 2,24,25
 410 846 410 846 421 846 c 128,-1,26
 432 846 432 846 448 821.5 c 128,-1,27
 464 797 464 797 464 780.5 c 128,-1,28
 464 764 464 764 453 758 c 2,29,-1
 268 670 l 1,18,-1
EndSplineSet
EndChar

StartChar: ucircumflex
Encoding: 251 251 186
Width: 653
GlyphClass: 2
Flags: W
LayerCount: 2
Fore
SplineSet
543 582 m 2,0,-1
 543 143 l 2,1,2
 543 60 543 60 483.5 22.5 c 128,-1,3
 424 -15 424 -15 326 -15 c 128,-1,4
 228 -15 228 -15 169 22.5 c 128,-1,5
 110 60 110 60 110 143 c 2,6,-1
 110 582 l 2,7,8
 110 605 110 605 150 605 c 128,-1,9
 190 605 190 605 190 582 c 2,10,-1
 190 133 l 2,11,12
 190 55 190 55 326.5 55 c 128,-1,13
 463 55 463 55 463 133 c 2,14,-1
 463 582 l 2,15,16
 463 605 463 605 503 605 c 128,-1,17
 543 605 543 605 543 582 c 2,0,-1
321 846 m 2,18,-1
 332 846 l 2,19,20
 337 846 337 846 341 842 c 2,21,-1
 461 726 l 2,22,23
 468 719 468 719 468 708.5 c 128,-1,24
 468 698 468 698 457 682.5 c 128,-1,25
 446 667 446 667 436 667 c 0,26,27
 434 667 434 667 429 670 c 2,28,-1
 326 746 l 1,29,-1
 223 670 l 2,30,31
 218 667 218 667 216 667 c 0,32,33
 206 667 206 667 195 682.5 c 128,-1,34
 184 698 184 698 184 708.5 c 128,-1,35
 184 719 184 719 191 726 c 2,36,-1
 311 842 l 2,37,38
 315 846 315 846 321 846 c 2,18,-1
EndSplineSet
EndChar

StartChar: udieresis
Encoding: 252 252 187
Width: 653
GlyphClass: 2
Flags: W
LayerCount: 2
Fore
SplineSet
543 582 m 2,0,-1
 543 143 l 2,1,2
 543 60 543 60 483.5 22.5 c 128,-1,3
 424 -15 424 -15 326 -15 c 128,-1,4
 228 -15 228 -15 169 22.5 c 128,-1,5
 110 60 110 60 110 143 c 2,6,-1
 110 582 l 2,7,8
 110 605 110 605 150 605 c 128,-1,9
 190 605 190 605 190 582 c 2,10,-1
 190 133 l 2,11,12
 190 55 190 55 326.5 55 c 128,-1,13
 463 55 463 55 463 133 c 2,14,-1
 463 582 l 2,15,16
 463 605 463 605 503 605 c 128,-1,17
 543 605 543 605 543 582 c 2,0,-1
270 795 m 2,18,-1
 270 708 l 2,19,20
 270 683 270 683 226.5 683 c 128,-1,21
 183 683 183 683 183 708 c 2,22,-1
 183 795 l 2,23,24
 183 820 183 820 226.5 820 c 128,-1,25
 270 820 270 820 270 795 c 2,18,-1
470 795 m 2,26,-1
 470 708 l 2,27,28
 470 683 470 683 426.5 683 c 128,-1,29
 383 683 383 683 383 708 c 2,30,-1
 383 795 l 2,31,32
 383 820 383 820 426.5 820 c 128,-1,33
 470 820 470 820 470 795 c 2,26,-1
EndSplineSet
EndChar

StartChar: yacute
Encoding: 253 253 188
Width: 610
GlyphClass: 2
Flags: W
LayerCount: 2
Fore
SplineSet
243 -250 m 2,0,-1
 171 -250 l 2,1,2
 151 -250 151 -250 151 -215 c 128,-1,3
 151 -180 151 -180 171 -180 c 2,4,-1
 243 -180 l 2,5,6
 299 -180 299 -180 320 -163.5 c 128,-1,7
 341 -147 341 -147 349 -102 c 2,8,-1
 363 -15 l 1,9,-1
 305 -15 l 2,10,11
 226 -15 226 -15 193 17 c 128,-1,12
 160 49 160 49 148 122 c 2,13,-1
 75 562 l 2,14,15
 71 585 71 585 71 587 c 0,16,17
 71 605 71 605 109 605 c 128,-1,18
 147 605 147 605 151 582 c 2,19,-1
 226 133 l 2,20,21
 233 90 233 90 248.5 72.5 c 128,-1,22
 264 55 264 55 305 55 c 2,23,-1
 375 55 l 1,24,-1
 463 582 l 2,25,26
 467 605 467 605 503 605 c 128,-1,27
 539 605 539 605 539 587 c 0,28,29
 539 585 539 585 536 564 c 2,30,-1
 425 -92 l 2,31,32
 409 -187 409 -187 374 -218.5 c 128,-1,33
 339 -250 339 -250 243 -250 c 2,0,-1
256 670 m 1,34,-1
 249 667 l 1,35,36
 240 667 240 667 228.5 684 c 128,-1,37
 217 701 217 701 217 710.5 c 128,-1,38
 217 720 217 720 224 726 c 2,39,-1
 393 842 l 2,40,41
 398 846 398 846 409 846 c 128,-1,42
 420 846 420 846 436 821.5 c 128,-1,43
 452 797 452 797 452 780.5 c 128,-1,44
 452 764 452 764 441 758 c 2,45,-1
 256 670 l 1,34,-1
EndSplineSet
EndChar

StartChar: thorn
Encoding: 254 254 189
Width: 643
GlyphClass: 2
Flags: W
LayerCount: 2
Fore
SplineSet
190 467 m 2,0,-1
 190 -232 l 2,1,2
 190 -255 190 -255 150 -255 c 128,-1,3
 110 -255 110 -255 110 -232 c 2,4,-1
 110 777 l 2,5,6
 110 800 110 800 150 800 c 128,-1,7
 190 800 190 800 190 777 c 2,8,-1
 190 589 l 1,9,10
 243 615 243 615 333.5 615 c 128,-1,11
 424 615 424 615 483.5 577.5 c 128,-1,12
 543 540 543 540 543 457 c 2,13,-1
 543 158 l 2,14,15
 543 75 543 75 484 37.5 c 128,-1,16
 425 0 425 0 327 0 c 2,17,-1
 240 0 l 2,18,19
 220 0 220 0 220 35 c 128,-1,20
 220 70 220 70 240 70 c 2,21,-1
 327 70 l 2,22,23
 463 70 463 70 463 148 c 2,24,-1
 463 467 l 2,25,26
 463 545 463 545 326.5 545 c 128,-1,27
 190 545 190 545 190 467 c 2,0,-1
EndSplineSet
EndChar

StartChar: ydieresis
Encoding: 255 255 190
Width: 610
GlyphClass: 2
Flags: W
LayerCount: 2
Fore
SplineSet
243 -250 m 2,0,-1
 171 -250 l 2,1,2
 151 -250 151 -250 151 -215 c 128,-1,3
 151 -180 151 -180 171 -180 c 2,4,-1
 243 -180 l 2,5,6
 299 -180 299 -180 320 -163.5 c 128,-1,7
 341 -147 341 -147 349 -102 c 2,8,-1
 363 -15 l 1,9,-1
 305 -15 l 2,10,11
 226 -15 226 -15 193 17 c 128,-1,12
 160 49 160 49 148 122 c 2,13,-1
 75 562 l 2,14,15
 71 585 71 585 71 587 c 0,16,17
 71 605 71 605 109 605 c 128,-1,18
 147 605 147 605 151 582 c 2,19,-1
 226 133 l 2,20,21
 233 90 233 90 248.5 72.5 c 128,-1,22
 264 55 264 55 305 55 c 2,23,-1
 375 55 l 1,24,-1
 463 582 l 2,25,26
 467 605 467 605 503 605 c 128,-1,27
 539 605 539 605 539 587 c 0,28,29
 539 585 539 585 536 564 c 2,30,-1
 425 -92 l 2,31,32
 409 -187 409 -187 374 -218.5 c 128,-1,33
 339 -250 339 -250 243 -250 c 2,0,-1
248 795 m 2,34,-1
 248 708 l 2,35,36
 248 683 248 683 204.5 683 c 128,-1,37
 161 683 161 683 161 708 c 2,38,-1
 161 795 l 2,39,40
 161 820 161 820 204.5 820 c 128,-1,41
 248 820 248 820 248 795 c 2,34,-1
448 795 m 2,42,-1
 448 708 l 2,43,44
 448 683 448 683 404.5 683 c 128,-1,45
 361 683 361 683 361 708 c 2,46,-1
 361 795 l 2,47,48
 361 820 361 820 404.5 820 c 128,-1,49
 448 820 448 820 448 795 c 2,42,-1
EndSplineSet
EndChar

StartChar: dotlessi
Encoding: 305 305 191
Width: 300
GlyphClass: 2
Flags: W
LayerCount: 2
Fore
SplineSet
190 577 m 2,0,-1
 190 117 l 2,1,2
 190 85 190 85 205 57.5 c 128,-1,3
 220 30 220 30 220 29 c 0,4,5
 220 17 220 17 201 3.5 c 128,-1,6
 182 -10 182 -10 169 -10 c 0,7,8
 148 -10 148 -10 129 26.5 c 128,-1,9
 110 63 110 63 110 107 c 2,10,-1
 110 577 l 2,11,12
 110 600 110 600 150 600 c 128,-1,13
 190 600 190 600 190 577 c 2,0,-1
EndSplineSet
EndChar

StartChar: Lslash
Encoding: 321 321 192
Width: 460
GlyphClass: 2
Flags: W
LayerCount: 2
Fore
SplineSet
268 70 m 2,0,-1
 430 70 l 2,1,2
 450 70 450 70 450 35 c 128,-1,3
 450 0 450 0 430 0 c 2,4,-1
 268 0 l 2,5,6
 182 0 182 0 146 41.5 c 128,-1,7
 110 83 110 83 110 176 c 2,8,-1
 110 334 l 1,9,-1
 68 323 l 1,10,11
 50 323 50 323 50 352 c 128,-1,12
 50 381 50 381 71 387 c 2,13,-1
 110 397 l 1,14,-1
 110 722 l 2,15,16
 110 745 110 745 150 745 c 128,-1,17
 190 745 190 745 190 722 c 2,18,-1
 190 419 l 1,19,-1
 312 452 l 1,20,21
 330 452 330 452 330 422 c 128,-1,22
 330 392 330 392 309 388 c 1,23,-1
 190 356 l 1,24,-1
 190 176 l 2,25,26
 190 118 190 118 207.5 94 c 128,-1,27
 225 70 225 70 268 70 c 2,0,-1
EndSplineSet
EndChar

StartChar: lslash
Encoding: 322 322 193
Width: 300
GlyphClass: 2
Flags: W
LayerCount: 2
Fore
SplineSet
190 777 m 2,0,-1
 190 429 l 1,1,-1
 273 452 l 1,2,3
 291 452 291 452 291 422 c 128,-1,4
 291 392 291 392 270 388 c 1,5,-1
 190 366 l 1,6,-1
 190 117 l 2,7,8
 190 85 190 85 205 57.5 c 128,-1,9
 220 30 220 30 220 29 c 0,10,11
 220 17 220 17 201 3.5 c 128,-1,12
 182 -10 182 -10 169 -10 c 0,13,14
 148 -10 148 -10 129 26.5 c 128,-1,15
 110 63 110 63 110 107 c 2,16,-1
 110 345 l 1,17,-1
 29 323 l 1,18,19
 11 323 11 323 11 352 c 128,-1,20
 11 381 11 381 32 387 c 2,21,-1
 110 408 l 1,22,-1
 110 777 l 2,23,24
 110 800 110 800 150 800 c 128,-1,25
 190 800 190 800 190 777 c 2,0,-1
EndSplineSet
EndChar

StartChar: OE
Encoding: 338 338 194
Width: 986
GlyphClass: 2
Flags: W
LayerCount: 2
Fore
SplineSet
705 755 m 0,0,1
 794 755 794 755 849 717 c 128,-1,2
 904 679 904 679 904 597 c 2,3,-1
 904 582 l 2,4,5
 904 559 904 559 864 559 c 128,-1,6
 824 559 824 559 824 582 c 2,7,-1
 824 607 l 2,8,9
 824 685 824 685 693.5 685 c 128,-1,10
 563 685 563 685 563 607 c 2,11,-1
 563 504 l 2,12,13
 563 416 563 416 671 416 c 2,14,-1
 756 416 l 2,15,16
 776 416 776 416 776 381 c 128,-1,17
 776 346 776 346 756 346 c 2,18,-1
 671 346 l 2,19,20
 563 346 563 346 563 258 c 2,21,-1
 563 133 l 2,22,23
 563 55 563 55 704.5 55 c 128,-1,24
 846 55 846 55 846 133 c 2,25,-1
 846 205 l 2,26,27
 846 228 846 228 886 228 c 128,-1,28
 926 228 926 228 926 205 c 2,29,-1
 926 143 l 2,30,31
 926 60 926 60 866 22.5 c 128,-1,32
 806 -15 806 -15 706 -15 c 0,33,34
 577 -15 577 -15 522 40 c 1,35,36
 463 -15 463 -15 328 -15 c 0,37,38
 100 -15 100 -15 100 143 c 2,39,-1
 100 597 l 2,40,41
 100 680 100 680 164.5 717.5 c 128,-1,42
 229 755 229 755 347 755 c 128,-1,43
 465 755 465 755 523 700 c 1,44,45
 579 755 579 755 705 755 c 0,0,1
483 133 m 2,46,-1
 483 258 l 2,47,48
 483 357 483 357 566 381 c 1,49,50
 483 403 483 403 483 504 c 2,51,-1
 483 607 l 2,52,53
 483 685 483 685 331.5 685 c 128,-1,54
 180 685 180 685 180 607 c 2,55,-1
 180 133 l 2,56,57
 180 55 180 55 331.5 55 c 128,-1,58
 483 55 483 55 483 133 c 2,46,-1
EndSplineSet
EndChar

StartChar: oe
Encoding: 339 339 195
Width: 991
GlyphClass: 2
Flags: W
LayerCount: 2
Fore
SplineSet
891 459 m 2,0,-1
 891 429 l 2,1,2
 891 344 891 344 856 312 c 128,-1,3
 821 280 821 280 728 271 c 2,4,-1
 533 252 l 1,5,-1
 533 133 l 2,6,7
 533 55 533 55 663 55 c 0,8,9
 811 55 811 55 811 123 c 2,10,-1
 811 161 l 2,11,12
 811 184 811 184 851 184 c 128,-1,13
 891 184 891 184 891 161 c 2,14,-1
 891 133 l 2,15,16
 891 -15 891 -15 671 -15 c 0,17,18
 548 -15 548 -15 493 39 c 1,19,20
 439 -15 439 -15 317 -15 c 0,21,22
 219 -15 219 -15 159.5 22.5 c 128,-1,23
 100 60 100 60 100 143 c 2,24,-1
 100 457 l 2,25,26
 100 540 100 540 159 577.5 c 128,-1,27
 218 615 218 615 316 615 c 0,28,29
 439 615 439 615 494 560 c 1,30,31
 553 615 553 615 686 615 c 0,32,33
 787 615 787 615 839 579 c 128,-1,34
 891 543 891 543 891 459 c 2,0,-1
453 133 m 2,35,-1
 453 467 l 2,36,37
 453 545 453 545 316.5 545 c 128,-1,38
 180 545 180 545 180 467 c 2,39,-1
 180 133 l 2,40,41
 180 55 180 55 316.5 55 c 128,-1,42
 453 55 453 55 453 133 c 2,35,-1
533 467 m 2,43,-1
 533 322 l 1,44,-1
 721 341 l 2,45,46
 778 347 778 347 794.5 365 c 128,-1,47
 811 383 811 383 811 429 c 2,48,-1
 811 467 l 2,49,50
 811 545 811 545 672 545 c 128,-1,51
 533 545 533 545 533 467 c 2,43,-1
EndSplineSet
EndChar

StartChar: Scaron
Encoding: 352 352 196
Width: 617
GlyphClass: 2
Flags: W
LayerCount: 2
Fore
SplineSet
457 133 m 2,0,-1
 457 246 l 2,1,2
 457 279 457 279 431 294 c 128,-1,3
 405 309 405 309 341 324 c 2,4,-1
 252 344 l 2,5,6
 191 358 191 358 160 375 c 0,7,8
 94 410 94 410 94 520 c 2,9,-1
 94 597 l 2,10,11
 94 680 94 680 153.5 717.5 c 128,-1,12
 213 755 213 755 311 755 c 128,-1,13
 409 755 409 755 468 717.5 c 128,-1,14
 527 680 527 680 527 597 c 2,15,-1
 527 553 l 2,16,17
 527 530 527 530 487 530 c 128,-1,18
 447 530 447 530 447 553 c 2,19,-1
 447 607 l 2,20,21
 447 685 447 685 310.5 685 c 128,-1,22
 174 685 174 685 174 607 c 2,23,-1
 174 522 l 2,24,25
 174 467 174 467 190.5 446.5 c 128,-1,26
 207 426 207 426 252 416 c 2,27,-1
 341 396 l 2,28,29
 437 375 437 375 450.5 367.5 c 128,-1,30
 464 360 464 360 482 351 c 128,-1,31
 500 342 500 342 506.5 332.5 c 128,-1,32
 513 323 513 323 522 309 c 0,33,34
 537 286 537 286 537 238 c 2,35,-1
 537 143 l 2,36,37
 537 61 537 61 471.5 23 c 128,-1,38
 406 -15 406 -15 306.5 -15 c 128,-1,39
 207 -15 207 -15 143.5 23 c 128,-1,40
 80 61 80 61 80 143 c 2,41,-1
 80 187 l 2,42,43
 80 210 80 210 120 210 c 128,-1,44
 160 210 160 210 160 187 c 2,45,-1
 160 133 l 2,46,47
 160 92 160 92 201.5 73.5 c 128,-1,48
 243 55 243 55 306.5 55 c 128,-1,49
 370 55 370 55 413.5 74 c 128,-1,50
 457 93 457 93 457 133 c 2,0,-1
314 802 m 2,51,-1
 303 802 l 2,52,53
 297 802 297 802 293 806 c 2,54,-1
 173 922 l 2,55,56
 166 929 166 929 166 939.5 c 128,-1,57
 166 950 166 950 177 965.5 c 128,-1,58
 188 981 188 981 198 981 c 0,59,60
 200 981 200 981 205 978 c 2,61,-1
 308 902 l 1,62,-1
 411 978 l 2,63,64
 416 981 416 981 418 981 c 0,65,66
 428 981 428 981 439 965.5 c 128,-1,67
 450 950 450 950 450 939.5 c 128,-1,68
 450 929 450 929 443 922 c 2,69,-1
 323 806 l 2,70,71
 319 802 319 802 314 802 c 2,51,-1
EndSplineSet
EndChar

StartChar: scaron
Encoding: 353 353 197
Width: 632
GlyphClass: 2
Flags: W
LayerCount: 2
Fore
SplineSet
445 427 m 2,0,-1
 445 466 l 2,1,2
 445 545 445 545 316 545 c 0,3,4
 261 545 261 545 226 527 c 128,-1,5
 191 509 191 509 191 470 c 2,6,-1
 191 448 l 2,7,8
 191 394 191 394 205 377.5 c 128,-1,9
 219 361 219 361 265 350 c 2,10,-1
 352 328 l 2,11,12
 476 296 476 296 499 266 c 0,13,14
 527 229 527 229 527 168 c 2,15,-1
 527 132 l 2,16,17
 527 54 527 54 466.5 19.5 c 128,-1,18
 406 -15 406 -15 310 -15 c 0,19,20
 154 -15 154 -15 112 64 c 0,21,22
 95 97 95 97 95 144 c 2,23,-1
 95 176 l 2,24,25
 95 189 95 189 104 193.5 c 128,-1,26
 113 198 113 198 135 198 c 0,27,28
 174 198 174 198 174 173 c 2,29,-1
 174 128 l 2,30,31
 174 88 174 88 209 71.5 c 128,-1,32
 244 55 244 55 311 55 c 0,33,34
 448 55 448 55 448 125 c 2,35,-1
 448 178 l 2,36,37
 448 209 448 209 424.5 226 c 128,-1,38
 401 243 401 243 344 258 c 2,39,-1
 256 280 l 2,40,41
 167 302 167 302 139.5 332.5 c 128,-1,42
 112 363 112 363 112 451 c 2,43,-1
 112 463 l 1,44,45
 114 543 114 543 169 579 c 128,-1,46
 224 615 224 615 314 615 c 0,47,48
 524 615 524 615 524 459 c 2,49,-1
 524 424 l 2,50,51
 524 403 524 403 484.5 403 c 128,-1,52
 445 403 445 403 445 427 c 2,0,-1
322 662 m 2,53,-1
 311 662 l 2,54,55
 305 662 305 662 301 666 c 2,56,-1
 181 782 l 2,57,58
 174 789 174 789 174 799.5 c 128,-1,59
 174 810 174 810 185 825.5 c 128,-1,60
 196 841 196 841 206 841 c 0,61,62
 208 841 208 841 213 838 c 2,63,-1
 316 762 l 1,64,-1
 419 838 l 2,65,66
 423 841 423 841 429.5 841 c 128,-1,67
 436 841 436 841 447 825.5 c 128,-1,68
 458 810 458 810 458 799.5 c 128,-1,69
 458 789 458 789 451 782 c 2,70,-1
 331 666 l 2,71,72
 327 662 327 662 322 662 c 2,53,-1
EndSplineSet
EndChar

StartChar: Ydieresis
Encoding: 376 376 198
Width: 580
GlyphClass: 2
Flags: W
LayerCount: 2
Fore
SplineSet
330 18 m 2,0,1
 330 -5 330 -5 290 -5 c 128,-1,2
 250 -5 250 -5 250 18 c 2,3,-1
 250 247 l 1,4,5
 199 255 199 255 174 287 c 128,-1,6
 149 319 149 319 133 382 c 2,7,-1
 55 690 l 2,8,9
 46 722 46 722 46 727 c 0,10,11
 46 745 46 745 83.5 745 c 128,-1,12
 121 745 121 745 126 722 c 2,13,-1
 211 393 l 2,14,15
 222 351 222 351 237.5 333 c 128,-1,16
 253 315 253 315 290 315 c 128,-1,17
 327 315 327 315 342.5 333 c 128,-1,18
 358 351 358 351 369 393 c 2,19,-1
 454 722 l 2,20,21
 459 745 459 745 496.5 745 c 128,-1,22
 534 745 534 745 534 727 c 0,23,24
 534 722 534 722 525 690 c 2,25,-1
 447 382 l 2,26,27
 431 319 431 319 406 287 c 128,-1,28
 381 255 381 255 330 247 c 1,29,-1
 330 18 l 2,0,1
233 935 m 2,30,-1
 233 848 l 2,31,32
 233 823 233 823 189.5 823 c 128,-1,33
 146 823 146 823 146 848 c 2,34,-1
 146 935 l 2,35,36
 146 960 146 960 189.5 960 c 128,-1,37
 233 960 233 960 233 935 c 2,30,-1
433 935 m 2,38,-1
 433 848 l 2,39,40
 433 823 433 823 389.5 823 c 128,-1,41
 346 823 346 823 346 848 c 2,42,-1
 346 935 l 2,43,44
 346 960 346 960 389.5 960 c 128,-1,45
 433 960 433 960 433 935 c 2,38,-1
EndSplineSet
EndChar

StartChar: Zcaron
Encoding: 381 381 199
Width: 595
GlyphClass: 2
Flags: W
LayerCount: 2
Fore
SplineSet
140 90 m 2,0,-1
 140 70 l 1,1,-1
 516 70 l 2,2,3
 536 70 536 70 536 35 c 128,-1,4
 536 0 536 0 516 0 c 2,5,-1
 80 0 l 2,6,7
 60 0 60 0 60 35 c 2,8,-1
 60 92 l 2,9,10
 60 128 60 128 70.5 147.5 c 128,-1,11
 81 167 81 167 84.5 172.5 c 128,-1,12
 88 178 88 178 99.5 191.5 c 128,-1,13
 111 205 111 205 115 210 c 0,14,15
 135 235 135 235 156 256 c 1,16,-1
 411 543 l 2,17,18
 436 572 436 572 445.5 589 c 128,-1,19
 455 606 455 606 455 630 c 2,20,-1
 455 670 l 1,21,-1
 119 670 l 2,22,23
 99 670 99 670 99 705 c 128,-1,24
 99 740 99 740 119 740 c 2,25,-1
 515 740 l 2,26,27
 535 740 535 740 535 705 c 2,28,-1
 535 628 l 2,29,30
 535 592 535 592 524.5 572.5 c 128,-1,31
 514 553 514 553 510.5 547.5 c 128,-1,32
 507 542 507 542 495.5 528.5 c 128,-1,33
 484 515 484 515 480 510 c 0,34,35
 460 485 460 485 439 464 c 1,36,-1
 184 177 l 2,37,38
 159 148 159 148 149.5 131 c 128,-1,39
 140 114 140 114 140 90 c 2,0,-1
333 802 m 2,40,-1
 322 802 l 2,41,42
 316 802 316 802 312 806 c 2,43,-1
 192 922 l 2,44,45
 185 929 185 929 185 939.5 c 128,-1,46
 185 950 185 950 196 965.5 c 128,-1,47
 207 981 207 981 217 981 c 0,48,49
 219 981 219 981 224 978 c 2,50,-1
 327 902 l 1,51,-1
 430 978 l 2,52,53
 434 981 434 981 440.5 981 c 128,-1,54
 447 981 447 981 458 965.5 c 128,-1,55
 469 950 469 950 469 939.5 c 128,-1,56
 469 929 469 929 462 922 c 2,57,-1
 342 806 l 2,58,59
 338 802 338 802 333 802 c 2,40,-1
EndSplineSet
EndChar

StartChar: zcaron
Encoding: 382 382 200
Width: 573
GlyphClass: 2
Flags: W
LayerCount: 2
Fore
SplineSet
150 70 m 1,0,-1
 473 70 l 2,1,2
 493 70 493 70 493 35 c 128,-1,3
 493 0 493 0 473 0 c 2,4,-1
 90 0 l 2,5,6
 70 0 70 0 70 35 c 2,7,-1
 70 70 l 2,8,9
 70 108 70 108 77.5 121.5 c 128,-1,10
 85 135 85 135 88 140.5 c 128,-1,11
 91 146 91 146 101.5 157.5 c 128,-1,12
 112 169 112 169 117.5 174.5 c 128,-1,13
 123 180 123 180 139.5 197 c 128,-1,14
 156 214 156 214 166 224 c 2,15,-1
 368 431 l 2,16,17
 398 462 398 462 405 473.5 c 128,-1,18
 412 485 412 485 412 508 c 2,19,-1
 412 530 l 1,20,-1
 119 530 l 2,21,22
 99 530 99 530 99 565 c 128,-1,23
 99 600 99 600 119 600 c 2,24,-1
 472 600 l 2,25,26
 492 600 492 600 492 565 c 2,27,-1
 492 510 l 2,28,29
 492 463 492 463 477 440 c 128,-1,30
 462 417 462 417 396 356 c 1,31,-1
 194 149 l 2,32,33
 164 118 164 118 157 106 c 128,-1,34
 150 94 150 94 150 70 c 1,0,-1
312 662 m 2,35,-1
 301 662 l 2,36,37
 295 662 295 662 291 666 c 2,38,-1
 171 782 l 2,39,40
 164 789 164 789 164 799.5 c 128,-1,41
 164 810 164 810 175 825.5 c 128,-1,42
 186 841 186 841 196 841 c 0,43,44
 198 841 198 841 203 838 c 2,45,-1
 306 762 l 1,46,-1
 409 838 l 2,47,48
 413 841 413 841 419.5 841 c 128,-1,49
 426 841 426 841 437 825.5 c 128,-1,50
 448 810 448 810 448 799.5 c 128,-1,51
 448 789 448 789 441 782 c 2,52,-1
 321 666 l 2,53,54
 317 662 317 662 312 662 c 2,35,-1
EndSplineSet
EndChar

StartChar: florin
Encoding: 402 402 201
Width: 600
GlyphClass: 2
Flags: W
LayerCount: 2
Fore
SplineSet
99 410 m 2,0,-1
 212 410 l 1,1,-1
 220 574 l 2,2,3
 224 660 224 660 258.5 700 c 128,-1,4
 293 740 293 740 378 740 c 2,5,-1
 470 740 l 2,6,7
 490 740 490 740 490 705 c 128,-1,8
 490 670 490 670 470 670 c 2,9,-1
 378 670 l 2,10,11
 336 670 336 670 319 647.5 c 128,-1,12
 302 625 302 625 300 574 c 2,13,-1
 292 410 l 1,14,-1
 432 410 l 2,15,16
 450 410 450 410 450 378.5 c 128,-1,17
 450 347 450 347 432 347 c 2,18,-1
 289 347 l 1,19,-1
 270 -53 l 2,20,21
 267 -115 267 -115 241 -157.5 c 128,-1,22
 215 -200 215 -200 191 -200 c 0,23,24
 178 -200 178 -200 159 -186.5 c 128,-1,25
 140 -173 140 -173 140 -161 c 0,26,27
 140 -158 140 -158 151 -145.5 c 128,-1,28
 162 -133 162 -133 174.5 -106.5 c 128,-1,29
 187 -80 187 -80 190 -43 c 1,30,-1
 209 347 l 1,31,-1
 99 347 l 2,32,33
 81 347 81 347 81 378.5 c 128,-1,34
 81 410 81 410 99 410 c 2,0,-1
EndSplineSet
EndChar

StartChar: circumflex
Encoding: 710 710 202
Width: 484
GlyphClass: 2
Flags: W
LayerCount: 2
Fore
SplineSet
237 846 m 2,0,-1
 248 846 l 2,1,2
 253 846 253 846 257 842 c 2,3,-1
 377 726 l 2,4,5
 384 719 384 719 384 708.5 c 128,-1,6
 384 698 384 698 373 682.5 c 128,-1,7
 362 667 362 667 352 667 c 0,8,9
 350 667 350 667 345 670 c 2,10,-1
 242 746 l 1,11,-1
 139 670 l 2,12,13
 134 667 134 667 132 667 c 0,14,15
 122 667 122 667 111 682.5 c 128,-1,16
 100 698 100 698 100 708.5 c 128,-1,17
 100 719 100 719 107 726 c 2,18,-1
 227 842 l 2,19,20
 231 846 231 846 237 846 c 2,0,-1
EndSplineSet
EndChar

StartChar: caron
Encoding: 711 711 203
Width: 484
GlyphClass: 2
Flags: W
LayerCount: 2
Fore
SplineSet
248 662 m 2,0,-1
 237 662 l 2,1,2
 231 662 231 662 227 666 c 2,3,-1
 107 782 l 2,4,5
 100 789 100 789 100 799.5 c 128,-1,6
 100 810 100 810 111 825.5 c 128,-1,7
 122 841 122 841 132 841 c 0,8,9
 134 841 134 841 139 838 c 2,10,-1
 242 762 l 1,11,-1
 345 838 l 2,12,13
 350 841 350 841 352 841 c 0,14,15
 362 841 362 841 373 825.5 c 128,-1,16
 384 810 384 810 384 799.5 c 128,-1,17
 384 789 384 789 377 782 c 2,18,-1
 257 666 l 2,19,20
 253 662 253 662 248 662 c 2,0,-1
EndSplineSet
EndChar

StartChar: breve
Encoding: 728 728 204
Width: 344
GlyphClass: 2
Flags: W
LayerCount: 2
Fore
SplineSet
121 794 m 2,0,-1
 121 769 l 2,1,2
 121 740 121 740 172 740 c 128,-1,3
 223 740 223 740 223 770 c 2,4,-1
 223 794 l 2,5,6
 223 814 223 814 258.5 814 c 128,-1,7
 294 814 294 814 294 794 c 2,8,-1
 294 769 l 2,9,10
 294 677 294 677 170 677 c 0,11,12
 106 677 106 677 78 699.5 c 128,-1,13
 50 722 50 722 50 769 c 2,14,-1
 50 794 l 2,15,16
 50 814 50 814 85.5 814 c 128,-1,17
 121 814 121 814 121 794 c 2,0,-1
EndSplineSet
EndChar

StartChar: dotaccent
Encoding: 729 729 205
Width: 287
GlyphClass: 2
Flags: W
LayerCount: 2
Fore
SplineSet
187 795 m 2,0,-1
 187 708 l 2,1,2
 187 683 187 683 143.5 683 c 128,-1,3
 100 683 100 683 100 708 c 2,4,-1
 100 795 l 2,5,6
 100 820 100 820 143.5 820 c 128,-1,7
 187 820 187 820 187 795 c 2,0,-1
EndSplineSet
EndChar

StartChar: ring
Encoding: 730 730 206
Width: 287
GlyphClass: 2
Flags: W
LayerCount: 2
Fore
SplineSet
254 764 m 2,0,-1
 254 739 l 2,1,2
 254 647 254 647 142 647 c 0,3,4
 83 647 83 647 58 669.5 c 128,-1,5
 33 692 33 692 33 739 c 2,6,-1
 33 764 l 2,7,8
 33 856 33 856 145 856 c 0,9,10
 204 856 204 856 229 833.5 c 128,-1,11
 254 811 254 811 254 764 c 2,0,-1
95 773 m 2,12,-1
 95 729 l 2,13,14
 95 700 95 700 143.5 700 c 128,-1,15
 192 700 192 700 192 730 c 2,16,-1
 192 774 l 2,17,18
 192 803 192 803 143.5 803 c 128,-1,19
 95 803 95 803 95 773 c 2,12,-1
EndSplineSet
EndChar

StartChar: ogonek
Encoding: 731 731 207
Width: 638
GlyphClass: 2
Flags: W
LayerCount: 2
Fore
SplineSet
285 -109 m 2,0,-1
 285 -134 l 2,1,2
 285 -164 285 -164 333.5 -164 c 128,-1,3
 382 -164 382 -164 382 -135 c 2,4,-1
 382 -117 l 2,5,6
 382 -96 382 -96 415.5 -96 c 128,-1,7
 449 -96 449 -96 449 -117 c 2,8,-1
 449 -130 l 2,9,10
 449 -174 449 -174 416 -198 c 128,-1,11
 383 -222 383 -222 335 -222 c 128,-1,12
 287 -222 287 -222 252.5 -197.5 c 128,-1,13
 218 -173 218 -173 218 -130 c 2,14,-1
 218 -108 l 2,15,16
 218 -77 218 -77 221.5 -62 c 128,-1,17
 225 -47 225 -47 246 -28 c 128,-1,18
 267 -9 267 -9 311 8 c 2,19,-1
 416 49 l 1,20,-1
 436 0 l 1,21,-1
 331 -41 l 2,22,23
 310 -49 310 -49 299 -62.5 c 128,-1,24
 288 -76 288 -76 286.5 -85 c 128,-1,25
 285 -94 285 -94 285 -109 c 2,0,-1
EndSplineSet
EndChar

StartChar: tilde
Encoding: 732 732 208
Width: 517
GlyphClass: 2
Flags: W
LayerCount: 2
Fore
SplineSet
188 731 m 1,0,-1
 183 732 l 1,1,2
 170 732 170 732 170 707 c 0,3,4
 170 687 170 687 135 687 c 128,-1,5
 100 687 100 687 100 703 c 0,6,7
 100 758 100 758 118 785 c 128,-1,8
 136 812 136 812 165 812 c 0,9,10
 172 812 172 812 188 808 c 2,11,-1
 329 769 l 2,12,13
 331 768 331 768 335 768 c 0,14,15
 347 768 347 768 347 793 c 0,16,17
 347 813 347 813 382 813 c 128,-1,18
 417 813 417 813 417 797 c 0,19,20
 417 743 417 743 399 716 c 128,-1,21
 381 689 381 689 351 689 c 0,22,23
 341 689 341 689 329 692 c 2,24,-1
 188 731 l 1,0,-1
EndSplineSet
EndChar

StartChar: hungarumlaut
Encoding: 733 733 209
Width: 517
GlyphClass: 2
Flags: W
LayerCount: 2
Fore
SplineSet
225 842 m 0,0,1
 241 842 241 842 259 816.5 c 128,-1,2
 277 791 277 791 277 776.5 c 128,-1,3
 277 762 277 762 268 757 c 2,4,-1
 132 675 l 2,5,6
 117 667 117 667 114 667 c 0,7,8
 103 667 103 667 91.5 684 c 128,-1,9
 80 701 80 701 80 710.5 c 128,-1,10
 80 720 80 720 85 724 c 2,11,-1
 213 837 l 2,12,13
 218 842 218 842 225 842 c 0,0,1
445 842 m 0,14,15
 461 842 461 842 479 816.5 c 128,-1,16
 497 791 497 791 497 776.5 c 128,-1,17
 497 762 497 762 488 757 c 2,18,-1
 352 675 l 2,19,20
 337 667 337 667 334 667 c 0,21,22
 323 667 323 667 311.5 684 c 128,-1,23
 300 701 300 701 300 710.5 c 128,-1,24
 300 720 300 720 305 724 c 2,25,-1
 433 837 l 2,26,27
 438 842 438 842 445 842 c 0,14,15
EndSplineSet
EndChar

StartChar: pi
Encoding: 960 960 210
Width: 635
GlyphClass: 2
Flags: W
LayerCount: 2
Fore
SplineSet
50 600 m 2,0,-1
 585 600 l 2,1,2
 605 600 605 600 605 565 c 128,-1,3
 605 530 605 530 585 530 c 2,4,-1
 515 530 l 1,5,-1
 515 117 l 2,6,7
 515 85 515 85 530 57.5 c 128,-1,8
 545 30 545 30 545 29 c 0,9,10
 545 17 545 17 526 3.5 c 128,-1,11
 507 -10 507 -10 494 -10 c 0,12,13
 473 -10 473 -10 454 26.5 c 128,-1,14
 435 63 435 63 435 107 c 2,15,-1
 435 530 l 1,16,-1
 200 530 l 1,17,-1
 200 18 l 2,18,19
 200 -5 200 -5 160 -5 c 128,-1,20
 120 -5 120 -5 120 18 c 2,21,-1
 120 530 l 1,22,-1
 50 530 l 2,23,24
 30 530 30 530 30 565 c 128,-1,25
 30 600 30 600 50 600 c 2,0,-1
EndSplineSet
EndChar

StartChar: endash
Encoding: 8211 8211 211
Width: 653
GlyphClass: 2
Flags: W
LayerCount: 2
Fore
SplineSet
110 359 m 2,0,-1
 543 359 l 2,1,2
 563 359 563 359 563 324 c 128,-1,3
 563 289 563 289 543 289 c 2,4,-1
 110 289 l 2,5,6
 90 289 90 289 90 324 c 128,-1,7
 90 359 90 359 110 359 c 2,0,-1
EndSplineSet
EndChar

StartChar: emdash
Encoding: 8212 8212 212
Width: 966
GlyphClass: 2
Flags: W
LayerCount: 2
Fore
SplineSet
110 359 m 2,0,-1
 856 359 l 2,1,2
 876 359 876 359 876 324 c 128,-1,3
 876 289 876 289 856 289 c 2,4,-1
 110 289 l 2,5,6
 90 289 90 289 90 324 c 128,-1,7
 90 359 90 359 110 359 c 2,0,-1
EndSplineSet
EndChar

StartChar: quoteleft
Encoding: 8216 8216 213
Width: 201
GlyphClass: 2
Flags: W
LayerCount: 2
Fore
SplineSet
58 549 m 2,0,-1
 58 660 l 2,1,2
 58 692 58 692 76 743 c 1,3,-1
 85 767 l 2,4,5
 88 776 88 776 100.5 776 c 128,-1,6
 113 776 113 776 127.5 768 c 128,-1,7
 142 760 142 760 142 753 c 0,8,9
 142 749 142 749 140 744 c 2,10,-1
 125 704 l 2,11,12
 119 686 119 686 119 677 c 128,-1,13
 119 668 119 668 131 650.5 c 128,-1,14
 143 633 143 633 143 621 c 2,15,-1
 143 549 l 2,16,17
 143 525 143 525 100.5 525 c 128,-1,18
 58 525 58 525 58 549 c 2,0,-1
EndSplineSet
EndChar

StartChar: quoteright
Encoding: 8217 8217 214
Width: 201
GlyphClass: 2
Flags: W
LayerCount: 2
Fore
SplineSet
143 766 m 2,0,-1
 143 655 l 2,1,2
 143 623 143 623 125 572 c 1,3,-1
 116 548 l 2,4,5
 113 539 113 539 100.5 539 c 128,-1,6
 88 539 88 539 73.5 547 c 128,-1,7
 59 555 59 555 59 562 c 0,8,9
 59 566 59 566 61 571 c 2,10,-1
 76 611 l 2,11,12
 82 629 82 629 82 638 c 128,-1,13
 82 647 82 647 70 664.5 c 128,-1,14
 58 682 58 682 58 694 c 2,15,-1
 58 766 l 2,16,17
 58 790 58 790 100.5 790 c 128,-1,18
 143 790 143 790 143 766 c 2,0,-1
EndSplineSet
EndChar

StartChar: quotesinglbase
Encoding: 8218 8218 215
Width: 201
GlyphClass: 2
Flags: W
LayerCount: 2
Fore
SplineSet
143 94 m 2,0,-1
 143 -17 l 2,1,2
 143 -49 143 -49 125 -100 c 1,3,-1
 116 -124 l 2,4,5
 113 -133 113 -133 100.5 -133 c 128,-1,6
 88 -133 88 -133 73.5 -125 c 128,-1,7
 59 -117 59 -117 59 -110 c 0,8,9
 59 -106 59 -106 61 -101 c 2,10,-1
 76 -61 l 2,11,12
 82 -43 82 -43 82 -34 c 128,-1,13
 82 -25 82 -25 70 -7.5 c 128,-1,14
 58 10 58 10 58 22 c 2,15,-1
 58 94 l 2,16,17
 58 118 58 118 100.5 118 c 128,-1,18
 143 118 143 118 143 94 c 2,0,-1
EndSplineSet
EndChar

StartChar: quotedblleft
Encoding: 8220 8220 216
Width: 371
GlyphClass: 2
Flags: W
LayerCount: 2
Fore
SplineSet
228 549 m 2,0,-1
 228 660 l 2,1,2
 228 692 228 692 246 743 c 1,3,-1
 255 767 l 2,4,5
 258 776 258 776 270.5 776 c 128,-1,6
 283 776 283 776 297.5 768 c 128,-1,7
 312 760 312 760 312 753 c 0,8,9
 312 749 312 749 310 744 c 2,10,-1
 295 704 l 2,11,12
 289 686 289 686 289 677 c 128,-1,13
 289 668 289 668 301 650.5 c 128,-1,14
 313 633 313 633 313 621 c 2,15,-1
 313 549 l 2,16,17
 313 525 313 525 270.5 525 c 128,-1,18
 228 525 228 525 228 549 c 2,0,-1
58 549 m 2,19,-1
 58 660 l 2,20,21
 58 692 58 692 76 743 c 1,22,-1
 85 767 l 2,23,24
 88 776 88 776 100.5 776 c 128,-1,25
 113 776 113 776 127.5 768 c 128,-1,26
 142 760 142 760 142 753 c 0,27,28
 142 749 142 749 140 744 c 2,29,-1
 125 704 l 2,30,31
 119 686 119 686 119 677 c 128,-1,32
 119 668 119 668 131 650.5 c 128,-1,33
 143 633 143 633 143 621 c 2,34,-1
 143 549 l 2,35,36
 143 525 143 525 100.5 525 c 128,-1,37
 58 525 58 525 58 549 c 2,19,-1
EndSplineSet
EndChar

StartChar: quotedblright
Encoding: 8221 8221 217
Width: 371
GlyphClass: 2
Flags: W
LayerCount: 2
Fore
SplineSet
143 766 m 2,0,-1
 143 655 l 2,1,2
 143 623 143 623 125 572 c 1,3,-1
 116 548 l 2,4,5
 113 539 113 539 100.5 539 c 128,-1,6
 88 539 88 539 73.5 547 c 128,-1,7
 59 555 59 555 59 562 c 0,8,9
 59 566 59 566 61 571 c 2,10,-1
 76 611 l 2,11,12
 82 629 82 629 82 638 c 128,-1,13
 82 647 82 647 70 664.5 c 128,-1,14
 58 682 58 682 58 694 c 2,15,-1
 58 766 l 2,16,17
 58 790 58 790 100.5 790 c 128,-1,18
 143 790 143 790 143 766 c 2,0,-1
313 766 m 2,19,-1
 313 655 l 2,20,21
 313 623 313 623 295 572 c 1,22,-1
 286 548 l 2,23,24
 283 539 283 539 270.5 539 c 128,-1,25
 258 539 258 539 243.5 547 c 128,-1,26
 229 555 229 555 229 562 c 0,27,28
 229 566 229 566 231 571 c 2,29,-1
 246 611 l 2,30,31
 252 629 252 629 252 638 c 128,-1,32
 252 647 252 647 240 664.5 c 128,-1,33
 228 682 228 682 228 694 c 2,34,-1
 228 766 l 2,35,36
 228 790 228 790 270.5 790 c 128,-1,37
 313 790 313 790 313 766 c 2,19,-1
EndSplineSet
EndChar

